G04 #@! TF.GenerationSoftware,KiCad,Pcbnew,(5.0.1)-4*
G04 #@! TF.CreationDate,2018-11-30T00:10:43+01:00*
G04 #@! TF.ProjectId,servos,736572766F732E6B696361645F706362,rev?*
G04 #@! TF.SameCoordinates,Original*
G04 #@! TF.FileFunction,Soldermask,Bot*
G04 #@! TF.FilePolarity,Negative*
%FSLAX46Y46*%
G04 Gerber Fmt 4.6, Leading zero omitted, Abs format (unit mm)*
G04 Created by KiCad (PCBNEW (5.0.1)-4) date 30.11.2018 00:10:43*
%MOMM*%
%LPD*%
G01*
G04 APERTURE LIST*
%ADD10C,0.100000*%
G04 APERTURE END LIST*
D10*
G36*
X188612522Y-148764225D02*
X188875077Y-148816450D01*
X189369722Y-149021339D01*
X189692813Y-149237222D01*
X189814893Y-149318793D01*
X190193472Y-149697372D01*
X190193474Y-149697375D01*
X190490926Y-150142543D01*
X190695815Y-150637188D01*
X190800266Y-151162299D01*
X190800266Y-151697699D01*
X190695815Y-152222810D01*
X190490926Y-152717455D01*
X190268058Y-153051000D01*
X190193472Y-153162626D01*
X189814893Y-153541205D01*
X189814890Y-153541207D01*
X189369722Y-153838659D01*
X188875077Y-154043548D01*
X188612521Y-154095774D01*
X188349967Y-154147999D01*
X187814565Y-154147999D01*
X187552011Y-154095774D01*
X187289455Y-154043548D01*
X186794810Y-153838659D01*
X186349642Y-153541207D01*
X186349639Y-153541205D01*
X185971060Y-153162626D01*
X185896474Y-153051000D01*
X185673606Y-152717455D01*
X185468717Y-152222810D01*
X185364266Y-151697699D01*
X185364266Y-151162299D01*
X185468717Y-150637188D01*
X185673606Y-150142543D01*
X185971058Y-149697375D01*
X185971060Y-149697372D01*
X186349639Y-149318793D01*
X186471719Y-149237222D01*
X186794810Y-149021339D01*
X187289455Y-148816450D01*
X187552010Y-148764225D01*
X187814565Y-148711999D01*
X188349967Y-148711999D01*
X188612522Y-148764225D01*
X188612522Y-148764225D01*
G37*
G36*
X156826324Y-151536182D02*
X156991545Y-151586301D01*
X157143813Y-151667691D01*
X157277278Y-151777222D01*
X157386809Y-151910687D01*
X157468199Y-152062955D01*
X157518318Y-152228176D01*
X157535241Y-152400000D01*
X157518318Y-152571824D01*
X157468199Y-152737045D01*
X157386809Y-152889313D01*
X157277278Y-153022778D01*
X157143813Y-153132309D01*
X156991545Y-153213699D01*
X156826324Y-153263818D01*
X156697560Y-153276500D01*
X155722440Y-153276500D01*
X155593676Y-153263818D01*
X155428455Y-153213699D01*
X155276187Y-153132309D01*
X155142722Y-153022778D01*
X155033191Y-152889313D01*
X154951801Y-152737045D01*
X154901682Y-152571824D01*
X154884759Y-152400000D01*
X154901682Y-152228176D01*
X154951801Y-152062955D01*
X155033191Y-151910687D01*
X155142722Y-151777222D01*
X155276187Y-151667691D01*
X155428455Y-151586301D01*
X155593676Y-151536182D01*
X155722440Y-151523500D01*
X156697560Y-151523500D01*
X156826324Y-151536182D01*
X156826324Y-151536182D01*
G37*
G36*
X137598252Y-149027818D02*
X137598254Y-149027819D01*
X137598255Y-149027819D01*
X137971513Y-149182427D01*
X138175596Y-149318791D01*
X138307439Y-149406886D01*
X138593114Y-149692561D01*
X138593116Y-149692564D01*
X138817573Y-150028487D01*
X138887392Y-150197046D01*
X138972182Y-150401748D01*
X139038768Y-150736500D01*
X139051000Y-150797994D01*
X139051000Y-151202006D01*
X138972181Y-151598255D01*
X138817573Y-151971513D01*
X138817572Y-151971514D01*
X138593114Y-152307439D01*
X138307439Y-152593114D01*
X138307436Y-152593116D01*
X137971513Y-152817573D01*
X137598255Y-152972181D01*
X137598254Y-152972181D01*
X137598252Y-152972182D01*
X137202007Y-153051000D01*
X136797993Y-153051000D01*
X136401748Y-152972182D01*
X136401746Y-152972181D01*
X136401745Y-152972181D01*
X136028487Y-152817573D01*
X135692564Y-152593116D01*
X135692561Y-152593114D01*
X135406886Y-152307439D01*
X135182428Y-151971514D01*
X135182427Y-151971513D01*
X135027819Y-151598255D01*
X134949000Y-151202006D01*
X134949000Y-150797994D01*
X134961232Y-150736500D01*
X135027818Y-150401748D01*
X135112608Y-150197046D01*
X135182427Y-150028487D01*
X135406884Y-149692564D01*
X135406886Y-149692561D01*
X135692561Y-149406886D01*
X135824404Y-149318791D01*
X136028487Y-149182427D01*
X136401745Y-149027819D01*
X136401746Y-149027819D01*
X136401748Y-149027818D01*
X136797993Y-148949000D01*
X137202007Y-148949000D01*
X137598252Y-149027818D01*
X137598252Y-149027818D01*
G37*
G36*
X156826324Y-148996182D02*
X156991545Y-149046301D01*
X157143813Y-149127691D01*
X157277278Y-149237222D01*
X157386809Y-149370687D01*
X157468199Y-149522955D01*
X157518318Y-149688176D01*
X157535241Y-149860000D01*
X157518318Y-150031824D01*
X157468199Y-150197045D01*
X157386809Y-150349313D01*
X157277278Y-150482778D01*
X157143813Y-150592309D01*
X156991545Y-150673699D01*
X156826324Y-150723818D01*
X156697560Y-150736500D01*
X155722440Y-150736500D01*
X155593676Y-150723818D01*
X155428455Y-150673699D01*
X155276187Y-150592309D01*
X155142722Y-150482778D01*
X155033191Y-150349313D01*
X154951801Y-150197045D01*
X154901682Y-150031824D01*
X154884759Y-149860000D01*
X154901682Y-149688176D01*
X154951801Y-149522955D01*
X155033191Y-149370687D01*
X155142722Y-149237222D01*
X155276187Y-149127691D01*
X155428455Y-149046301D01*
X155593676Y-148996182D01*
X155722440Y-148983500D01*
X156697560Y-148983500D01*
X156826324Y-148996182D01*
X156826324Y-148996182D01*
G37*
G36*
X156826324Y-146456182D02*
X156991545Y-146506301D01*
X157143813Y-146587691D01*
X157277278Y-146697222D01*
X157386809Y-146830687D01*
X157468199Y-146982955D01*
X157518318Y-147148176D01*
X157535241Y-147320000D01*
X157518318Y-147491824D01*
X157468199Y-147657045D01*
X157386809Y-147809313D01*
X157277278Y-147942778D01*
X157143813Y-148052309D01*
X156991545Y-148133699D01*
X156826324Y-148183818D01*
X156697560Y-148196500D01*
X155722440Y-148196500D01*
X155593676Y-148183818D01*
X155428455Y-148133699D01*
X155276187Y-148052309D01*
X155142722Y-147942778D01*
X155033191Y-147809313D01*
X154951801Y-147657045D01*
X154901682Y-147491824D01*
X154884759Y-147320000D01*
X154901682Y-147148176D01*
X154951801Y-146982955D01*
X155033191Y-146830687D01*
X155142722Y-146697222D01*
X155276187Y-146587691D01*
X155428455Y-146506301D01*
X155593676Y-146456182D01*
X155722440Y-146443500D01*
X156697560Y-146443500D01*
X156826324Y-146456182D01*
X156826324Y-146456182D01*
G37*
G36*
X179686324Y-143916182D02*
X179851545Y-143966301D01*
X180003813Y-144047691D01*
X180137278Y-144157222D01*
X180246809Y-144290687D01*
X180328199Y-144442955D01*
X180378318Y-144608176D01*
X180395241Y-144780000D01*
X180378318Y-144951824D01*
X180328199Y-145117045D01*
X180246809Y-145269313D01*
X180137278Y-145402778D01*
X180003813Y-145512309D01*
X179851545Y-145593699D01*
X179686324Y-145643818D01*
X179557560Y-145656500D01*
X178582440Y-145656500D01*
X178453676Y-145643818D01*
X178288455Y-145593699D01*
X178136187Y-145512309D01*
X178002722Y-145402778D01*
X177893191Y-145269313D01*
X177811801Y-145117045D01*
X177761682Y-144951824D01*
X177744759Y-144780000D01*
X177761682Y-144608176D01*
X177811801Y-144442955D01*
X177893191Y-144290687D01*
X178002722Y-144157222D01*
X178136187Y-144047691D01*
X178288455Y-143966301D01*
X178453676Y-143916182D01*
X178582440Y-143903500D01*
X179557560Y-143903500D01*
X179686324Y-143916182D01*
X179686324Y-143916182D01*
G37*
G36*
X156826324Y-143916182D02*
X156991545Y-143966301D01*
X157143813Y-144047691D01*
X157277278Y-144157222D01*
X157386809Y-144290687D01*
X157468199Y-144442955D01*
X157518318Y-144608176D01*
X157535241Y-144780000D01*
X157518318Y-144951824D01*
X157468199Y-145117045D01*
X157386809Y-145269313D01*
X157277278Y-145402778D01*
X157143813Y-145512309D01*
X156991545Y-145593699D01*
X156826324Y-145643818D01*
X156697560Y-145656500D01*
X155722440Y-145656500D01*
X155593676Y-145643818D01*
X155428455Y-145593699D01*
X155276187Y-145512309D01*
X155142722Y-145402778D01*
X155033191Y-145269313D01*
X154951801Y-145117045D01*
X154901682Y-144951824D01*
X154884759Y-144780000D01*
X154901682Y-144608176D01*
X154951801Y-144442955D01*
X155033191Y-144290687D01*
X155142722Y-144157222D01*
X155276187Y-144047691D01*
X155428455Y-143966301D01*
X155593676Y-143916182D01*
X155722440Y-143903500D01*
X156697560Y-143903500D01*
X156826324Y-143916182D01*
X156826324Y-143916182D01*
G37*
G36*
X185790494Y-142961703D02*
X185945366Y-143025853D01*
X186084747Y-143118985D01*
X186203281Y-143237519D01*
X186296413Y-143376900D01*
X186360563Y-143531772D01*
X186393266Y-143696184D01*
X186393266Y-143863816D01*
X186360563Y-144028228D01*
X186296413Y-144183100D01*
X186203281Y-144322481D01*
X186084747Y-144441015D01*
X185945366Y-144534147D01*
X185790494Y-144598297D01*
X185626082Y-144631000D01*
X185458450Y-144631000D01*
X185294038Y-144598297D01*
X185139166Y-144534147D01*
X184999785Y-144441015D01*
X184881251Y-144322481D01*
X184788119Y-144183100D01*
X184723969Y-144028228D01*
X184691266Y-143863816D01*
X184691266Y-143696184D01*
X184723969Y-143531772D01*
X184788119Y-143376900D01*
X184881251Y-143237519D01*
X184999785Y-143118985D01*
X185139166Y-143025853D01*
X185294038Y-142961703D01*
X185458450Y-142929000D01*
X185626082Y-142929000D01*
X185790494Y-142961703D01*
X185790494Y-142961703D01*
G37*
G36*
X190870494Y-142961703D02*
X191025366Y-143025853D01*
X191164747Y-143118985D01*
X191283281Y-143237519D01*
X191376413Y-143376900D01*
X191440563Y-143531772D01*
X191473266Y-143696184D01*
X191473266Y-143863816D01*
X191440563Y-144028228D01*
X191376413Y-144183100D01*
X191283281Y-144322481D01*
X191164747Y-144441015D01*
X191025366Y-144534147D01*
X190870494Y-144598297D01*
X190706082Y-144631000D01*
X190538450Y-144631000D01*
X190374038Y-144598297D01*
X190219166Y-144534147D01*
X190079785Y-144441015D01*
X189961251Y-144322481D01*
X189868119Y-144183100D01*
X189803969Y-144028228D01*
X189771266Y-143863816D01*
X189771266Y-143696184D01*
X189803969Y-143531772D01*
X189868119Y-143376900D01*
X189961251Y-143237519D01*
X190079785Y-143118985D01*
X190219166Y-143025853D01*
X190374038Y-142961703D01*
X190538450Y-142929000D01*
X190706082Y-142929000D01*
X190870494Y-142961703D01*
X190870494Y-142961703D01*
G37*
G36*
X188330494Y-141816703D02*
X188485366Y-141880853D01*
X188624747Y-141973985D01*
X188743281Y-142092519D01*
X188836413Y-142231900D01*
X188900563Y-142386772D01*
X188933266Y-142551184D01*
X188933266Y-142718816D01*
X188900563Y-142883228D01*
X188836413Y-143038100D01*
X188743281Y-143177481D01*
X188624747Y-143296015D01*
X188485366Y-143389147D01*
X188330494Y-143453297D01*
X188166082Y-143486000D01*
X187998450Y-143486000D01*
X187834038Y-143453297D01*
X187679166Y-143389147D01*
X187539785Y-143296015D01*
X187421251Y-143177481D01*
X187328119Y-143038100D01*
X187263969Y-142883228D01*
X187231266Y-142718816D01*
X187231266Y-142551184D01*
X187263969Y-142386772D01*
X187328119Y-142231900D01*
X187421251Y-142092519D01*
X187539785Y-141973985D01*
X187679166Y-141880853D01*
X187834038Y-141816703D01*
X187998450Y-141784000D01*
X188166082Y-141784000D01*
X188330494Y-141816703D01*
X188330494Y-141816703D01*
G37*
G36*
X156826324Y-141376182D02*
X156991545Y-141426301D01*
X157143813Y-141507691D01*
X157277278Y-141617222D01*
X157386809Y-141750687D01*
X157468199Y-141902955D01*
X157518318Y-142068176D01*
X157535241Y-142240000D01*
X157518318Y-142411824D01*
X157468199Y-142577045D01*
X157386809Y-142729313D01*
X157277278Y-142862778D01*
X157143813Y-142972309D01*
X156991545Y-143053699D01*
X156826324Y-143103818D01*
X156697560Y-143116500D01*
X155722440Y-143116500D01*
X155593676Y-143103818D01*
X155428455Y-143053699D01*
X155276187Y-142972309D01*
X155142722Y-142862778D01*
X155033191Y-142729313D01*
X154951801Y-142577045D01*
X154901682Y-142411824D01*
X154884759Y-142240000D01*
X154901682Y-142068176D01*
X154951801Y-141902955D01*
X155033191Y-141750687D01*
X155142722Y-141617222D01*
X155276187Y-141507691D01*
X155428455Y-141426301D01*
X155593676Y-141376182D01*
X155722440Y-141363500D01*
X156697560Y-141363500D01*
X156826324Y-141376182D01*
X156826324Y-141376182D01*
G37*
G36*
X179686324Y-141376182D02*
X179851545Y-141426301D01*
X180003813Y-141507691D01*
X180137278Y-141617222D01*
X180246809Y-141750687D01*
X180328199Y-141902955D01*
X180378318Y-142068176D01*
X180395241Y-142240000D01*
X180378318Y-142411824D01*
X180328199Y-142577045D01*
X180246809Y-142729313D01*
X180137278Y-142862778D01*
X180003813Y-142972309D01*
X179851545Y-143053699D01*
X179686324Y-143103818D01*
X179557560Y-143116500D01*
X178582440Y-143116500D01*
X178453676Y-143103818D01*
X178288455Y-143053699D01*
X178136187Y-142972309D01*
X178002722Y-142862778D01*
X177893191Y-142729313D01*
X177811801Y-142577045D01*
X177761682Y-142411824D01*
X177744759Y-142240000D01*
X177761682Y-142068176D01*
X177811801Y-141902955D01*
X177893191Y-141750687D01*
X178002722Y-141617222D01*
X178136187Y-141507691D01*
X178288455Y-141426301D01*
X178453676Y-141376182D01*
X178582440Y-141363500D01*
X179557560Y-141363500D01*
X179686324Y-141376182D01*
X179686324Y-141376182D01*
G37*
G36*
X185790494Y-140671703D02*
X185945366Y-140735853D01*
X186084747Y-140828985D01*
X186203281Y-140947519D01*
X186296413Y-141086900D01*
X186360563Y-141241772D01*
X186393266Y-141406184D01*
X186393266Y-141573816D01*
X186360563Y-141738228D01*
X186296413Y-141893100D01*
X186203281Y-142032481D01*
X186084747Y-142151015D01*
X185945366Y-142244147D01*
X185790494Y-142308297D01*
X185626082Y-142341000D01*
X185458450Y-142341000D01*
X185294038Y-142308297D01*
X185139166Y-142244147D01*
X184999785Y-142151015D01*
X184881251Y-142032481D01*
X184788119Y-141893100D01*
X184723969Y-141738228D01*
X184691266Y-141573816D01*
X184691266Y-141406184D01*
X184723969Y-141241772D01*
X184788119Y-141086900D01*
X184881251Y-140947519D01*
X184999785Y-140828985D01*
X185139166Y-140735853D01*
X185294038Y-140671703D01*
X185458450Y-140639000D01*
X185626082Y-140639000D01*
X185790494Y-140671703D01*
X185790494Y-140671703D01*
G37*
G36*
X190870494Y-140671703D02*
X191025366Y-140735853D01*
X191164747Y-140828985D01*
X191283281Y-140947519D01*
X191376413Y-141086900D01*
X191440563Y-141241772D01*
X191473266Y-141406184D01*
X191473266Y-141573816D01*
X191440563Y-141738228D01*
X191376413Y-141893100D01*
X191283281Y-142032481D01*
X191164747Y-142151015D01*
X191025366Y-142244147D01*
X190870494Y-142308297D01*
X190706082Y-142341000D01*
X190538450Y-142341000D01*
X190374038Y-142308297D01*
X190219166Y-142244147D01*
X190079785Y-142151015D01*
X189961251Y-142032481D01*
X189868119Y-141893100D01*
X189803969Y-141738228D01*
X189771266Y-141573816D01*
X189771266Y-141406184D01*
X189803969Y-141241772D01*
X189868119Y-141086900D01*
X189961251Y-140947519D01*
X190079785Y-140828985D01*
X190219166Y-140735853D01*
X190374038Y-140671703D01*
X190538450Y-140639000D01*
X190706082Y-140639000D01*
X190870494Y-140671703D01*
X190870494Y-140671703D01*
G37*
G36*
X188330494Y-139526703D02*
X188485366Y-139590853D01*
X188624747Y-139683985D01*
X188743281Y-139802519D01*
X188836413Y-139941900D01*
X188900563Y-140096772D01*
X188933266Y-140261184D01*
X188933266Y-140428816D01*
X188900563Y-140593228D01*
X188836413Y-140748100D01*
X188743281Y-140887481D01*
X188624747Y-141006015D01*
X188485366Y-141099147D01*
X188330494Y-141163297D01*
X188166082Y-141196000D01*
X187998450Y-141196000D01*
X187834038Y-141163297D01*
X187679166Y-141099147D01*
X187539785Y-141006015D01*
X187421251Y-140887481D01*
X187328119Y-140748100D01*
X187263969Y-140593228D01*
X187231266Y-140428816D01*
X187231266Y-140261184D01*
X187263969Y-140096772D01*
X187328119Y-139941900D01*
X187421251Y-139802519D01*
X187539785Y-139683985D01*
X187679166Y-139590853D01*
X187834038Y-139526703D01*
X187998450Y-139494000D01*
X188166082Y-139494000D01*
X188330494Y-139526703D01*
X188330494Y-139526703D01*
G37*
G36*
X156826324Y-138836182D02*
X156991545Y-138886301D01*
X157143813Y-138967691D01*
X157277278Y-139077222D01*
X157386809Y-139210687D01*
X157468199Y-139362955D01*
X157518318Y-139528176D01*
X157535241Y-139700000D01*
X157518318Y-139871824D01*
X157468199Y-140037045D01*
X157386809Y-140189313D01*
X157277278Y-140322778D01*
X157143813Y-140432309D01*
X156991545Y-140513699D01*
X156826324Y-140563818D01*
X156697560Y-140576500D01*
X155722440Y-140576500D01*
X155593676Y-140563818D01*
X155428455Y-140513699D01*
X155276187Y-140432309D01*
X155142722Y-140322778D01*
X155033191Y-140189313D01*
X154951801Y-140037045D01*
X154901682Y-139871824D01*
X154884759Y-139700000D01*
X154901682Y-139528176D01*
X154951801Y-139362955D01*
X155033191Y-139210687D01*
X155142722Y-139077222D01*
X155276187Y-138967691D01*
X155428455Y-138886301D01*
X155593676Y-138836182D01*
X155722440Y-138823500D01*
X156697560Y-138823500D01*
X156826324Y-138836182D01*
X156826324Y-138836182D01*
G37*
G36*
X179686324Y-138836182D02*
X179851545Y-138886301D01*
X180003813Y-138967691D01*
X180137278Y-139077222D01*
X180246809Y-139210687D01*
X180328199Y-139362955D01*
X180378318Y-139528176D01*
X180395241Y-139700000D01*
X180378318Y-139871824D01*
X180328199Y-140037045D01*
X180246809Y-140189313D01*
X180137278Y-140322778D01*
X180003813Y-140432309D01*
X179851545Y-140513699D01*
X179686324Y-140563818D01*
X179557560Y-140576500D01*
X178582440Y-140576500D01*
X178453676Y-140563818D01*
X178288455Y-140513699D01*
X178136187Y-140432309D01*
X178002722Y-140322778D01*
X177893191Y-140189313D01*
X177811801Y-140037045D01*
X177761682Y-139871824D01*
X177744759Y-139700000D01*
X177761682Y-139528176D01*
X177811801Y-139362955D01*
X177893191Y-139210687D01*
X178002722Y-139077222D01*
X178136187Y-138967691D01*
X178288455Y-138886301D01*
X178453676Y-138836182D01*
X178582440Y-138823500D01*
X179557560Y-138823500D01*
X179686324Y-138836182D01*
X179686324Y-138836182D01*
G37*
G36*
X185790494Y-138381703D02*
X185945366Y-138445853D01*
X186084747Y-138538985D01*
X186203281Y-138657519D01*
X186296413Y-138796900D01*
X186360563Y-138951772D01*
X186393266Y-139116184D01*
X186393266Y-139283816D01*
X186360563Y-139448228D01*
X186296413Y-139603100D01*
X186203281Y-139742481D01*
X186084747Y-139861015D01*
X185945366Y-139954147D01*
X185790494Y-140018297D01*
X185626082Y-140051000D01*
X185458450Y-140051000D01*
X185294038Y-140018297D01*
X185139166Y-139954147D01*
X184999785Y-139861015D01*
X184881251Y-139742481D01*
X184788119Y-139603100D01*
X184723969Y-139448228D01*
X184691266Y-139283816D01*
X184691266Y-139116184D01*
X184723969Y-138951772D01*
X184788119Y-138796900D01*
X184881251Y-138657519D01*
X184999785Y-138538985D01*
X185139166Y-138445853D01*
X185294038Y-138381703D01*
X185458450Y-138349000D01*
X185626082Y-138349000D01*
X185790494Y-138381703D01*
X185790494Y-138381703D01*
G37*
G36*
X190870494Y-138381703D02*
X191025366Y-138445853D01*
X191164747Y-138538985D01*
X191283281Y-138657519D01*
X191376413Y-138796900D01*
X191440563Y-138951772D01*
X191473266Y-139116184D01*
X191473266Y-139283816D01*
X191440563Y-139448228D01*
X191376413Y-139603100D01*
X191283281Y-139742481D01*
X191164747Y-139861015D01*
X191025366Y-139954147D01*
X190870494Y-140018297D01*
X190706082Y-140051000D01*
X190538450Y-140051000D01*
X190374038Y-140018297D01*
X190219166Y-139954147D01*
X190079785Y-139861015D01*
X189961251Y-139742481D01*
X189868119Y-139603100D01*
X189803969Y-139448228D01*
X189771266Y-139283816D01*
X189771266Y-139116184D01*
X189803969Y-138951772D01*
X189868119Y-138796900D01*
X189961251Y-138657519D01*
X190079785Y-138538985D01*
X190219166Y-138445853D01*
X190374038Y-138381703D01*
X190538450Y-138349000D01*
X190706082Y-138349000D01*
X190870494Y-138381703D01*
X190870494Y-138381703D01*
G37*
G36*
X188330494Y-137236703D02*
X188485366Y-137300853D01*
X188624747Y-137393985D01*
X188743281Y-137512519D01*
X188836413Y-137651900D01*
X188900563Y-137806772D01*
X188933266Y-137971184D01*
X188933266Y-138138816D01*
X188900563Y-138303228D01*
X188836413Y-138458100D01*
X188743281Y-138597481D01*
X188624747Y-138716015D01*
X188485366Y-138809147D01*
X188330494Y-138873297D01*
X188166082Y-138906000D01*
X187998450Y-138906000D01*
X187834038Y-138873297D01*
X187679166Y-138809147D01*
X187539785Y-138716015D01*
X187421251Y-138597481D01*
X187328119Y-138458100D01*
X187263969Y-138303228D01*
X187231266Y-138138816D01*
X187231266Y-137971184D01*
X187263969Y-137806772D01*
X187328119Y-137651900D01*
X187421251Y-137512519D01*
X187539785Y-137393985D01*
X187679166Y-137300853D01*
X187834038Y-137236703D01*
X187998450Y-137204000D01*
X188166082Y-137204000D01*
X188330494Y-137236703D01*
X188330494Y-137236703D01*
G37*
G36*
X179686324Y-136296182D02*
X179851545Y-136346301D01*
X180003813Y-136427691D01*
X180137278Y-136537222D01*
X180246809Y-136670687D01*
X180328199Y-136822955D01*
X180378318Y-136988176D01*
X180395241Y-137160000D01*
X180378318Y-137331824D01*
X180328199Y-137497045D01*
X180246809Y-137649313D01*
X180137278Y-137782778D01*
X180003813Y-137892309D01*
X179851545Y-137973699D01*
X179686324Y-138023818D01*
X179557560Y-138036500D01*
X178582440Y-138036500D01*
X178453676Y-138023818D01*
X178288455Y-137973699D01*
X178136187Y-137892309D01*
X178002722Y-137782778D01*
X177893191Y-137649313D01*
X177811801Y-137497045D01*
X177761682Y-137331824D01*
X177744759Y-137160000D01*
X177761682Y-136988176D01*
X177811801Y-136822955D01*
X177893191Y-136670687D01*
X178002722Y-136537222D01*
X178136187Y-136427691D01*
X178288455Y-136346301D01*
X178453676Y-136296182D01*
X178582440Y-136283500D01*
X179557560Y-136283500D01*
X179686324Y-136296182D01*
X179686324Y-136296182D01*
G37*
G36*
X156826324Y-136296182D02*
X156991545Y-136346301D01*
X157143813Y-136427691D01*
X157277278Y-136537222D01*
X157386809Y-136670687D01*
X157468199Y-136822955D01*
X157518318Y-136988176D01*
X157535241Y-137160000D01*
X157518318Y-137331824D01*
X157468199Y-137497045D01*
X157386809Y-137649313D01*
X157277278Y-137782778D01*
X157143813Y-137892309D01*
X156991545Y-137973699D01*
X156826324Y-138023818D01*
X156697560Y-138036500D01*
X155722440Y-138036500D01*
X155593676Y-138023818D01*
X155428455Y-137973699D01*
X155276187Y-137892309D01*
X155142722Y-137782778D01*
X155033191Y-137649313D01*
X154951801Y-137497045D01*
X154901682Y-137331824D01*
X154884759Y-137160000D01*
X154901682Y-136988176D01*
X154951801Y-136822955D01*
X155033191Y-136670687D01*
X155142722Y-136537222D01*
X155276187Y-136427691D01*
X155428455Y-136346301D01*
X155593676Y-136296182D01*
X155722440Y-136283500D01*
X156697560Y-136283500D01*
X156826324Y-136296182D01*
X156826324Y-136296182D01*
G37*
G36*
X185790494Y-136091703D02*
X185945366Y-136155853D01*
X186084747Y-136248985D01*
X186203281Y-136367519D01*
X186296413Y-136506900D01*
X186360563Y-136661772D01*
X186393266Y-136826184D01*
X186393266Y-136993816D01*
X186360563Y-137158228D01*
X186296413Y-137313100D01*
X186203281Y-137452481D01*
X186084747Y-137571015D01*
X185945366Y-137664147D01*
X185790494Y-137728297D01*
X185626082Y-137761000D01*
X185458450Y-137761000D01*
X185294038Y-137728297D01*
X185139166Y-137664147D01*
X184999785Y-137571015D01*
X184881251Y-137452481D01*
X184788119Y-137313100D01*
X184723969Y-137158228D01*
X184691266Y-136993816D01*
X184691266Y-136826184D01*
X184723969Y-136661772D01*
X184788119Y-136506900D01*
X184881251Y-136367519D01*
X184999785Y-136248985D01*
X185139166Y-136155853D01*
X185294038Y-136091703D01*
X185458450Y-136059000D01*
X185626082Y-136059000D01*
X185790494Y-136091703D01*
X185790494Y-136091703D01*
G37*
G36*
X190870494Y-136091703D02*
X191025366Y-136155853D01*
X191164747Y-136248985D01*
X191283281Y-136367519D01*
X191376413Y-136506900D01*
X191440563Y-136661772D01*
X191473266Y-136826184D01*
X191473266Y-136993816D01*
X191440563Y-137158228D01*
X191376413Y-137313100D01*
X191283281Y-137452481D01*
X191164747Y-137571015D01*
X191025366Y-137664147D01*
X190870494Y-137728297D01*
X190706082Y-137761000D01*
X190538450Y-137761000D01*
X190374038Y-137728297D01*
X190219166Y-137664147D01*
X190079785Y-137571015D01*
X189961251Y-137452481D01*
X189868119Y-137313100D01*
X189803969Y-137158228D01*
X189771266Y-136993816D01*
X189771266Y-136826184D01*
X189803969Y-136661772D01*
X189868119Y-136506900D01*
X189961251Y-136367519D01*
X190079785Y-136248985D01*
X190219166Y-136155853D01*
X190374038Y-136091703D01*
X190538450Y-136059000D01*
X190706082Y-136059000D01*
X190870494Y-136091703D01*
X190870494Y-136091703D01*
G37*
G36*
X188330494Y-134946703D02*
X188485366Y-135010853D01*
X188624747Y-135103985D01*
X188743281Y-135222519D01*
X188836413Y-135361900D01*
X188900563Y-135516772D01*
X188933266Y-135681184D01*
X188933266Y-135848816D01*
X188900563Y-136013228D01*
X188836413Y-136168100D01*
X188743281Y-136307481D01*
X188624747Y-136426015D01*
X188485366Y-136519147D01*
X188330494Y-136583297D01*
X188166082Y-136616000D01*
X187998450Y-136616000D01*
X187834038Y-136583297D01*
X187679166Y-136519147D01*
X187539785Y-136426015D01*
X187421251Y-136307481D01*
X187328119Y-136168100D01*
X187263969Y-136013228D01*
X187231266Y-135848816D01*
X187231266Y-135681184D01*
X187263969Y-135516772D01*
X187328119Y-135361900D01*
X187421251Y-135222519D01*
X187539785Y-135103985D01*
X187679166Y-135010853D01*
X187834038Y-134946703D01*
X187998450Y-134914000D01*
X188166082Y-134914000D01*
X188330494Y-134946703D01*
X188330494Y-134946703D01*
G37*
G36*
X156826324Y-133756182D02*
X156991545Y-133806301D01*
X157143813Y-133887691D01*
X157277278Y-133997222D01*
X157386809Y-134130687D01*
X157468199Y-134282955D01*
X157518318Y-134448176D01*
X157535241Y-134620000D01*
X157518318Y-134791824D01*
X157468199Y-134957045D01*
X157386809Y-135109313D01*
X157277278Y-135242778D01*
X157143813Y-135352309D01*
X156991545Y-135433699D01*
X156826324Y-135483818D01*
X156697560Y-135496500D01*
X155722440Y-135496500D01*
X155593676Y-135483818D01*
X155428455Y-135433699D01*
X155276187Y-135352309D01*
X155142722Y-135242778D01*
X155033191Y-135109313D01*
X154951801Y-134957045D01*
X154901682Y-134791824D01*
X154884759Y-134620000D01*
X154901682Y-134448176D01*
X154951801Y-134282955D01*
X155033191Y-134130687D01*
X155142722Y-133997222D01*
X155276187Y-133887691D01*
X155428455Y-133806301D01*
X155593676Y-133756182D01*
X155722440Y-133743500D01*
X156697560Y-133743500D01*
X156826324Y-133756182D01*
X156826324Y-133756182D01*
G37*
G36*
X190870494Y-133801703D02*
X191025366Y-133865853D01*
X191164747Y-133958985D01*
X191283281Y-134077519D01*
X191376413Y-134216900D01*
X191440563Y-134371772D01*
X191473266Y-134536184D01*
X191473266Y-134703816D01*
X191440563Y-134868228D01*
X191376413Y-135023100D01*
X191283281Y-135162481D01*
X191164747Y-135281015D01*
X191025366Y-135374147D01*
X190870494Y-135438297D01*
X190706082Y-135471000D01*
X190538450Y-135471000D01*
X190374038Y-135438297D01*
X190219166Y-135374147D01*
X190079785Y-135281015D01*
X189961251Y-135162481D01*
X189868119Y-135023100D01*
X189803969Y-134868228D01*
X189771266Y-134703816D01*
X189771266Y-134536184D01*
X189803969Y-134371772D01*
X189868119Y-134216900D01*
X189961251Y-134077519D01*
X190079785Y-133958985D01*
X190219166Y-133865853D01*
X190374038Y-133801703D01*
X190538450Y-133769000D01*
X190706082Y-133769000D01*
X190870494Y-133801703D01*
X190870494Y-133801703D01*
G37*
G36*
X186393266Y-135471000D02*
X184691266Y-135471000D01*
X184691266Y-133769000D01*
X186393266Y-133769000D01*
X186393266Y-135471000D01*
X186393266Y-135471000D01*
G37*
G36*
X188330494Y-132656703D02*
X188485366Y-132720853D01*
X188624747Y-132813985D01*
X188743281Y-132932519D01*
X188836413Y-133071900D01*
X188900563Y-133226772D01*
X188933266Y-133391184D01*
X188933266Y-133558816D01*
X188900563Y-133723228D01*
X188836413Y-133878100D01*
X188743281Y-134017481D01*
X188624747Y-134136015D01*
X188485366Y-134229147D01*
X188330494Y-134293297D01*
X188166082Y-134326000D01*
X187998450Y-134326000D01*
X187834038Y-134293297D01*
X187679166Y-134229147D01*
X187539785Y-134136015D01*
X187421251Y-134017481D01*
X187328119Y-133878100D01*
X187263969Y-133723228D01*
X187231266Y-133558816D01*
X187231266Y-133391184D01*
X187263969Y-133226772D01*
X187328119Y-133071900D01*
X187421251Y-132932519D01*
X187539785Y-132813985D01*
X187679166Y-132720853D01*
X187834038Y-132656703D01*
X187998450Y-132624000D01*
X188166082Y-132624000D01*
X188330494Y-132656703D01*
X188330494Y-132656703D01*
G37*
G36*
X179686324Y-131216182D02*
X179851545Y-131266301D01*
X180003813Y-131347691D01*
X180137278Y-131457222D01*
X180246809Y-131590687D01*
X180328199Y-131742955D01*
X180378318Y-131908176D01*
X180395241Y-132080000D01*
X180378318Y-132251824D01*
X180328199Y-132417045D01*
X180246809Y-132569313D01*
X180137278Y-132702778D01*
X180003813Y-132812309D01*
X179851545Y-132893699D01*
X179686324Y-132943818D01*
X179557560Y-132956500D01*
X178582440Y-132956500D01*
X178453676Y-132943818D01*
X178288455Y-132893699D01*
X178136187Y-132812309D01*
X178002722Y-132702778D01*
X177893191Y-132569313D01*
X177811801Y-132417045D01*
X177761682Y-132251824D01*
X177744759Y-132080000D01*
X177761682Y-131908176D01*
X177811801Y-131742955D01*
X177893191Y-131590687D01*
X178002722Y-131457222D01*
X178136187Y-131347691D01*
X178288455Y-131266301D01*
X178453676Y-131216182D01*
X178582440Y-131203500D01*
X179557560Y-131203500D01*
X179686324Y-131216182D01*
X179686324Y-131216182D01*
G37*
G36*
X156826324Y-131216182D02*
X156991545Y-131266301D01*
X157143813Y-131347691D01*
X157277278Y-131457222D01*
X157386809Y-131590687D01*
X157468199Y-131742955D01*
X157518318Y-131908176D01*
X157535241Y-132080000D01*
X157518318Y-132251824D01*
X157468199Y-132417045D01*
X157386809Y-132569313D01*
X157277278Y-132702778D01*
X157143813Y-132812309D01*
X156991545Y-132893699D01*
X156826324Y-132943818D01*
X156697560Y-132956500D01*
X155722440Y-132956500D01*
X155593676Y-132943818D01*
X155428455Y-132893699D01*
X155276187Y-132812309D01*
X155142722Y-132702778D01*
X155033191Y-132569313D01*
X154951801Y-132417045D01*
X154901682Y-132251824D01*
X154884759Y-132080000D01*
X154901682Y-131908176D01*
X154951801Y-131742955D01*
X155033191Y-131590687D01*
X155142722Y-131457222D01*
X155276187Y-131347691D01*
X155428455Y-131266301D01*
X155593676Y-131216182D01*
X155722440Y-131203500D01*
X156697560Y-131203500D01*
X156826324Y-131216182D01*
X156826324Y-131216182D01*
G37*
G36*
X179686324Y-128676182D02*
X179851545Y-128726301D01*
X180003813Y-128807691D01*
X180137278Y-128917222D01*
X180246809Y-129050687D01*
X180328199Y-129202955D01*
X180378318Y-129368176D01*
X180395241Y-129540000D01*
X180378318Y-129711824D01*
X180328199Y-129877045D01*
X180246809Y-130029313D01*
X180137278Y-130162778D01*
X180003813Y-130272309D01*
X179851545Y-130353699D01*
X179686324Y-130403818D01*
X179557560Y-130416500D01*
X178582440Y-130416500D01*
X178453676Y-130403818D01*
X178288455Y-130353699D01*
X178136187Y-130272309D01*
X178002722Y-130162778D01*
X177893191Y-130029313D01*
X177811801Y-129877045D01*
X177761682Y-129711824D01*
X177744759Y-129540000D01*
X177761682Y-129368176D01*
X177811801Y-129202955D01*
X177893191Y-129050687D01*
X178002722Y-128917222D01*
X178136187Y-128807691D01*
X178288455Y-128726301D01*
X178453676Y-128676182D01*
X178582440Y-128663500D01*
X179557560Y-128663500D01*
X179686324Y-128676182D01*
X179686324Y-128676182D01*
G37*
G36*
X156826324Y-128676182D02*
X156991545Y-128726301D01*
X157143813Y-128807691D01*
X157277278Y-128917222D01*
X157386809Y-129050687D01*
X157468199Y-129202955D01*
X157518318Y-129368176D01*
X157535241Y-129540000D01*
X157518318Y-129711824D01*
X157468199Y-129877045D01*
X157386809Y-130029313D01*
X157277278Y-130162778D01*
X157143813Y-130272309D01*
X156991545Y-130353699D01*
X156826324Y-130403818D01*
X156697560Y-130416500D01*
X155722440Y-130416500D01*
X155593676Y-130403818D01*
X155428455Y-130353699D01*
X155276187Y-130272309D01*
X155142722Y-130162778D01*
X155033191Y-130029313D01*
X154951801Y-129877045D01*
X154901682Y-129711824D01*
X154884759Y-129540000D01*
X154901682Y-129368176D01*
X154951801Y-129202955D01*
X155033191Y-129050687D01*
X155142722Y-128917222D01*
X155276187Y-128807691D01*
X155428455Y-128726301D01*
X155593676Y-128676182D01*
X155722440Y-128663500D01*
X156697560Y-128663500D01*
X156826324Y-128676182D01*
X156826324Y-128676182D01*
G37*
G36*
X188612521Y-123775425D02*
X188875077Y-123827651D01*
X189369722Y-124032540D01*
X189505036Y-124122954D01*
X189814893Y-124329994D01*
X190193472Y-124708573D01*
X190490927Y-125153746D01*
X190695815Y-125648390D01*
X190790321Y-126123500D01*
X190800266Y-126173500D01*
X190800266Y-126708900D01*
X190695815Y-127234011D01*
X190490926Y-127728656D01*
X190197431Y-128167901D01*
X190193472Y-128173827D01*
X189814893Y-128552406D01*
X189814890Y-128552408D01*
X189369722Y-128849860D01*
X188875077Y-129054749D01*
X188612522Y-129106974D01*
X188349967Y-129159200D01*
X187814565Y-129159200D01*
X187552010Y-129106974D01*
X187289455Y-129054749D01*
X186794810Y-128849860D01*
X186349642Y-128552408D01*
X186349639Y-128552406D01*
X185971060Y-128173827D01*
X185967101Y-128167901D01*
X185673606Y-127728656D01*
X185468717Y-127234011D01*
X185364266Y-126708900D01*
X185364266Y-126173500D01*
X185374212Y-126123500D01*
X185468717Y-125648390D01*
X185673605Y-125153746D01*
X185971060Y-124708573D01*
X186349639Y-124329994D01*
X186659496Y-124122954D01*
X186794810Y-124032540D01*
X187289455Y-123827651D01*
X187552011Y-123775425D01*
X187814565Y-123723200D01*
X188349967Y-123723200D01*
X188612521Y-123775425D01*
X188612521Y-123775425D01*
G37*
G36*
X157531000Y-127876500D02*
X154889000Y-127876500D01*
X154889000Y-126123500D01*
X157531000Y-126123500D01*
X157531000Y-127876500D01*
X157531000Y-127876500D01*
G37*
G36*
X156394524Y-123596182D02*
X156559745Y-123646301D01*
X156712013Y-123727691D01*
X156845478Y-123837222D01*
X156955009Y-123970687D01*
X157036399Y-124122955D01*
X157086518Y-124288176D01*
X157103441Y-124460000D01*
X157086518Y-124631824D01*
X157036399Y-124797045D01*
X156955009Y-124949313D01*
X156845478Y-125082778D01*
X156712013Y-125192309D01*
X156559745Y-125273699D01*
X156394524Y-125323818D01*
X156265760Y-125336500D01*
X155735140Y-125336500D01*
X155606376Y-125323818D01*
X155441155Y-125273699D01*
X155288887Y-125192309D01*
X155155422Y-125082778D01*
X155045891Y-124949313D01*
X154964501Y-124797045D01*
X154914382Y-124631824D01*
X154897459Y-124460000D01*
X154914382Y-124288176D01*
X154964501Y-124122955D01*
X155045891Y-123970687D01*
X155155422Y-123837222D01*
X155288887Y-123727691D01*
X155441155Y-123646301D01*
X155606376Y-123596182D01*
X155735140Y-123583500D01*
X156265760Y-123583500D01*
X156394524Y-123596182D01*
X156394524Y-123596182D01*
G37*
G36*
X159353624Y-123596182D02*
X159518845Y-123646301D01*
X159671113Y-123727691D01*
X159804578Y-123837222D01*
X159914109Y-123970687D01*
X159995499Y-124122955D01*
X160045618Y-124288176D01*
X160062541Y-124460000D01*
X160045618Y-124631824D01*
X159995499Y-124797045D01*
X159914109Y-124949313D01*
X159804578Y-125082778D01*
X159671113Y-125192309D01*
X159518845Y-125273699D01*
X159353624Y-125323818D01*
X159224860Y-125336500D01*
X158694240Y-125336500D01*
X158565476Y-125323818D01*
X158400255Y-125273699D01*
X158247987Y-125192309D01*
X158114522Y-125082778D01*
X158004991Y-124949313D01*
X157923601Y-124797045D01*
X157873482Y-124631824D01*
X157856559Y-124460000D01*
X157873482Y-124288176D01*
X157923601Y-124122955D01*
X158004991Y-123970687D01*
X158114522Y-123837222D01*
X158247987Y-123727691D01*
X158400255Y-123646301D01*
X158565476Y-123596182D01*
X158694240Y-123583500D01*
X159224860Y-123583500D01*
X159353624Y-123596182D01*
X159353624Y-123596182D01*
G37*
G36*
X182598252Y-119027818D02*
X182598254Y-119027819D01*
X182598255Y-119027819D01*
X182971513Y-119182427D01*
X182971514Y-119182428D01*
X183307439Y-119406886D01*
X183593114Y-119692561D01*
X183593116Y-119692564D01*
X183817573Y-120028487D01*
X183972181Y-120401745D01*
X184051000Y-120797994D01*
X184051000Y-121202006D01*
X183972181Y-121598255D01*
X183817573Y-121971513D01*
X183817572Y-121971514D01*
X183593114Y-122307439D01*
X183307439Y-122593114D01*
X183307436Y-122593116D01*
X182971513Y-122817573D01*
X182598255Y-122972181D01*
X182598254Y-122972181D01*
X182598252Y-122972182D01*
X182202007Y-123051000D01*
X181797993Y-123051000D01*
X181401748Y-122972182D01*
X181401746Y-122972181D01*
X181401745Y-122972181D01*
X181028487Y-122817573D01*
X180692564Y-122593116D01*
X180692561Y-122593114D01*
X180406886Y-122307439D01*
X180182428Y-121971514D01*
X180182427Y-121971513D01*
X180027819Y-121598255D01*
X179949000Y-121202006D01*
X179949000Y-120797994D01*
X180027819Y-120401745D01*
X180182427Y-120028487D01*
X180406884Y-119692564D01*
X180406886Y-119692561D01*
X180692561Y-119406886D01*
X181028486Y-119182428D01*
X181028487Y-119182427D01*
X181401745Y-119027819D01*
X181401746Y-119027819D01*
X181401748Y-119027818D01*
X181797993Y-118949000D01*
X182202007Y-118949000D01*
X182598252Y-119027818D01*
X182598252Y-119027818D01*
G37*
G36*
X136598252Y-119027818D02*
X136598254Y-119027819D01*
X136598255Y-119027819D01*
X136971513Y-119182427D01*
X136971514Y-119182428D01*
X137307439Y-119406886D01*
X137593114Y-119692561D01*
X137593116Y-119692564D01*
X137817573Y-120028487D01*
X137972181Y-120401745D01*
X138051000Y-120797994D01*
X138051000Y-121202006D01*
X137972181Y-121598255D01*
X137817573Y-121971513D01*
X137817572Y-121971514D01*
X137593114Y-122307439D01*
X137307439Y-122593114D01*
X137307436Y-122593116D01*
X136971513Y-122817573D01*
X136598255Y-122972181D01*
X136598254Y-122972181D01*
X136598252Y-122972182D01*
X136202007Y-123051000D01*
X135797993Y-123051000D01*
X135401748Y-122972182D01*
X135401746Y-122972181D01*
X135401745Y-122972181D01*
X135028487Y-122817573D01*
X134692564Y-122593116D01*
X134692561Y-122593114D01*
X134406886Y-122307439D01*
X134182428Y-121971514D01*
X134182427Y-121971513D01*
X134027819Y-121598255D01*
X133949000Y-121202006D01*
X133949000Y-120797994D01*
X134027819Y-120401745D01*
X134182427Y-120028487D01*
X134406884Y-119692564D01*
X134406886Y-119692561D01*
X134692561Y-119406886D01*
X135028486Y-119182428D01*
X135028487Y-119182427D01*
X135401745Y-119027819D01*
X135401746Y-119027819D01*
X135401748Y-119027818D01*
X135797993Y-118949000D01*
X136202007Y-118949000D01*
X136598252Y-119027818D01*
X136598252Y-119027818D01*
G37*
G36*
X188612522Y-113204225D02*
X188875077Y-113256450D01*
X189369722Y-113461339D01*
X189528889Y-113567691D01*
X189814893Y-113758793D01*
X190193472Y-114137372D01*
X190193474Y-114137375D01*
X190490926Y-114582543D01*
X190695815Y-115077188D01*
X190800266Y-115602299D01*
X190800266Y-116137699D01*
X190695815Y-116662810D01*
X190490926Y-117157455D01*
X190213730Y-117572308D01*
X190193472Y-117602626D01*
X189814893Y-117981205D01*
X189814890Y-117981207D01*
X189369722Y-118278659D01*
X188875077Y-118483548D01*
X188612521Y-118535774D01*
X188349967Y-118587999D01*
X187814565Y-118587999D01*
X187552011Y-118535774D01*
X187289455Y-118483548D01*
X186794810Y-118278659D01*
X186349642Y-117981207D01*
X186349639Y-117981205D01*
X185971060Y-117602626D01*
X185950802Y-117572308D01*
X185673606Y-117157455D01*
X185468717Y-116662810D01*
X185364266Y-116137699D01*
X185364266Y-115602299D01*
X185468717Y-115077188D01*
X185673606Y-114582543D01*
X185971058Y-114137375D01*
X185971060Y-114137372D01*
X186349639Y-113758793D01*
X186635643Y-113567691D01*
X186794810Y-113461339D01*
X187289455Y-113256450D01*
X187552010Y-113204225D01*
X187814565Y-113151999D01*
X188349967Y-113151999D01*
X188612522Y-113204225D01*
X188612522Y-113204225D01*
G37*
G36*
X156826324Y-115976182D02*
X156991545Y-116026301D01*
X157143813Y-116107691D01*
X157277278Y-116217222D01*
X157386809Y-116350687D01*
X157468199Y-116502955D01*
X157518318Y-116668176D01*
X157535241Y-116840000D01*
X157518318Y-117011824D01*
X157468199Y-117177045D01*
X157386809Y-117329313D01*
X157277278Y-117462778D01*
X157143813Y-117572309D01*
X156991545Y-117653699D01*
X156826324Y-117703818D01*
X156697560Y-117716500D01*
X155722440Y-117716500D01*
X155593676Y-117703818D01*
X155428455Y-117653699D01*
X155276187Y-117572309D01*
X155142722Y-117462778D01*
X155033191Y-117329313D01*
X154951801Y-117177045D01*
X154901682Y-117011824D01*
X154884759Y-116840000D01*
X154901682Y-116668176D01*
X154951801Y-116502955D01*
X155033191Y-116350687D01*
X155142722Y-116217222D01*
X155276187Y-116107691D01*
X155428455Y-116026301D01*
X155593676Y-115976182D01*
X155722440Y-115963500D01*
X156697560Y-115963500D01*
X156826324Y-115976182D01*
X156826324Y-115976182D01*
G37*
G36*
X156826324Y-113436182D02*
X156991545Y-113486301D01*
X157143813Y-113567691D01*
X157277278Y-113677222D01*
X157386809Y-113810687D01*
X157468199Y-113962955D01*
X157518318Y-114128176D01*
X157535241Y-114300000D01*
X157518318Y-114471824D01*
X157468199Y-114637045D01*
X157386809Y-114789313D01*
X157277278Y-114922778D01*
X157143813Y-115032309D01*
X156991545Y-115113699D01*
X156826324Y-115163818D01*
X156697560Y-115176500D01*
X155722440Y-115176500D01*
X155593676Y-115163818D01*
X155428455Y-115113699D01*
X155276187Y-115032309D01*
X155142722Y-114922778D01*
X155033191Y-114789313D01*
X154951801Y-114637045D01*
X154901682Y-114471824D01*
X154884759Y-114300000D01*
X154901682Y-114128176D01*
X154951801Y-113962955D01*
X155033191Y-113810687D01*
X155142722Y-113677222D01*
X155276187Y-113567691D01*
X155428455Y-113486301D01*
X155593676Y-113436182D01*
X155722440Y-113423500D01*
X156697560Y-113423500D01*
X156826324Y-113436182D01*
X156826324Y-113436182D01*
G37*
G36*
X149261305Y-108277002D02*
X149680140Y-108450489D01*
X150057086Y-108702357D01*
X150377643Y-109022914D01*
X150629511Y-109399860D01*
X150802998Y-109818695D01*
X150891440Y-110263326D01*
X150891440Y-110716674D01*
X150802998Y-111161305D01*
X150629511Y-111580140D01*
X150377643Y-111957086D01*
X150057086Y-112277643D01*
X149680140Y-112529511D01*
X149261305Y-112702998D01*
X148816674Y-112791440D01*
X148363326Y-112791440D01*
X147918695Y-112702998D01*
X147499860Y-112529511D01*
X147122914Y-112277643D01*
X146802357Y-111957086D01*
X146550489Y-111580140D01*
X146377002Y-111161305D01*
X146288560Y-110716674D01*
X146288560Y-110263326D01*
X146377002Y-109818695D01*
X146550489Y-109399860D01*
X146802357Y-109022914D01*
X147122914Y-108702357D01*
X147499860Y-108450489D01*
X147918695Y-108277002D01*
X148363326Y-108188560D01*
X148816674Y-108188560D01*
X149261305Y-108277002D01*
X149261305Y-108277002D01*
G37*
G36*
X156826324Y-110896182D02*
X156991545Y-110946301D01*
X157143813Y-111027691D01*
X157277278Y-111137222D01*
X157386809Y-111270687D01*
X157468199Y-111422955D01*
X157518318Y-111588176D01*
X157535241Y-111760000D01*
X157518318Y-111931824D01*
X157468199Y-112097045D01*
X157386809Y-112249313D01*
X157277278Y-112382778D01*
X157143813Y-112492309D01*
X156991545Y-112573699D01*
X156826324Y-112623818D01*
X156697560Y-112636500D01*
X155722440Y-112636500D01*
X155593676Y-112623818D01*
X155428455Y-112573699D01*
X155276187Y-112492309D01*
X155142722Y-112382778D01*
X155033191Y-112249313D01*
X154951801Y-112097045D01*
X154901682Y-111931824D01*
X154884759Y-111760000D01*
X154901682Y-111588176D01*
X154951801Y-111422955D01*
X155033191Y-111270687D01*
X155142722Y-111137222D01*
X155276187Y-111027691D01*
X155428455Y-110946301D01*
X155593676Y-110896182D01*
X155722440Y-110883500D01*
X156697560Y-110883500D01*
X156826324Y-110896182D01*
X156826324Y-110896182D01*
G37*
G36*
X179686324Y-108356182D02*
X179851545Y-108406301D01*
X180003813Y-108487691D01*
X180137278Y-108597222D01*
X180246809Y-108730687D01*
X180328199Y-108882955D01*
X180378318Y-109048176D01*
X180395241Y-109220000D01*
X180378318Y-109391824D01*
X180328199Y-109557045D01*
X180246809Y-109709313D01*
X180137278Y-109842778D01*
X180003813Y-109952309D01*
X179851545Y-110033699D01*
X179686324Y-110083818D01*
X179557560Y-110096500D01*
X178582440Y-110096500D01*
X178453676Y-110083818D01*
X178288455Y-110033699D01*
X178136187Y-109952309D01*
X178002722Y-109842778D01*
X177893191Y-109709313D01*
X177811801Y-109557045D01*
X177761682Y-109391824D01*
X177744759Y-109220000D01*
X177761682Y-109048176D01*
X177811801Y-108882955D01*
X177893191Y-108730687D01*
X178002722Y-108597222D01*
X178136187Y-108487691D01*
X178288455Y-108406301D01*
X178453676Y-108356182D01*
X178582440Y-108343500D01*
X179557560Y-108343500D01*
X179686324Y-108356182D01*
X179686324Y-108356182D01*
G37*
G36*
X156826324Y-108356182D02*
X156991545Y-108406301D01*
X157143813Y-108487691D01*
X157277278Y-108597222D01*
X157386809Y-108730687D01*
X157468199Y-108882955D01*
X157518318Y-109048176D01*
X157535241Y-109220000D01*
X157518318Y-109391824D01*
X157468199Y-109557045D01*
X157386809Y-109709313D01*
X157277278Y-109842778D01*
X157143813Y-109952309D01*
X156991545Y-110033699D01*
X156826324Y-110083818D01*
X156697560Y-110096500D01*
X155722440Y-110096500D01*
X155593676Y-110083818D01*
X155428455Y-110033699D01*
X155276187Y-109952309D01*
X155142722Y-109842778D01*
X155033191Y-109709313D01*
X154951801Y-109557045D01*
X154901682Y-109391824D01*
X154884759Y-109220000D01*
X154901682Y-109048176D01*
X154951801Y-108882955D01*
X155033191Y-108730687D01*
X155142722Y-108597222D01*
X155276187Y-108487691D01*
X155428455Y-108406301D01*
X155593676Y-108356182D01*
X155722440Y-108343500D01*
X156697560Y-108343500D01*
X156826324Y-108356182D01*
X156826324Y-108356182D01*
G37*
G36*
X185790494Y-107401703D02*
X185945366Y-107465853D01*
X186084747Y-107558985D01*
X186203281Y-107677519D01*
X186296413Y-107816900D01*
X186360563Y-107971772D01*
X186393266Y-108136184D01*
X186393266Y-108303816D01*
X186360563Y-108468228D01*
X186296413Y-108623100D01*
X186203281Y-108762481D01*
X186084747Y-108881015D01*
X185945366Y-108974147D01*
X185790494Y-109038297D01*
X185626082Y-109071000D01*
X185458450Y-109071000D01*
X185294038Y-109038297D01*
X185139166Y-108974147D01*
X184999785Y-108881015D01*
X184881251Y-108762481D01*
X184788119Y-108623100D01*
X184723969Y-108468228D01*
X184691266Y-108303816D01*
X184691266Y-108136184D01*
X184723969Y-107971772D01*
X184788119Y-107816900D01*
X184881251Y-107677519D01*
X184999785Y-107558985D01*
X185139166Y-107465853D01*
X185294038Y-107401703D01*
X185458450Y-107369000D01*
X185626082Y-107369000D01*
X185790494Y-107401703D01*
X185790494Y-107401703D01*
G37*
G36*
X190870494Y-107401703D02*
X191025366Y-107465853D01*
X191164747Y-107558985D01*
X191283281Y-107677519D01*
X191376413Y-107816900D01*
X191440563Y-107971772D01*
X191473266Y-108136184D01*
X191473266Y-108303816D01*
X191440563Y-108468228D01*
X191376413Y-108623100D01*
X191283281Y-108762481D01*
X191164747Y-108881015D01*
X191025366Y-108974147D01*
X190870494Y-109038297D01*
X190706082Y-109071000D01*
X190538450Y-109071000D01*
X190374038Y-109038297D01*
X190219166Y-108974147D01*
X190079785Y-108881015D01*
X189961251Y-108762481D01*
X189868119Y-108623100D01*
X189803969Y-108468228D01*
X189771266Y-108303816D01*
X189771266Y-108136184D01*
X189803969Y-107971772D01*
X189868119Y-107816900D01*
X189961251Y-107677519D01*
X190079785Y-107558985D01*
X190219166Y-107465853D01*
X190374038Y-107401703D01*
X190538450Y-107369000D01*
X190706082Y-107369000D01*
X190870494Y-107401703D01*
X190870494Y-107401703D01*
G37*
G36*
X188330494Y-106256703D02*
X188485366Y-106320853D01*
X188624747Y-106413985D01*
X188743281Y-106532519D01*
X188836413Y-106671900D01*
X188900563Y-106826772D01*
X188933266Y-106991184D01*
X188933266Y-107158816D01*
X188900563Y-107323228D01*
X188836413Y-107478100D01*
X188743281Y-107617481D01*
X188624747Y-107736015D01*
X188485366Y-107829147D01*
X188330494Y-107893297D01*
X188166082Y-107926000D01*
X187998450Y-107926000D01*
X187834038Y-107893297D01*
X187679166Y-107829147D01*
X187539785Y-107736015D01*
X187421251Y-107617481D01*
X187328119Y-107478100D01*
X187263969Y-107323228D01*
X187231266Y-107158816D01*
X187231266Y-106991184D01*
X187263969Y-106826772D01*
X187328119Y-106671900D01*
X187421251Y-106532519D01*
X187539785Y-106413985D01*
X187679166Y-106320853D01*
X187834038Y-106256703D01*
X187998450Y-106224000D01*
X188166082Y-106224000D01*
X188330494Y-106256703D01*
X188330494Y-106256703D01*
G37*
G36*
X179686324Y-105816182D02*
X179851545Y-105866301D01*
X180003813Y-105947691D01*
X180137278Y-106057222D01*
X180246809Y-106190687D01*
X180328199Y-106342955D01*
X180378318Y-106508176D01*
X180395241Y-106680000D01*
X180378318Y-106851824D01*
X180328199Y-107017045D01*
X180246809Y-107169313D01*
X180137278Y-107302778D01*
X180003813Y-107412309D01*
X179851545Y-107493699D01*
X179686324Y-107543818D01*
X179557560Y-107556500D01*
X178582440Y-107556500D01*
X178453676Y-107543818D01*
X178288455Y-107493699D01*
X178136187Y-107412309D01*
X178002722Y-107302778D01*
X177893191Y-107169313D01*
X177811801Y-107017045D01*
X177761682Y-106851824D01*
X177744759Y-106680000D01*
X177761682Y-106508176D01*
X177811801Y-106342955D01*
X177893191Y-106190687D01*
X178002722Y-106057222D01*
X178136187Y-105947691D01*
X178288455Y-105866301D01*
X178453676Y-105816182D01*
X178582440Y-105803500D01*
X179557560Y-105803500D01*
X179686324Y-105816182D01*
X179686324Y-105816182D01*
G37*
G36*
X156826324Y-105816182D02*
X156991545Y-105866301D01*
X157143813Y-105947691D01*
X157277278Y-106057222D01*
X157386809Y-106190687D01*
X157468199Y-106342955D01*
X157518318Y-106508176D01*
X157535241Y-106680000D01*
X157518318Y-106851824D01*
X157468199Y-107017045D01*
X157386809Y-107169313D01*
X157277278Y-107302778D01*
X157143813Y-107412309D01*
X156991545Y-107493699D01*
X156826324Y-107543818D01*
X156697560Y-107556500D01*
X155722440Y-107556500D01*
X155593676Y-107543818D01*
X155428455Y-107493699D01*
X155276187Y-107412309D01*
X155142722Y-107302778D01*
X155033191Y-107169313D01*
X154951801Y-107017045D01*
X154901682Y-106851824D01*
X154884759Y-106680000D01*
X154901682Y-106508176D01*
X154951801Y-106342955D01*
X155033191Y-106190687D01*
X155142722Y-106057222D01*
X155276187Y-105947691D01*
X155428455Y-105866301D01*
X155593676Y-105816182D01*
X155722440Y-105803500D01*
X156697560Y-105803500D01*
X156826324Y-105816182D01*
X156826324Y-105816182D01*
G37*
G36*
X185790494Y-105111703D02*
X185945366Y-105175853D01*
X186084747Y-105268985D01*
X186203281Y-105387519D01*
X186296413Y-105526900D01*
X186360563Y-105681772D01*
X186393266Y-105846184D01*
X186393266Y-106013816D01*
X186360563Y-106178228D01*
X186296413Y-106333100D01*
X186203281Y-106472481D01*
X186084747Y-106591015D01*
X185945366Y-106684147D01*
X185790494Y-106748297D01*
X185626082Y-106781000D01*
X185458450Y-106781000D01*
X185294038Y-106748297D01*
X185139166Y-106684147D01*
X184999785Y-106591015D01*
X184881251Y-106472481D01*
X184788119Y-106333100D01*
X184723969Y-106178228D01*
X184691266Y-106013816D01*
X184691266Y-105846184D01*
X184723969Y-105681772D01*
X184788119Y-105526900D01*
X184881251Y-105387519D01*
X184999785Y-105268985D01*
X185139166Y-105175853D01*
X185294038Y-105111703D01*
X185458450Y-105079000D01*
X185626082Y-105079000D01*
X185790494Y-105111703D01*
X185790494Y-105111703D01*
G37*
G36*
X190870494Y-105111703D02*
X191025366Y-105175853D01*
X191164747Y-105268985D01*
X191283281Y-105387519D01*
X191376413Y-105526900D01*
X191440563Y-105681772D01*
X191473266Y-105846184D01*
X191473266Y-106013816D01*
X191440563Y-106178228D01*
X191376413Y-106333100D01*
X191283281Y-106472481D01*
X191164747Y-106591015D01*
X191025366Y-106684147D01*
X190870494Y-106748297D01*
X190706082Y-106781000D01*
X190538450Y-106781000D01*
X190374038Y-106748297D01*
X190219166Y-106684147D01*
X190079785Y-106591015D01*
X189961251Y-106472481D01*
X189868119Y-106333100D01*
X189803969Y-106178228D01*
X189771266Y-106013816D01*
X189771266Y-105846184D01*
X189803969Y-105681772D01*
X189868119Y-105526900D01*
X189961251Y-105387519D01*
X190079785Y-105268985D01*
X190219166Y-105175853D01*
X190374038Y-105111703D01*
X190538450Y-105079000D01*
X190706082Y-105079000D01*
X190870494Y-105111703D01*
X190870494Y-105111703D01*
G37*
G36*
X188330494Y-103966703D02*
X188485366Y-104030853D01*
X188624747Y-104123985D01*
X188743281Y-104242519D01*
X188836413Y-104381900D01*
X188900563Y-104536772D01*
X188933266Y-104701184D01*
X188933266Y-104868816D01*
X188900563Y-105033228D01*
X188836413Y-105188100D01*
X188743281Y-105327481D01*
X188624747Y-105446015D01*
X188485366Y-105539147D01*
X188330494Y-105603297D01*
X188166082Y-105636000D01*
X187998450Y-105636000D01*
X187834038Y-105603297D01*
X187679166Y-105539147D01*
X187539785Y-105446015D01*
X187421251Y-105327481D01*
X187328119Y-105188100D01*
X187263969Y-105033228D01*
X187231266Y-104868816D01*
X187231266Y-104701184D01*
X187263969Y-104536772D01*
X187328119Y-104381900D01*
X187421251Y-104242519D01*
X187539785Y-104123985D01*
X187679166Y-104030853D01*
X187834038Y-103966703D01*
X187998450Y-103934000D01*
X188166082Y-103934000D01*
X188330494Y-103966703D01*
X188330494Y-103966703D01*
G37*
G36*
X179686324Y-103276182D02*
X179851545Y-103326301D01*
X180003813Y-103407691D01*
X180137278Y-103517222D01*
X180246809Y-103650687D01*
X180328199Y-103802955D01*
X180378318Y-103968176D01*
X180395241Y-104140000D01*
X180378318Y-104311824D01*
X180328199Y-104477045D01*
X180246809Y-104629313D01*
X180137278Y-104762778D01*
X180003813Y-104872309D01*
X179851545Y-104953699D01*
X179686324Y-105003818D01*
X179557560Y-105016500D01*
X178582440Y-105016500D01*
X178453676Y-105003818D01*
X178288455Y-104953699D01*
X178136187Y-104872309D01*
X178002722Y-104762778D01*
X177893191Y-104629313D01*
X177811801Y-104477045D01*
X177761682Y-104311824D01*
X177744759Y-104140000D01*
X177761682Y-103968176D01*
X177811801Y-103802955D01*
X177893191Y-103650687D01*
X178002722Y-103517222D01*
X178136187Y-103407691D01*
X178288455Y-103326301D01*
X178453676Y-103276182D01*
X178582440Y-103263500D01*
X179557560Y-103263500D01*
X179686324Y-103276182D01*
X179686324Y-103276182D01*
G37*
G36*
X156826324Y-103276182D02*
X156991545Y-103326301D01*
X157143813Y-103407691D01*
X157277278Y-103517222D01*
X157386809Y-103650687D01*
X157468199Y-103802955D01*
X157518318Y-103968176D01*
X157535241Y-104140000D01*
X157518318Y-104311824D01*
X157468199Y-104477045D01*
X157386809Y-104629313D01*
X157277278Y-104762778D01*
X157143813Y-104872309D01*
X156991545Y-104953699D01*
X156826324Y-105003818D01*
X156697560Y-105016500D01*
X155722440Y-105016500D01*
X155593676Y-105003818D01*
X155428455Y-104953699D01*
X155276187Y-104872309D01*
X155142722Y-104762778D01*
X155033191Y-104629313D01*
X154951801Y-104477045D01*
X154901682Y-104311824D01*
X154884759Y-104140000D01*
X154901682Y-103968176D01*
X154951801Y-103802955D01*
X155033191Y-103650687D01*
X155142722Y-103517222D01*
X155276187Y-103407691D01*
X155428455Y-103326301D01*
X155593676Y-103276182D01*
X155722440Y-103263500D01*
X156697560Y-103263500D01*
X156826324Y-103276182D01*
X156826324Y-103276182D01*
G37*
G36*
X149261305Y-100022002D02*
X149680140Y-100195489D01*
X150057086Y-100447357D01*
X150377643Y-100767914D01*
X150629511Y-101144860D01*
X150802998Y-101563695D01*
X150891440Y-102008326D01*
X150891440Y-102461674D01*
X150802998Y-102906305D01*
X150629511Y-103325140D01*
X150377643Y-103702086D01*
X150057086Y-104022643D01*
X149680140Y-104274511D01*
X149261305Y-104447998D01*
X148816674Y-104536440D01*
X148363326Y-104536440D01*
X147918695Y-104447998D01*
X147499860Y-104274511D01*
X147122914Y-104022643D01*
X146802357Y-103702086D01*
X146550489Y-103325140D01*
X146377002Y-102906305D01*
X146288560Y-102461674D01*
X146288560Y-102008326D01*
X146377002Y-101563695D01*
X146550489Y-101144860D01*
X146802357Y-100767914D01*
X147122914Y-100447357D01*
X147499860Y-100195489D01*
X147918695Y-100022002D01*
X148363326Y-99933560D01*
X148816674Y-99933560D01*
X149261305Y-100022002D01*
X149261305Y-100022002D01*
G37*
G36*
X185790494Y-102821703D02*
X185945366Y-102885853D01*
X186084747Y-102978985D01*
X186203281Y-103097519D01*
X186296413Y-103236900D01*
X186360563Y-103391772D01*
X186393266Y-103556184D01*
X186393266Y-103723816D01*
X186360563Y-103888228D01*
X186296413Y-104043100D01*
X186203281Y-104182481D01*
X186084747Y-104301015D01*
X185945366Y-104394147D01*
X185790494Y-104458297D01*
X185626082Y-104491000D01*
X185458450Y-104491000D01*
X185294038Y-104458297D01*
X185139166Y-104394147D01*
X184999785Y-104301015D01*
X184881251Y-104182481D01*
X184788119Y-104043100D01*
X184723969Y-103888228D01*
X184691266Y-103723816D01*
X184691266Y-103556184D01*
X184723969Y-103391772D01*
X184788119Y-103236900D01*
X184881251Y-103097519D01*
X184999785Y-102978985D01*
X185139166Y-102885853D01*
X185294038Y-102821703D01*
X185458450Y-102789000D01*
X185626082Y-102789000D01*
X185790494Y-102821703D01*
X185790494Y-102821703D01*
G37*
G36*
X190870494Y-102821703D02*
X191025366Y-102885853D01*
X191164747Y-102978985D01*
X191283281Y-103097519D01*
X191376413Y-103236900D01*
X191440563Y-103391772D01*
X191473266Y-103556184D01*
X191473266Y-103723816D01*
X191440563Y-103888228D01*
X191376413Y-104043100D01*
X191283281Y-104182481D01*
X191164747Y-104301015D01*
X191025366Y-104394147D01*
X190870494Y-104458297D01*
X190706082Y-104491000D01*
X190538450Y-104491000D01*
X190374038Y-104458297D01*
X190219166Y-104394147D01*
X190079785Y-104301015D01*
X189961251Y-104182481D01*
X189868119Y-104043100D01*
X189803969Y-103888228D01*
X189771266Y-103723816D01*
X189771266Y-103556184D01*
X189803969Y-103391772D01*
X189868119Y-103236900D01*
X189961251Y-103097519D01*
X190079785Y-102978985D01*
X190219166Y-102885853D01*
X190374038Y-102821703D01*
X190538450Y-102789000D01*
X190706082Y-102789000D01*
X190870494Y-102821703D01*
X190870494Y-102821703D01*
G37*
G36*
X188330494Y-101676703D02*
X188485366Y-101740853D01*
X188624747Y-101833985D01*
X188743281Y-101952519D01*
X188836413Y-102091900D01*
X188900563Y-102246772D01*
X188933266Y-102411184D01*
X188933266Y-102578816D01*
X188900563Y-102743228D01*
X188836413Y-102898100D01*
X188743281Y-103037481D01*
X188624747Y-103156015D01*
X188485366Y-103249147D01*
X188330494Y-103313297D01*
X188166082Y-103346000D01*
X187998450Y-103346000D01*
X187834038Y-103313297D01*
X187679166Y-103249147D01*
X187539785Y-103156015D01*
X187421251Y-103037481D01*
X187328119Y-102898100D01*
X187263969Y-102743228D01*
X187231266Y-102578816D01*
X187231266Y-102411184D01*
X187263969Y-102246772D01*
X187328119Y-102091900D01*
X187421251Y-101952519D01*
X187539785Y-101833985D01*
X187679166Y-101740853D01*
X187834038Y-101676703D01*
X187998450Y-101644000D01*
X188166082Y-101644000D01*
X188330494Y-101676703D01*
X188330494Y-101676703D01*
G37*
G36*
X156826324Y-100736182D02*
X156991545Y-100786301D01*
X157143813Y-100867691D01*
X157277278Y-100977222D01*
X157386809Y-101110687D01*
X157468199Y-101262955D01*
X157518318Y-101428176D01*
X157535241Y-101600000D01*
X157518318Y-101771824D01*
X157468199Y-101937045D01*
X157386809Y-102089313D01*
X157277278Y-102222778D01*
X157143813Y-102332309D01*
X156991545Y-102413699D01*
X156826324Y-102463818D01*
X156697560Y-102476500D01*
X155722440Y-102476500D01*
X155593676Y-102463818D01*
X155428455Y-102413699D01*
X155276187Y-102332309D01*
X155142722Y-102222778D01*
X155033191Y-102089313D01*
X154951801Y-101937045D01*
X154901682Y-101771824D01*
X154884759Y-101600000D01*
X154901682Y-101428176D01*
X154951801Y-101262955D01*
X155033191Y-101110687D01*
X155142722Y-100977222D01*
X155276187Y-100867691D01*
X155428455Y-100786301D01*
X155593676Y-100736182D01*
X155722440Y-100723500D01*
X156697560Y-100723500D01*
X156826324Y-100736182D01*
X156826324Y-100736182D01*
G37*
G36*
X179686324Y-100736182D02*
X179851545Y-100786301D01*
X180003813Y-100867691D01*
X180137278Y-100977222D01*
X180246809Y-101110687D01*
X180328199Y-101262955D01*
X180378318Y-101428176D01*
X180395241Y-101600000D01*
X180378318Y-101771824D01*
X180328199Y-101937045D01*
X180246809Y-102089313D01*
X180137278Y-102222778D01*
X180003813Y-102332309D01*
X179851545Y-102413699D01*
X179686324Y-102463818D01*
X179557560Y-102476500D01*
X178582440Y-102476500D01*
X178453676Y-102463818D01*
X178288455Y-102413699D01*
X178136187Y-102332309D01*
X178002722Y-102222778D01*
X177893191Y-102089313D01*
X177811801Y-101937045D01*
X177761682Y-101771824D01*
X177744759Y-101600000D01*
X177761682Y-101428176D01*
X177811801Y-101262955D01*
X177893191Y-101110687D01*
X178002722Y-100977222D01*
X178136187Y-100867691D01*
X178288455Y-100786301D01*
X178453676Y-100736182D01*
X178582440Y-100723500D01*
X179557560Y-100723500D01*
X179686324Y-100736182D01*
X179686324Y-100736182D01*
G37*
G36*
X190870494Y-100531703D02*
X191025366Y-100595853D01*
X191164747Y-100688985D01*
X191283281Y-100807519D01*
X191376413Y-100946900D01*
X191440563Y-101101772D01*
X191473266Y-101266184D01*
X191473266Y-101433816D01*
X191440563Y-101598228D01*
X191376413Y-101753100D01*
X191283281Y-101892481D01*
X191164747Y-102011015D01*
X191025366Y-102104147D01*
X190870494Y-102168297D01*
X190706082Y-102201000D01*
X190538450Y-102201000D01*
X190374038Y-102168297D01*
X190219166Y-102104147D01*
X190079785Y-102011015D01*
X189961251Y-101892481D01*
X189868119Y-101753100D01*
X189803969Y-101598228D01*
X189771266Y-101433816D01*
X189771266Y-101266184D01*
X189803969Y-101101772D01*
X189868119Y-100946900D01*
X189961251Y-100807519D01*
X190079785Y-100688985D01*
X190219166Y-100595853D01*
X190374038Y-100531703D01*
X190538450Y-100499000D01*
X190706082Y-100499000D01*
X190870494Y-100531703D01*
X190870494Y-100531703D01*
G37*
G36*
X185790494Y-100531703D02*
X185945366Y-100595853D01*
X186084747Y-100688985D01*
X186203281Y-100807519D01*
X186296413Y-100946900D01*
X186360563Y-101101772D01*
X186393266Y-101266184D01*
X186393266Y-101433816D01*
X186360563Y-101598228D01*
X186296413Y-101753100D01*
X186203281Y-101892481D01*
X186084747Y-102011015D01*
X185945366Y-102104147D01*
X185790494Y-102168297D01*
X185626082Y-102201000D01*
X185458450Y-102201000D01*
X185294038Y-102168297D01*
X185139166Y-102104147D01*
X184999785Y-102011015D01*
X184881251Y-101892481D01*
X184788119Y-101753100D01*
X184723969Y-101598228D01*
X184691266Y-101433816D01*
X184691266Y-101266184D01*
X184723969Y-101101772D01*
X184788119Y-100946900D01*
X184881251Y-100807519D01*
X184999785Y-100688985D01*
X185139166Y-100595853D01*
X185294038Y-100531703D01*
X185458450Y-100499000D01*
X185626082Y-100499000D01*
X185790494Y-100531703D01*
X185790494Y-100531703D01*
G37*
G36*
X188330494Y-99386703D02*
X188485366Y-99450853D01*
X188624747Y-99543985D01*
X188743281Y-99662519D01*
X188836413Y-99801900D01*
X188900563Y-99956772D01*
X188933266Y-100121184D01*
X188933266Y-100288816D01*
X188900563Y-100453228D01*
X188836413Y-100608100D01*
X188743281Y-100747481D01*
X188624747Y-100866015D01*
X188485366Y-100959147D01*
X188330494Y-101023297D01*
X188166082Y-101056000D01*
X187998450Y-101056000D01*
X187834038Y-101023297D01*
X187679166Y-100959147D01*
X187539785Y-100866015D01*
X187421251Y-100747481D01*
X187328119Y-100608100D01*
X187263969Y-100453228D01*
X187231266Y-100288816D01*
X187231266Y-100121184D01*
X187263969Y-99956772D01*
X187328119Y-99801900D01*
X187421251Y-99662519D01*
X187539785Y-99543985D01*
X187679166Y-99450853D01*
X187834038Y-99386703D01*
X187998450Y-99354000D01*
X188166082Y-99354000D01*
X188330494Y-99386703D01*
X188330494Y-99386703D01*
G37*
G36*
X156826324Y-98196182D02*
X156991545Y-98246301D01*
X157143813Y-98327691D01*
X157277278Y-98437222D01*
X157386809Y-98570687D01*
X157468199Y-98722955D01*
X157518318Y-98888176D01*
X157535241Y-99060000D01*
X157518318Y-99231824D01*
X157468199Y-99397045D01*
X157386809Y-99549313D01*
X157277278Y-99682778D01*
X157143813Y-99792309D01*
X156991545Y-99873699D01*
X156826324Y-99923818D01*
X156697560Y-99936500D01*
X155722440Y-99936500D01*
X155593676Y-99923818D01*
X155428455Y-99873699D01*
X155276187Y-99792309D01*
X155142722Y-99682778D01*
X155033191Y-99549313D01*
X154951801Y-99397045D01*
X154901682Y-99231824D01*
X154884759Y-99060000D01*
X154901682Y-98888176D01*
X154951801Y-98722955D01*
X155033191Y-98570687D01*
X155142722Y-98437222D01*
X155276187Y-98327691D01*
X155428455Y-98246301D01*
X155593676Y-98196182D01*
X155722440Y-98183500D01*
X156697560Y-98183500D01*
X156826324Y-98196182D01*
X156826324Y-98196182D01*
G37*
G36*
X186393266Y-99911000D02*
X184691266Y-99911000D01*
X184691266Y-98209000D01*
X186393266Y-98209000D01*
X186393266Y-99911000D01*
X186393266Y-99911000D01*
G37*
G36*
X190870494Y-98241703D02*
X191025366Y-98305853D01*
X191164747Y-98398985D01*
X191283281Y-98517519D01*
X191376413Y-98656900D01*
X191440563Y-98811772D01*
X191473266Y-98976184D01*
X191473266Y-99143816D01*
X191440563Y-99308228D01*
X191376413Y-99463100D01*
X191283281Y-99602481D01*
X191164747Y-99721015D01*
X191025366Y-99814147D01*
X190870494Y-99878297D01*
X190706082Y-99911000D01*
X190538450Y-99911000D01*
X190374038Y-99878297D01*
X190219166Y-99814147D01*
X190079785Y-99721015D01*
X189961251Y-99602481D01*
X189868119Y-99463100D01*
X189803969Y-99308228D01*
X189771266Y-99143816D01*
X189771266Y-98976184D01*
X189803969Y-98811772D01*
X189868119Y-98656900D01*
X189961251Y-98517519D01*
X190079785Y-98398985D01*
X190219166Y-98305853D01*
X190374038Y-98241703D01*
X190538450Y-98209000D01*
X190706082Y-98209000D01*
X190870494Y-98241703D01*
X190870494Y-98241703D01*
G37*
G36*
X150626552Y-98626331D02*
X150708625Y-98660327D01*
X150708626Y-98660328D01*
X150708629Y-98660329D01*
X150782496Y-98709686D01*
X150782500Y-98709689D01*
X150845311Y-98772500D01*
X150845313Y-98772503D01*
X150845314Y-98772504D01*
X150894671Y-98846371D01*
X150894672Y-98846374D01*
X150894673Y-98846375D01*
X150928669Y-98928448D01*
X150946000Y-99015579D01*
X150946000Y-99104421D01*
X150928669Y-99191552D01*
X150894673Y-99273625D01*
X150894671Y-99273629D01*
X150871552Y-99308228D01*
X150845311Y-99347500D01*
X150782500Y-99410311D01*
X150782497Y-99410313D01*
X150782496Y-99410314D01*
X150708629Y-99459671D01*
X150708626Y-99459672D01*
X150708625Y-99459673D01*
X150626552Y-99493669D01*
X150539421Y-99511000D01*
X150450579Y-99511000D01*
X150363448Y-99493669D01*
X150281375Y-99459673D01*
X150281374Y-99459672D01*
X150281371Y-99459671D01*
X150207504Y-99410314D01*
X150207503Y-99410313D01*
X150207500Y-99410311D01*
X150144689Y-99347500D01*
X150118448Y-99308228D01*
X150095329Y-99273629D01*
X150095327Y-99273625D01*
X150061331Y-99191552D01*
X150044000Y-99104421D01*
X150044000Y-99015579D01*
X150061331Y-98928448D01*
X150095327Y-98846375D01*
X150095328Y-98846374D01*
X150095329Y-98846371D01*
X150144686Y-98772504D01*
X150144687Y-98772503D01*
X150144689Y-98772500D01*
X150207500Y-98709689D01*
X150207504Y-98709686D01*
X150281371Y-98660329D01*
X150281374Y-98660328D01*
X150281375Y-98660327D01*
X150363448Y-98626331D01*
X150450579Y-98609000D01*
X150539421Y-98609000D01*
X150626552Y-98626331D01*
X150626552Y-98626331D01*
G37*
G36*
X188330494Y-97096703D02*
X188485366Y-97160853D01*
X188624747Y-97253985D01*
X188743281Y-97372519D01*
X188836413Y-97511900D01*
X188900563Y-97666772D01*
X188933266Y-97831184D01*
X188933266Y-97998816D01*
X188900563Y-98163228D01*
X188836413Y-98318100D01*
X188743281Y-98457481D01*
X188624747Y-98576015D01*
X188485366Y-98669147D01*
X188330494Y-98733297D01*
X188166082Y-98766000D01*
X187998450Y-98766000D01*
X187834038Y-98733297D01*
X187679166Y-98669147D01*
X187539785Y-98576015D01*
X187421251Y-98457481D01*
X187328119Y-98318100D01*
X187263969Y-98163228D01*
X187231266Y-97998816D01*
X187231266Y-97831184D01*
X187263969Y-97666772D01*
X187328119Y-97511900D01*
X187421251Y-97372519D01*
X187539785Y-97253985D01*
X187679166Y-97160853D01*
X187834038Y-97096703D01*
X187998450Y-97064000D01*
X188166082Y-97064000D01*
X188330494Y-97096703D01*
X188330494Y-97096703D01*
G37*
G36*
X156826324Y-95656182D02*
X156991545Y-95706301D01*
X157143813Y-95787691D01*
X157277278Y-95897222D01*
X157386809Y-96030687D01*
X157468199Y-96182955D01*
X157518318Y-96348176D01*
X157535241Y-96520000D01*
X157518318Y-96691824D01*
X157468199Y-96857045D01*
X157386809Y-97009313D01*
X157277278Y-97142778D01*
X157143813Y-97252309D01*
X156991545Y-97333699D01*
X156826324Y-97383818D01*
X156697560Y-97396500D01*
X155722440Y-97396500D01*
X155593676Y-97383818D01*
X155428455Y-97333699D01*
X155276187Y-97252309D01*
X155142722Y-97142778D01*
X155033191Y-97009313D01*
X154951801Y-96857045D01*
X154901682Y-96691824D01*
X154884759Y-96520000D01*
X154901682Y-96348176D01*
X154951801Y-96182955D01*
X155033191Y-96030687D01*
X155142722Y-95897222D01*
X155276187Y-95787691D01*
X155428455Y-95706301D01*
X155593676Y-95656182D01*
X155722440Y-95643500D01*
X156697560Y-95643500D01*
X156826324Y-95656182D01*
X156826324Y-95656182D01*
G37*
G36*
X179686324Y-95656182D02*
X179851545Y-95706301D01*
X180003813Y-95787691D01*
X180137278Y-95897222D01*
X180246809Y-96030687D01*
X180328199Y-96182955D01*
X180378318Y-96348176D01*
X180395241Y-96520000D01*
X180378318Y-96691824D01*
X180328199Y-96857045D01*
X180246809Y-97009313D01*
X180137278Y-97142778D01*
X180003813Y-97252309D01*
X179851545Y-97333699D01*
X179686324Y-97383818D01*
X179557560Y-97396500D01*
X178582440Y-97396500D01*
X178453676Y-97383818D01*
X178288455Y-97333699D01*
X178136187Y-97252309D01*
X178002722Y-97142778D01*
X177893191Y-97009313D01*
X177811801Y-96857045D01*
X177761682Y-96691824D01*
X177744759Y-96520000D01*
X177761682Y-96348176D01*
X177811801Y-96182955D01*
X177893191Y-96030687D01*
X178002722Y-95897222D01*
X178136187Y-95787691D01*
X178288455Y-95706301D01*
X178453676Y-95656182D01*
X178582440Y-95643500D01*
X179557560Y-95643500D01*
X179686324Y-95656182D01*
X179686324Y-95656182D01*
G37*
G36*
X179686324Y-93116182D02*
X179851545Y-93166301D01*
X180003813Y-93247691D01*
X180137278Y-93357222D01*
X180246809Y-93490687D01*
X180328199Y-93642955D01*
X180378318Y-93808176D01*
X180395241Y-93980000D01*
X180378318Y-94151824D01*
X180328199Y-94317045D01*
X180246809Y-94469313D01*
X180137278Y-94602778D01*
X180003813Y-94712309D01*
X179851545Y-94793699D01*
X179686324Y-94843818D01*
X179557560Y-94856500D01*
X178582440Y-94856500D01*
X178453676Y-94843818D01*
X178288455Y-94793699D01*
X178136187Y-94712309D01*
X178002722Y-94602778D01*
X177893191Y-94469313D01*
X177811801Y-94317045D01*
X177761682Y-94151824D01*
X177744759Y-93980000D01*
X177761682Y-93808176D01*
X177811801Y-93642955D01*
X177893191Y-93490687D01*
X178002722Y-93357222D01*
X178136187Y-93247691D01*
X178288455Y-93166301D01*
X178453676Y-93116182D01*
X178582440Y-93103500D01*
X179557560Y-93103500D01*
X179686324Y-93116182D01*
X179686324Y-93116182D01*
G37*
G36*
X156826324Y-93116182D02*
X156991545Y-93166301D01*
X157143813Y-93247691D01*
X157277278Y-93357222D01*
X157386809Y-93490687D01*
X157468199Y-93642955D01*
X157518318Y-93808176D01*
X157535241Y-93980000D01*
X157518318Y-94151824D01*
X157468199Y-94317045D01*
X157386809Y-94469313D01*
X157277278Y-94602778D01*
X157143813Y-94712309D01*
X156991545Y-94793699D01*
X156826324Y-94843818D01*
X156697560Y-94856500D01*
X155722440Y-94856500D01*
X155593676Y-94843818D01*
X155428455Y-94793699D01*
X155276187Y-94712309D01*
X155142722Y-94602778D01*
X155033191Y-94469313D01*
X154951801Y-94317045D01*
X154901682Y-94151824D01*
X154884759Y-93980000D01*
X154901682Y-93808176D01*
X154951801Y-93642955D01*
X155033191Y-93490687D01*
X155142722Y-93357222D01*
X155276187Y-93247691D01*
X155428455Y-93166301D01*
X155593676Y-93116182D01*
X155722440Y-93103500D01*
X156697560Y-93103500D01*
X156826324Y-93116182D01*
X156826324Y-93116182D01*
G37*
G36*
X188612521Y-88215425D02*
X188875077Y-88267651D01*
X189369722Y-88472540D01*
X189419798Y-88506000D01*
X189814893Y-88769994D01*
X190193472Y-89148573D01*
X190193474Y-89148576D01*
X190490926Y-89593744D01*
X190590091Y-89833148D01*
X190695815Y-90088390D01*
X190790321Y-90563500D01*
X190800266Y-90613500D01*
X190800266Y-91148900D01*
X190695815Y-91674011D01*
X190490926Y-92168656D01*
X190354289Y-92373147D01*
X190193472Y-92613827D01*
X189814893Y-92992406D01*
X189814890Y-92992408D01*
X189369722Y-93289860D01*
X189369721Y-93289861D01*
X189369720Y-93289861D01*
X189224843Y-93349871D01*
X188875077Y-93494749D01*
X188731873Y-93523234D01*
X188349967Y-93599200D01*
X187814565Y-93599200D01*
X187432659Y-93523234D01*
X187289455Y-93494749D01*
X186939689Y-93349871D01*
X186794812Y-93289861D01*
X186794811Y-93289861D01*
X186794810Y-93289860D01*
X186349642Y-92992408D01*
X186349639Y-92992406D01*
X185971060Y-92613827D01*
X185810243Y-92373147D01*
X185673606Y-92168656D01*
X185468717Y-91674011D01*
X185364266Y-91148900D01*
X185364266Y-90613500D01*
X185374212Y-90563500D01*
X185468717Y-90088390D01*
X185574442Y-89833148D01*
X185673606Y-89593744D01*
X185971058Y-89148576D01*
X185971060Y-89148573D01*
X186349639Y-88769994D01*
X186744734Y-88506000D01*
X186794810Y-88472540D01*
X187289455Y-88267651D01*
X187552011Y-88215425D01*
X187814565Y-88163200D01*
X188349967Y-88163200D01*
X188612521Y-88215425D01*
X188612521Y-88215425D01*
G37*
G36*
X135236724Y-91846675D02*
X135401853Y-91896766D01*
X135483196Y-91940245D01*
X135554034Y-91978109D01*
X135687422Y-92087578D01*
X135753960Y-92168654D01*
X135796890Y-92220965D01*
X135878234Y-92373147D01*
X135928325Y-92538276D01*
X135945238Y-92710000D01*
X135928325Y-92881724D01*
X135878234Y-93046853D01*
X135847955Y-93103500D01*
X135796891Y-93199034D01*
X135687422Y-93332422D01*
X135554034Y-93441891D01*
X135483196Y-93479755D01*
X135401853Y-93523234D01*
X135236724Y-93573325D01*
X135108032Y-93586000D01*
X134131968Y-93586000D01*
X134003276Y-93573325D01*
X133838147Y-93523234D01*
X133756804Y-93479755D01*
X133685966Y-93441891D01*
X133552578Y-93332422D01*
X133443109Y-93199034D01*
X133392045Y-93103500D01*
X133361766Y-93046853D01*
X133311675Y-92881724D01*
X133294762Y-92710000D01*
X133311675Y-92538276D01*
X133361766Y-92373147D01*
X133443110Y-92220965D01*
X133486041Y-92168654D01*
X133552578Y-92087578D01*
X133685966Y-91978109D01*
X133756804Y-91940245D01*
X133838147Y-91896766D01*
X134003276Y-91846675D01*
X134131968Y-91834000D01*
X135108032Y-91834000D01*
X135236724Y-91846675D01*
X135236724Y-91846675D01*
G37*
G36*
X150476724Y-91846675D02*
X150641853Y-91896766D01*
X150723196Y-91940245D01*
X150794034Y-91978109D01*
X150927422Y-92087578D01*
X150993960Y-92168654D01*
X151036890Y-92220965D01*
X151118234Y-92373147D01*
X151168325Y-92538276D01*
X151185238Y-92710000D01*
X151168325Y-92881724D01*
X151118234Y-93046853D01*
X151087955Y-93103500D01*
X151036891Y-93199034D01*
X150927422Y-93332422D01*
X150794034Y-93441891D01*
X150723196Y-93479755D01*
X150641853Y-93523234D01*
X150476724Y-93573325D01*
X150348032Y-93586000D01*
X149371968Y-93586000D01*
X149243276Y-93573325D01*
X149078147Y-93523234D01*
X148996804Y-93479755D01*
X148925966Y-93441891D01*
X148792578Y-93332422D01*
X148683109Y-93199034D01*
X148632045Y-93103500D01*
X148601766Y-93046853D01*
X148551675Y-92881724D01*
X148534762Y-92710000D01*
X148551675Y-92538276D01*
X148601766Y-92373147D01*
X148683110Y-92220965D01*
X148726041Y-92168654D01*
X148792578Y-92087578D01*
X148925966Y-91978109D01*
X148996804Y-91940245D01*
X149078147Y-91896766D01*
X149243276Y-91846675D01*
X149371968Y-91834000D01*
X150348032Y-91834000D01*
X150476724Y-91846675D01*
X150476724Y-91846675D01*
G37*
G36*
X157531000Y-92316500D02*
X154889000Y-92316500D01*
X154889000Y-90563500D01*
X157531000Y-90563500D01*
X157531000Y-92316500D01*
X157531000Y-92316500D01*
G37*
G36*
X135236724Y-89306675D02*
X135401853Y-89356766D01*
X135462743Y-89389313D01*
X135554034Y-89438109D01*
X135687422Y-89547578D01*
X135796891Y-89680966D01*
X135814387Y-89713699D01*
X135878234Y-89833147D01*
X135928325Y-89998276D01*
X135945238Y-90170000D01*
X135928325Y-90341724D01*
X135878234Y-90506853D01*
X135847955Y-90563500D01*
X135796891Y-90659034D01*
X135687422Y-90792422D01*
X135554034Y-90901891D01*
X135483196Y-90939755D01*
X135401853Y-90983234D01*
X135236724Y-91033325D01*
X135108032Y-91046000D01*
X134131968Y-91046000D01*
X134003276Y-91033325D01*
X133838147Y-90983234D01*
X133756804Y-90939755D01*
X133685966Y-90901891D01*
X133552578Y-90792422D01*
X133443109Y-90659034D01*
X133392045Y-90563500D01*
X133361766Y-90506853D01*
X133311675Y-90341724D01*
X133294762Y-90170000D01*
X133311675Y-89998276D01*
X133361766Y-89833147D01*
X133425613Y-89713699D01*
X133443109Y-89680966D01*
X133552578Y-89547578D01*
X133685966Y-89438109D01*
X133777257Y-89389313D01*
X133838147Y-89356766D01*
X134003276Y-89306675D01*
X134131968Y-89294000D01*
X135108032Y-89294000D01*
X135236724Y-89306675D01*
X135236724Y-89306675D01*
G37*
G36*
X150476724Y-89306675D02*
X150641853Y-89356766D01*
X150702743Y-89389313D01*
X150794034Y-89438109D01*
X150927422Y-89547578D01*
X151036891Y-89680966D01*
X151054387Y-89713699D01*
X151118234Y-89833147D01*
X151168325Y-89998276D01*
X151185238Y-90170000D01*
X151168325Y-90341724D01*
X151118234Y-90506853D01*
X151087955Y-90563500D01*
X151036891Y-90659034D01*
X150927422Y-90792422D01*
X150794034Y-90901891D01*
X150723196Y-90939755D01*
X150641853Y-90983234D01*
X150476724Y-91033325D01*
X150348032Y-91046000D01*
X149371968Y-91046000D01*
X149243276Y-91033325D01*
X149078147Y-90983234D01*
X148996804Y-90939755D01*
X148925966Y-90901891D01*
X148792578Y-90792422D01*
X148683109Y-90659034D01*
X148632045Y-90563500D01*
X148601766Y-90506853D01*
X148551675Y-90341724D01*
X148534762Y-90170000D01*
X148551675Y-89998276D01*
X148601766Y-89833147D01*
X148665613Y-89713699D01*
X148683109Y-89680966D01*
X148792578Y-89547578D01*
X148925966Y-89438109D01*
X149017257Y-89389313D01*
X149078147Y-89356766D01*
X149243276Y-89306675D01*
X149371968Y-89294000D01*
X150348032Y-89294000D01*
X150476724Y-89306675D01*
X150476724Y-89306675D01*
G37*
G36*
X156394524Y-88036182D02*
X156559745Y-88086301D01*
X156712013Y-88167691D01*
X156845478Y-88277222D01*
X156955009Y-88410687D01*
X157036399Y-88562955D01*
X157086518Y-88728176D01*
X157103441Y-88900000D01*
X157086518Y-89071824D01*
X157036399Y-89237045D01*
X156955009Y-89389313D01*
X156845478Y-89522778D01*
X156712013Y-89632309D01*
X156559745Y-89713699D01*
X156394524Y-89763818D01*
X156265760Y-89776500D01*
X155735140Y-89776500D01*
X155606376Y-89763818D01*
X155441155Y-89713699D01*
X155288887Y-89632309D01*
X155155422Y-89522778D01*
X155045891Y-89389313D01*
X154964501Y-89237045D01*
X154914382Y-89071824D01*
X154897459Y-88900000D01*
X154914382Y-88728176D01*
X154964501Y-88562955D01*
X155045891Y-88410687D01*
X155155422Y-88277222D01*
X155288887Y-88167691D01*
X155441155Y-88086301D01*
X155606376Y-88036182D01*
X155735140Y-88023500D01*
X156265760Y-88023500D01*
X156394524Y-88036182D01*
X156394524Y-88036182D01*
G37*
G36*
X159353624Y-88036182D02*
X159518845Y-88086301D01*
X159671113Y-88167691D01*
X159804578Y-88277222D01*
X159914109Y-88410687D01*
X159995499Y-88562955D01*
X160045618Y-88728176D01*
X160062541Y-88900000D01*
X160045618Y-89071824D01*
X159995499Y-89237045D01*
X159914109Y-89389313D01*
X159804578Y-89522778D01*
X159671113Y-89632309D01*
X159518845Y-89713699D01*
X159353624Y-89763818D01*
X159224860Y-89776500D01*
X158694240Y-89776500D01*
X158565476Y-89763818D01*
X158400255Y-89713699D01*
X158247987Y-89632309D01*
X158114522Y-89522778D01*
X158004991Y-89389313D01*
X157923601Y-89237045D01*
X157873482Y-89071824D01*
X157856559Y-88900000D01*
X157873482Y-88728176D01*
X157923601Y-88562955D01*
X158004991Y-88410687D01*
X158114522Y-88277222D01*
X158247987Y-88167691D01*
X158400255Y-88086301D01*
X158565476Y-88036182D01*
X158694240Y-88023500D01*
X159224860Y-88023500D01*
X159353624Y-88036182D01*
X159353624Y-88036182D01*
G37*
G36*
X150476724Y-86766675D02*
X150641853Y-86816766D01*
X150723196Y-86860245D01*
X150794034Y-86898109D01*
X150927422Y-87007578D01*
X151036891Y-87140966D01*
X151066484Y-87196331D01*
X151118234Y-87293147D01*
X151168325Y-87458276D01*
X151185238Y-87630000D01*
X151168325Y-87801724D01*
X151118234Y-87966853D01*
X151081176Y-88036182D01*
X151036891Y-88119034D01*
X150927422Y-88252422D01*
X150794034Y-88361891D01*
X150723196Y-88399755D01*
X150641853Y-88443234D01*
X150476724Y-88493325D01*
X150348032Y-88506000D01*
X149371968Y-88506000D01*
X149243276Y-88493325D01*
X149078147Y-88443234D01*
X148996804Y-88399755D01*
X148925966Y-88361891D01*
X148792578Y-88252422D01*
X148683109Y-88119034D01*
X148638824Y-88036182D01*
X148601766Y-87966853D01*
X148551675Y-87801724D01*
X148534762Y-87630000D01*
X148551675Y-87458276D01*
X148601766Y-87293147D01*
X148653516Y-87196331D01*
X148683109Y-87140966D01*
X148792578Y-87007578D01*
X148925966Y-86898109D01*
X148996804Y-86860245D01*
X149078147Y-86816766D01*
X149243276Y-86766675D01*
X149371968Y-86754000D01*
X150348032Y-86754000D01*
X150476724Y-86766675D01*
X150476724Y-86766675D01*
G37*
G36*
X135236724Y-86766675D02*
X135401853Y-86816766D01*
X135483196Y-86860245D01*
X135554034Y-86898109D01*
X135687422Y-87007578D01*
X135796891Y-87140966D01*
X135826484Y-87196331D01*
X135878234Y-87293147D01*
X135928325Y-87458276D01*
X135945238Y-87630000D01*
X135928325Y-87801724D01*
X135878234Y-87966853D01*
X135841176Y-88036182D01*
X135796891Y-88119034D01*
X135687422Y-88252422D01*
X135554034Y-88361891D01*
X135483196Y-88399755D01*
X135401853Y-88443234D01*
X135236724Y-88493325D01*
X135108032Y-88506000D01*
X134131968Y-88506000D01*
X134003276Y-88493325D01*
X133838147Y-88443234D01*
X133756804Y-88399755D01*
X133685966Y-88361891D01*
X133552578Y-88252422D01*
X133443109Y-88119034D01*
X133398824Y-88036182D01*
X133361766Y-87966853D01*
X133311675Y-87801724D01*
X133294762Y-87630000D01*
X133311675Y-87458276D01*
X133361766Y-87293147D01*
X133413516Y-87196331D01*
X133443109Y-87140966D01*
X133552578Y-87007578D01*
X133685966Y-86898109D01*
X133756804Y-86860245D01*
X133838147Y-86816766D01*
X134003276Y-86766675D01*
X134131968Y-86754000D01*
X135108032Y-86754000D01*
X135236724Y-86766675D01*
X135236724Y-86766675D01*
G37*
G36*
X146816552Y-87196331D02*
X146898625Y-87230327D01*
X146898626Y-87230328D01*
X146898629Y-87230329D01*
X146972496Y-87279686D01*
X146972500Y-87279689D01*
X147035311Y-87342500D01*
X147035313Y-87342503D01*
X147035314Y-87342504D01*
X147084671Y-87416371D01*
X147084672Y-87416374D01*
X147084673Y-87416375D01*
X147118669Y-87498448D01*
X147136000Y-87585579D01*
X147136000Y-87674421D01*
X147118669Y-87761552D01*
X147095464Y-87817573D01*
X147084671Y-87843629D01*
X147035314Y-87917496D01*
X147035311Y-87917500D01*
X146972500Y-87980311D01*
X146972497Y-87980313D01*
X146972496Y-87980314D01*
X146898629Y-88029671D01*
X146898626Y-88029672D01*
X146898625Y-88029673D01*
X146816552Y-88063669D01*
X146729421Y-88081000D01*
X146640579Y-88081000D01*
X146553448Y-88063669D01*
X146471375Y-88029673D01*
X146471374Y-88029672D01*
X146471371Y-88029671D01*
X146397504Y-87980314D01*
X146397503Y-87980313D01*
X146397500Y-87980311D01*
X146334689Y-87917500D01*
X146334686Y-87917496D01*
X146285329Y-87843629D01*
X146274536Y-87817573D01*
X146251331Y-87761552D01*
X146234000Y-87674421D01*
X146234000Y-87585579D01*
X146251331Y-87498448D01*
X146285327Y-87416375D01*
X146285328Y-87416374D01*
X146285329Y-87416371D01*
X146334686Y-87342504D01*
X146334687Y-87342503D01*
X146334689Y-87342500D01*
X146397500Y-87279689D01*
X146397504Y-87279686D01*
X146471371Y-87230329D01*
X146471374Y-87230328D01*
X146471375Y-87230327D01*
X146553448Y-87196331D01*
X146640579Y-87179000D01*
X146729421Y-87179000D01*
X146816552Y-87196331D01*
X146816552Y-87196331D01*
G37*
G36*
X182598252Y-84027818D02*
X182598254Y-84027819D01*
X182598255Y-84027819D01*
X182971513Y-84182427D01*
X183037736Y-84226676D01*
X183307439Y-84406886D01*
X183593114Y-84692561D01*
X183593116Y-84692564D01*
X183817573Y-85028487D01*
X183914183Y-85261726D01*
X183972182Y-85401748D01*
X184033979Y-85712422D01*
X184051000Y-85797994D01*
X184051000Y-86202006D01*
X183972181Y-86598255D01*
X183817573Y-86971513D01*
X183704348Y-87140966D01*
X183593114Y-87307439D01*
X183307439Y-87593114D01*
X183307436Y-87593116D01*
X182971513Y-87817573D01*
X182598255Y-87972181D01*
X182598254Y-87972181D01*
X182598252Y-87972182D01*
X182202007Y-88051000D01*
X181797993Y-88051000D01*
X181401748Y-87972182D01*
X181401746Y-87972181D01*
X181401745Y-87972181D01*
X181028487Y-87817573D01*
X180692564Y-87593116D01*
X180692561Y-87593114D01*
X180406886Y-87307439D01*
X180295652Y-87140966D01*
X180182427Y-86971513D01*
X180027819Y-86598255D01*
X179949000Y-86202006D01*
X179949000Y-85797994D01*
X179966021Y-85712422D01*
X180027818Y-85401748D01*
X180085817Y-85261726D01*
X180182427Y-85028487D01*
X180406884Y-84692564D01*
X180406886Y-84692561D01*
X180692561Y-84406886D01*
X180962264Y-84226676D01*
X181028487Y-84182427D01*
X181401745Y-84027819D01*
X181401746Y-84027819D01*
X181401748Y-84027818D01*
X181797993Y-83949000D01*
X182202007Y-83949000D01*
X182598252Y-84027818D01*
X182598252Y-84027818D01*
G37*
G36*
X135236724Y-84226675D02*
X135401853Y-84276766D01*
X135483196Y-84320245D01*
X135554034Y-84358109D01*
X135554036Y-84358110D01*
X135554035Y-84358110D01*
X135687422Y-84467578D01*
X135796890Y-84600965D01*
X135878234Y-84753147D01*
X135928325Y-84918276D01*
X135945238Y-85090000D01*
X135928325Y-85261724D01*
X135878234Y-85426853D01*
X135834755Y-85508196D01*
X135796891Y-85579034D01*
X135687422Y-85712422D01*
X135554034Y-85821891D01*
X135483196Y-85859755D01*
X135401853Y-85903234D01*
X135236724Y-85953325D01*
X135108032Y-85966000D01*
X134131968Y-85966000D01*
X134003276Y-85953325D01*
X133838147Y-85903234D01*
X133756804Y-85859755D01*
X133685966Y-85821891D01*
X133552578Y-85712422D01*
X133443109Y-85579034D01*
X133405245Y-85508196D01*
X133361766Y-85426853D01*
X133311675Y-85261724D01*
X133294762Y-85090000D01*
X133311675Y-84918276D01*
X133361766Y-84753147D01*
X133443110Y-84600965D01*
X133552578Y-84467578D01*
X133685965Y-84358110D01*
X133685964Y-84358110D01*
X133685966Y-84358109D01*
X133756804Y-84320245D01*
X133838147Y-84276766D01*
X134003276Y-84226675D01*
X134131968Y-84214000D01*
X135108032Y-84214000D01*
X135236724Y-84226675D01*
X135236724Y-84226675D01*
G37*
G36*
X150476724Y-84226675D02*
X150641853Y-84276766D01*
X150723196Y-84320245D01*
X150794034Y-84358109D01*
X150794036Y-84358110D01*
X150794035Y-84358110D01*
X150927422Y-84467578D01*
X151036890Y-84600965D01*
X151118234Y-84753147D01*
X151168325Y-84918276D01*
X151185238Y-85090000D01*
X151168325Y-85261724D01*
X151118234Y-85426853D01*
X151074755Y-85508196D01*
X151036891Y-85579034D01*
X150927422Y-85712422D01*
X150794034Y-85821891D01*
X150723196Y-85859755D01*
X150641853Y-85903234D01*
X150476724Y-85953325D01*
X150348032Y-85966000D01*
X149371968Y-85966000D01*
X149243276Y-85953325D01*
X149078147Y-85903234D01*
X148996804Y-85859755D01*
X148925966Y-85821891D01*
X148792578Y-85712422D01*
X148683109Y-85579034D01*
X148645245Y-85508196D01*
X148601766Y-85426853D01*
X148551675Y-85261724D01*
X148534762Y-85090000D01*
X148551675Y-84918276D01*
X148601766Y-84753147D01*
X148683110Y-84600965D01*
X148792578Y-84467578D01*
X148925965Y-84358110D01*
X148925964Y-84358110D01*
X148925966Y-84358109D01*
X148996804Y-84320245D01*
X149078147Y-84276766D01*
X149243276Y-84226675D01*
X149371968Y-84214000D01*
X150348032Y-84214000D01*
X150476724Y-84226675D01*
X150476724Y-84226675D01*
G37*
G36*
X150476724Y-81686675D02*
X150641853Y-81736766D01*
X150702743Y-81769313D01*
X150794034Y-81818109D01*
X150927422Y-81927578D01*
X151036891Y-82060966D01*
X151054387Y-82093699D01*
X151118234Y-82213147D01*
X151168325Y-82378276D01*
X151185238Y-82550000D01*
X151168325Y-82721724D01*
X151118234Y-82886853D01*
X151098620Y-82923548D01*
X151036891Y-83039034D01*
X150927422Y-83172422D01*
X150794034Y-83281891D01*
X150723196Y-83319755D01*
X150641853Y-83363234D01*
X150476724Y-83413325D01*
X150348032Y-83426000D01*
X149371968Y-83426000D01*
X149243276Y-83413325D01*
X149078147Y-83363234D01*
X148996804Y-83319755D01*
X148925966Y-83281891D01*
X148792578Y-83172422D01*
X148683109Y-83039034D01*
X148621380Y-82923548D01*
X148601766Y-82886853D01*
X148551675Y-82721724D01*
X148534762Y-82550000D01*
X148551675Y-82378276D01*
X148601766Y-82213147D01*
X148665613Y-82093699D01*
X148683109Y-82060966D01*
X148792578Y-81927578D01*
X148925966Y-81818109D01*
X149017257Y-81769313D01*
X149078147Y-81736766D01*
X149243276Y-81686675D01*
X149371968Y-81674000D01*
X150348032Y-81674000D01*
X150476724Y-81686675D01*
X150476724Y-81686675D01*
G37*
G36*
X135236724Y-81686675D02*
X135401853Y-81736766D01*
X135462743Y-81769313D01*
X135554034Y-81818109D01*
X135687422Y-81927578D01*
X135796891Y-82060966D01*
X135814387Y-82093699D01*
X135878234Y-82213147D01*
X135928325Y-82378276D01*
X135945238Y-82550000D01*
X135928325Y-82721724D01*
X135878234Y-82886853D01*
X135858620Y-82923548D01*
X135796891Y-83039034D01*
X135687422Y-83172422D01*
X135554034Y-83281891D01*
X135483196Y-83319755D01*
X135401853Y-83363234D01*
X135236724Y-83413325D01*
X135108032Y-83426000D01*
X134131968Y-83426000D01*
X134003276Y-83413325D01*
X133838147Y-83363234D01*
X133756804Y-83319755D01*
X133685966Y-83281891D01*
X133552578Y-83172422D01*
X133443109Y-83039034D01*
X133381380Y-82923548D01*
X133361766Y-82886853D01*
X133311675Y-82721724D01*
X133294762Y-82550000D01*
X133311675Y-82378276D01*
X133361766Y-82213147D01*
X133425613Y-82093699D01*
X133443109Y-82060966D01*
X133552578Y-81927578D01*
X133685966Y-81818109D01*
X133777257Y-81769313D01*
X133838147Y-81736766D01*
X134003276Y-81686675D01*
X134131968Y-81674000D01*
X135108032Y-81674000D01*
X135236724Y-81686675D01*
X135236724Y-81686675D01*
G37*
G36*
X188599951Y-77641724D02*
X188875077Y-77696450D01*
X189369722Y-77901339D01*
X189456070Y-77959035D01*
X189814893Y-78198793D01*
X190193472Y-78577372D01*
X190193474Y-78577375D01*
X190490926Y-79022543D01*
X190695815Y-79517188D01*
X190713047Y-79603818D01*
X190793842Y-80010000D01*
X190800266Y-80042299D01*
X190800266Y-80577699D01*
X190695815Y-81102810D01*
X190567930Y-81411552D01*
X190503336Y-81567496D01*
X190490926Y-81597455D01*
X190270345Y-81927578D01*
X190193472Y-82042626D01*
X189814893Y-82421205D01*
X189814890Y-82421207D01*
X189369722Y-82718659D01*
X189369721Y-82718660D01*
X189369720Y-82718660D01*
X189362318Y-82721726D01*
X188875077Y-82923548D01*
X188612521Y-82975774D01*
X188349967Y-83027999D01*
X187814565Y-83027999D01*
X187552011Y-82975774D01*
X187289455Y-82923548D01*
X186802214Y-82721726D01*
X186794812Y-82718660D01*
X186794811Y-82718660D01*
X186794810Y-82718659D01*
X186349642Y-82421207D01*
X186349639Y-82421205D01*
X185971060Y-82042626D01*
X185894187Y-81927578D01*
X185673606Y-81597455D01*
X185661197Y-81567496D01*
X185596602Y-81411552D01*
X185468717Y-81102810D01*
X185364266Y-80577699D01*
X185364266Y-80042299D01*
X185370691Y-80010000D01*
X185451485Y-79603818D01*
X185468717Y-79517188D01*
X185673606Y-79022543D01*
X185971058Y-78577375D01*
X185971060Y-78577372D01*
X186349639Y-78198793D01*
X186708462Y-77959035D01*
X186794810Y-77901339D01*
X187289455Y-77696450D01*
X187564581Y-77641724D01*
X187814565Y-77591999D01*
X188349967Y-77591999D01*
X188599951Y-77641724D01*
X188599951Y-77641724D01*
G37*
G36*
X156826324Y-80416182D02*
X156991545Y-80466301D01*
X157143813Y-80547691D01*
X157277278Y-80657222D01*
X157386809Y-80790687D01*
X157468199Y-80942955D01*
X157518318Y-81108176D01*
X157535241Y-81280000D01*
X157518318Y-81451824D01*
X157468199Y-81617045D01*
X157386809Y-81769313D01*
X157277278Y-81902778D01*
X157143813Y-82012309D01*
X156991545Y-82093699D01*
X156826324Y-82143818D01*
X156697560Y-82156500D01*
X155722440Y-82156500D01*
X155593676Y-82143818D01*
X155428455Y-82093699D01*
X155276187Y-82012309D01*
X155142722Y-81902778D01*
X155033191Y-81769313D01*
X154951801Y-81617045D01*
X154901682Y-81451824D01*
X154884759Y-81280000D01*
X154901682Y-81108176D01*
X154951801Y-80942955D01*
X155033191Y-80790687D01*
X155142722Y-80657222D01*
X155276187Y-80547691D01*
X155428455Y-80466301D01*
X155593676Y-80416182D01*
X155722440Y-80403500D01*
X156697560Y-80403500D01*
X156826324Y-80416182D01*
X156826324Y-80416182D01*
G37*
G36*
X146816552Y-80846331D02*
X146898625Y-80880327D01*
X146898626Y-80880328D01*
X146898629Y-80880329D01*
X146972496Y-80929686D01*
X146972500Y-80929689D01*
X147035311Y-80992500D01*
X147035313Y-80992503D01*
X147035314Y-80992504D01*
X147084671Y-81066371D01*
X147084672Y-81066374D01*
X147084673Y-81066375D01*
X147118669Y-81148448D01*
X147136000Y-81235579D01*
X147136000Y-81324421D01*
X147118669Y-81411552D01*
X147084673Y-81493625D01*
X147084671Y-81493629D01*
X147035314Y-81567496D01*
X147035311Y-81567500D01*
X146972500Y-81630311D01*
X146972497Y-81630313D01*
X146972496Y-81630314D01*
X146898629Y-81679671D01*
X146898626Y-81679672D01*
X146898625Y-81679673D01*
X146816552Y-81713669D01*
X146729421Y-81731000D01*
X146640579Y-81731000D01*
X146553448Y-81713669D01*
X146471375Y-81679673D01*
X146471374Y-81679672D01*
X146471371Y-81679671D01*
X146397504Y-81630314D01*
X146397503Y-81630313D01*
X146397500Y-81630311D01*
X146334689Y-81567500D01*
X146334686Y-81567496D01*
X146285329Y-81493629D01*
X146285327Y-81493625D01*
X146251331Y-81411552D01*
X146234000Y-81324421D01*
X146234000Y-81235579D01*
X146251331Y-81148448D01*
X146285327Y-81066375D01*
X146285328Y-81066374D01*
X146285329Y-81066371D01*
X146334686Y-80992504D01*
X146334687Y-80992503D01*
X146334689Y-80992500D01*
X146397500Y-80929689D01*
X146397504Y-80929686D01*
X146471371Y-80880329D01*
X146471374Y-80880328D01*
X146471375Y-80880327D01*
X146553448Y-80846331D01*
X146640579Y-80829000D01*
X146729421Y-80829000D01*
X146816552Y-80846331D01*
X146816552Y-80846331D01*
G37*
G36*
X150476724Y-79146675D02*
X150641853Y-79196766D01*
X150702743Y-79229313D01*
X150794034Y-79278109D01*
X150927422Y-79387578D01*
X151036891Y-79520966D01*
X151054387Y-79553699D01*
X151118234Y-79673147D01*
X151168325Y-79838276D01*
X151185238Y-80010000D01*
X151168325Y-80181724D01*
X151118234Y-80346853D01*
X151087955Y-80403500D01*
X151036891Y-80499034D01*
X150927422Y-80632422D01*
X150794034Y-80741891D01*
X150723196Y-80779755D01*
X150641853Y-80823234D01*
X150476724Y-80873325D01*
X150348032Y-80886000D01*
X149371968Y-80886000D01*
X149243276Y-80873325D01*
X149078147Y-80823234D01*
X148996804Y-80779755D01*
X148925966Y-80741891D01*
X148792578Y-80632422D01*
X148683109Y-80499034D01*
X148632045Y-80403500D01*
X148601766Y-80346853D01*
X148551675Y-80181724D01*
X148534762Y-80010000D01*
X148551675Y-79838276D01*
X148601766Y-79673147D01*
X148665613Y-79553699D01*
X148683109Y-79520966D01*
X148792578Y-79387578D01*
X148925966Y-79278109D01*
X149017257Y-79229313D01*
X149078147Y-79196766D01*
X149243276Y-79146675D01*
X149371968Y-79134000D01*
X150348032Y-79134000D01*
X150476724Y-79146675D01*
X150476724Y-79146675D01*
G37*
G36*
X135236724Y-79146675D02*
X135401853Y-79196766D01*
X135462743Y-79229313D01*
X135554034Y-79278109D01*
X135687422Y-79387578D01*
X135796891Y-79520966D01*
X135814387Y-79553699D01*
X135878234Y-79673147D01*
X135928325Y-79838276D01*
X135945238Y-80010000D01*
X135928325Y-80181724D01*
X135878234Y-80346853D01*
X135847955Y-80403500D01*
X135796891Y-80499034D01*
X135687422Y-80632422D01*
X135554034Y-80741891D01*
X135483196Y-80779755D01*
X135401853Y-80823234D01*
X135236724Y-80873325D01*
X135108032Y-80886000D01*
X134131968Y-80886000D01*
X134003276Y-80873325D01*
X133838147Y-80823234D01*
X133756804Y-80779755D01*
X133685966Y-80741891D01*
X133552578Y-80632422D01*
X133443109Y-80499034D01*
X133392045Y-80403500D01*
X133361766Y-80346853D01*
X133311675Y-80181724D01*
X133294762Y-80010000D01*
X133311675Y-79838276D01*
X133361766Y-79673147D01*
X133425613Y-79553699D01*
X133443109Y-79520966D01*
X133552578Y-79387578D01*
X133685966Y-79278109D01*
X133777257Y-79229313D01*
X133838147Y-79196766D01*
X134003276Y-79146675D01*
X134131968Y-79134000D01*
X135108032Y-79134000D01*
X135236724Y-79146675D01*
X135236724Y-79146675D01*
G37*
G36*
X156826324Y-77876182D02*
X156991545Y-77926301D01*
X157143813Y-78007691D01*
X157277278Y-78117222D01*
X157386809Y-78250687D01*
X157468199Y-78402955D01*
X157518318Y-78568176D01*
X157535241Y-78740000D01*
X157518318Y-78911824D01*
X157468199Y-79077045D01*
X157386809Y-79229313D01*
X157277278Y-79362778D01*
X157143813Y-79472309D01*
X156991545Y-79553699D01*
X156826324Y-79603818D01*
X156697560Y-79616500D01*
X155722440Y-79616500D01*
X155593676Y-79603818D01*
X155428455Y-79553699D01*
X155276187Y-79472309D01*
X155142722Y-79362778D01*
X155033191Y-79229313D01*
X154951801Y-79077045D01*
X154901682Y-78911824D01*
X154884759Y-78740000D01*
X154901682Y-78568176D01*
X154951801Y-78402955D01*
X155033191Y-78250687D01*
X155142722Y-78117222D01*
X155276187Y-78007691D01*
X155428455Y-77926301D01*
X155593676Y-77876182D01*
X155722440Y-77863500D01*
X156697560Y-77863500D01*
X156826324Y-77876182D01*
X156826324Y-77876182D01*
G37*
G36*
X150476724Y-76606675D02*
X150641853Y-76656766D01*
X150702743Y-76689313D01*
X150794034Y-76738109D01*
X150927422Y-76847578D01*
X151036891Y-76980966D01*
X151054387Y-77013699D01*
X151118234Y-77133147D01*
X151168325Y-77298276D01*
X151185238Y-77470000D01*
X151168325Y-77641724D01*
X151118234Y-77806853D01*
X151087955Y-77863500D01*
X151036891Y-77959034D01*
X150927422Y-78092422D01*
X150794034Y-78201891D01*
X150723196Y-78239755D01*
X150641853Y-78283234D01*
X150476724Y-78333325D01*
X150348032Y-78346000D01*
X149371968Y-78346000D01*
X149243276Y-78333325D01*
X149078147Y-78283234D01*
X148996804Y-78239755D01*
X148925966Y-78201891D01*
X148792578Y-78092422D01*
X148683109Y-77959034D01*
X148632045Y-77863500D01*
X148601766Y-77806853D01*
X148551675Y-77641724D01*
X148534762Y-77470000D01*
X148551675Y-77298276D01*
X148601766Y-77133147D01*
X148665613Y-77013699D01*
X148683109Y-76980966D01*
X148792578Y-76847578D01*
X148925966Y-76738109D01*
X149017257Y-76689313D01*
X149078147Y-76656766D01*
X149243276Y-76606675D01*
X149371968Y-76594000D01*
X150348032Y-76594000D01*
X150476724Y-76606675D01*
X150476724Y-76606675D01*
G37*
G36*
X135236724Y-76606675D02*
X135401853Y-76656766D01*
X135462743Y-76689313D01*
X135554034Y-76738109D01*
X135687422Y-76847578D01*
X135796891Y-76980966D01*
X135814387Y-77013699D01*
X135878234Y-77133147D01*
X135928325Y-77298276D01*
X135945238Y-77470000D01*
X135928325Y-77641724D01*
X135878234Y-77806853D01*
X135847955Y-77863500D01*
X135796891Y-77959034D01*
X135687422Y-78092422D01*
X135554034Y-78201891D01*
X135483196Y-78239755D01*
X135401853Y-78283234D01*
X135236724Y-78333325D01*
X135108032Y-78346000D01*
X134131968Y-78346000D01*
X134003276Y-78333325D01*
X133838147Y-78283234D01*
X133756804Y-78239755D01*
X133685966Y-78201891D01*
X133552578Y-78092422D01*
X133443109Y-77959034D01*
X133392045Y-77863500D01*
X133361766Y-77806853D01*
X133311675Y-77641724D01*
X133294762Y-77470000D01*
X133311675Y-77298276D01*
X133361766Y-77133147D01*
X133425613Y-77013699D01*
X133443109Y-76980966D01*
X133552578Y-76847578D01*
X133685966Y-76738109D01*
X133777257Y-76689313D01*
X133838147Y-76656766D01*
X134003276Y-76606675D01*
X134131968Y-76594000D01*
X135108032Y-76594000D01*
X135236724Y-76606675D01*
X135236724Y-76606675D01*
G37*
G36*
X156826324Y-75336182D02*
X156991545Y-75386301D01*
X157143813Y-75467691D01*
X157277278Y-75577222D01*
X157386809Y-75710687D01*
X157468199Y-75862955D01*
X157518318Y-76028176D01*
X157535241Y-76200000D01*
X157518318Y-76371824D01*
X157468199Y-76537045D01*
X157386809Y-76689313D01*
X157277278Y-76822778D01*
X157143813Y-76932309D01*
X156991545Y-77013699D01*
X156826324Y-77063818D01*
X156697560Y-77076500D01*
X155722440Y-77076500D01*
X155593676Y-77063818D01*
X155428455Y-77013699D01*
X155276187Y-76932309D01*
X155142722Y-76822778D01*
X155033191Y-76689313D01*
X154951801Y-76537045D01*
X154901682Y-76371824D01*
X154884759Y-76200000D01*
X154901682Y-76028176D01*
X154951801Y-75862955D01*
X155033191Y-75710687D01*
X155142722Y-75577222D01*
X155276187Y-75467691D01*
X155428455Y-75386301D01*
X155593676Y-75336182D01*
X155722440Y-75323500D01*
X156697560Y-75323500D01*
X156826324Y-75336182D01*
X156826324Y-75336182D01*
G37*
G36*
X150476724Y-74066675D02*
X150641853Y-74116766D01*
X150702743Y-74149313D01*
X150794034Y-74198109D01*
X150927422Y-74307578D01*
X151036891Y-74440966D01*
X151054387Y-74473699D01*
X151118234Y-74593147D01*
X151168325Y-74758276D01*
X151185238Y-74930000D01*
X151168325Y-75101724D01*
X151118234Y-75266853D01*
X151087955Y-75323500D01*
X151036891Y-75419034D01*
X150927422Y-75552422D01*
X150794034Y-75661891D01*
X150723196Y-75699755D01*
X150641853Y-75743234D01*
X150476724Y-75793325D01*
X150348032Y-75806000D01*
X149371968Y-75806000D01*
X149243276Y-75793325D01*
X149078147Y-75743234D01*
X148996804Y-75699755D01*
X148925966Y-75661891D01*
X148792578Y-75552422D01*
X148683109Y-75419034D01*
X148632045Y-75323500D01*
X148601766Y-75266853D01*
X148551675Y-75101724D01*
X148534762Y-74930000D01*
X148551675Y-74758276D01*
X148601766Y-74593147D01*
X148665613Y-74473699D01*
X148683109Y-74440966D01*
X148792578Y-74307578D01*
X148925966Y-74198109D01*
X149017257Y-74149313D01*
X149078147Y-74116766D01*
X149243276Y-74066675D01*
X149371968Y-74054000D01*
X150348032Y-74054000D01*
X150476724Y-74066675D01*
X150476724Y-74066675D01*
G37*
G36*
X135236724Y-74066675D02*
X135401853Y-74116766D01*
X135462743Y-74149313D01*
X135554034Y-74198109D01*
X135687422Y-74307578D01*
X135796891Y-74440966D01*
X135814387Y-74473699D01*
X135878234Y-74593147D01*
X135928325Y-74758276D01*
X135945238Y-74930000D01*
X135928325Y-75101724D01*
X135878234Y-75266853D01*
X135847955Y-75323500D01*
X135796891Y-75419034D01*
X135687422Y-75552422D01*
X135554034Y-75661891D01*
X135483196Y-75699755D01*
X135401853Y-75743234D01*
X135236724Y-75793325D01*
X135108032Y-75806000D01*
X134131968Y-75806000D01*
X134003276Y-75793325D01*
X133838147Y-75743234D01*
X133756804Y-75699755D01*
X133685966Y-75661891D01*
X133552578Y-75552422D01*
X133443109Y-75419034D01*
X133392045Y-75323500D01*
X133361766Y-75266853D01*
X133311675Y-75101724D01*
X133294762Y-74930000D01*
X133311675Y-74758276D01*
X133361766Y-74593147D01*
X133425613Y-74473699D01*
X133443109Y-74440966D01*
X133552578Y-74307578D01*
X133685966Y-74198109D01*
X133777257Y-74149313D01*
X133838147Y-74116766D01*
X134003276Y-74066675D01*
X134131968Y-74054000D01*
X135108032Y-74054000D01*
X135236724Y-74066675D01*
X135236724Y-74066675D01*
G37*
G36*
X179686324Y-72796182D02*
X179851545Y-72846301D01*
X180003813Y-72927691D01*
X180137278Y-73037222D01*
X180246809Y-73170687D01*
X180328199Y-73322955D01*
X180378318Y-73488176D01*
X180395241Y-73660000D01*
X180378318Y-73831824D01*
X180328199Y-73997045D01*
X180246809Y-74149313D01*
X180137278Y-74282778D01*
X180003813Y-74392309D01*
X179851545Y-74473699D01*
X179686324Y-74523818D01*
X179557560Y-74536500D01*
X178582440Y-74536500D01*
X178453676Y-74523818D01*
X178288455Y-74473699D01*
X178136187Y-74392309D01*
X178002722Y-74282778D01*
X177893191Y-74149313D01*
X177811801Y-73997045D01*
X177761682Y-73831824D01*
X177744759Y-73660000D01*
X177761682Y-73488176D01*
X177811801Y-73322955D01*
X177893191Y-73170687D01*
X178002722Y-73037222D01*
X178136187Y-72927691D01*
X178288455Y-72846301D01*
X178453676Y-72796182D01*
X178582440Y-72783500D01*
X179557560Y-72783500D01*
X179686324Y-72796182D01*
X179686324Y-72796182D01*
G37*
G36*
X156826324Y-72796182D02*
X156991545Y-72846301D01*
X157143813Y-72927691D01*
X157277278Y-73037222D01*
X157386809Y-73170687D01*
X157468199Y-73322955D01*
X157518318Y-73488176D01*
X157535241Y-73660000D01*
X157518318Y-73831824D01*
X157468199Y-73997045D01*
X157386809Y-74149313D01*
X157277278Y-74282778D01*
X157143813Y-74392309D01*
X156991545Y-74473699D01*
X156826324Y-74523818D01*
X156697560Y-74536500D01*
X155722440Y-74536500D01*
X155593676Y-74523818D01*
X155428455Y-74473699D01*
X155276187Y-74392309D01*
X155142722Y-74282778D01*
X155033191Y-74149313D01*
X154951801Y-73997045D01*
X154901682Y-73831824D01*
X154884759Y-73660000D01*
X154901682Y-73488176D01*
X154951801Y-73322955D01*
X155033191Y-73170687D01*
X155142722Y-73037222D01*
X155276187Y-72927691D01*
X155428455Y-72846301D01*
X155593676Y-72796182D01*
X155722440Y-72783500D01*
X156697560Y-72783500D01*
X156826324Y-72796182D01*
X156826324Y-72796182D01*
G37*
G36*
X190870494Y-71841703D02*
X191025366Y-71905853D01*
X191164747Y-71998985D01*
X191283281Y-72117519D01*
X191376413Y-72256900D01*
X191440563Y-72411772D01*
X191473266Y-72576184D01*
X191473266Y-72743816D01*
X191440563Y-72908228D01*
X191376413Y-73063100D01*
X191283281Y-73202481D01*
X191164747Y-73321015D01*
X191025366Y-73414147D01*
X190870494Y-73478297D01*
X190706082Y-73511000D01*
X190538450Y-73511000D01*
X190374038Y-73478297D01*
X190219166Y-73414147D01*
X190079785Y-73321015D01*
X189961251Y-73202481D01*
X189868119Y-73063100D01*
X189803969Y-72908228D01*
X189771266Y-72743816D01*
X189771266Y-72576184D01*
X189803969Y-72411772D01*
X189868119Y-72256900D01*
X189961251Y-72117519D01*
X190079785Y-71998985D01*
X190219166Y-71905853D01*
X190374038Y-71841703D01*
X190538450Y-71809000D01*
X190706082Y-71809000D01*
X190870494Y-71841703D01*
X190870494Y-71841703D01*
G37*
G36*
X185790494Y-71841703D02*
X185945366Y-71905853D01*
X186084747Y-71998985D01*
X186203281Y-72117519D01*
X186296413Y-72256900D01*
X186360563Y-72411772D01*
X186393266Y-72576184D01*
X186393266Y-72743816D01*
X186360563Y-72908228D01*
X186296413Y-73063100D01*
X186203281Y-73202481D01*
X186084747Y-73321015D01*
X185945366Y-73414147D01*
X185790494Y-73478297D01*
X185626082Y-73511000D01*
X185458450Y-73511000D01*
X185294038Y-73478297D01*
X185139166Y-73414147D01*
X184999785Y-73321015D01*
X184881251Y-73202481D01*
X184788119Y-73063100D01*
X184723969Y-72908228D01*
X184691266Y-72743816D01*
X184691266Y-72576184D01*
X184723969Y-72411772D01*
X184788119Y-72256900D01*
X184881251Y-72117519D01*
X184999785Y-71998985D01*
X185139166Y-71905853D01*
X185294038Y-71841703D01*
X185458450Y-71809000D01*
X185626082Y-71809000D01*
X185790494Y-71841703D01*
X185790494Y-71841703D01*
G37*
G36*
X135236724Y-71526675D02*
X135401853Y-71576766D01*
X135443105Y-71598816D01*
X135554034Y-71658109D01*
X135687422Y-71767578D01*
X135796891Y-71900966D01*
X135814387Y-71933699D01*
X135878234Y-72053147D01*
X135928325Y-72218276D01*
X135945238Y-72390000D01*
X135928325Y-72561724D01*
X135878234Y-72726853D01*
X135869167Y-72743816D01*
X135796891Y-72879034D01*
X135687422Y-73012422D01*
X135554034Y-73121891D01*
X135483196Y-73159755D01*
X135401853Y-73203234D01*
X135236724Y-73253325D01*
X135108032Y-73266000D01*
X134131968Y-73266000D01*
X134003276Y-73253325D01*
X133838147Y-73203234D01*
X133756804Y-73159755D01*
X133685966Y-73121891D01*
X133552578Y-73012422D01*
X133443109Y-72879034D01*
X133370833Y-72743816D01*
X133361766Y-72726853D01*
X133311675Y-72561724D01*
X133294762Y-72390000D01*
X133311675Y-72218276D01*
X133361766Y-72053147D01*
X133425613Y-71933699D01*
X133443109Y-71900966D01*
X133552578Y-71767578D01*
X133685966Y-71658109D01*
X133796895Y-71598816D01*
X133838147Y-71576766D01*
X134003276Y-71526675D01*
X134131968Y-71514000D01*
X135108032Y-71514000D01*
X135236724Y-71526675D01*
X135236724Y-71526675D01*
G37*
G36*
X150476724Y-71526675D02*
X150641853Y-71576766D01*
X150683105Y-71598816D01*
X150794034Y-71658109D01*
X150927422Y-71767578D01*
X151036891Y-71900966D01*
X151054387Y-71933699D01*
X151118234Y-72053147D01*
X151168325Y-72218276D01*
X151185238Y-72390000D01*
X151168325Y-72561724D01*
X151118234Y-72726853D01*
X151109167Y-72743816D01*
X151036891Y-72879034D01*
X150927422Y-73012422D01*
X150794034Y-73121891D01*
X150723196Y-73159755D01*
X150641853Y-73203234D01*
X150476724Y-73253325D01*
X150348032Y-73266000D01*
X149371968Y-73266000D01*
X149243276Y-73253325D01*
X149078147Y-73203234D01*
X148996804Y-73159755D01*
X148925966Y-73121891D01*
X148792578Y-73012422D01*
X148683109Y-72879034D01*
X148610833Y-72743816D01*
X148601766Y-72726853D01*
X148551675Y-72561724D01*
X148534762Y-72390000D01*
X148551675Y-72218276D01*
X148601766Y-72053147D01*
X148665613Y-71933699D01*
X148683109Y-71900966D01*
X148792578Y-71767578D01*
X148925966Y-71658109D01*
X149036895Y-71598816D01*
X149078147Y-71576766D01*
X149243276Y-71526675D01*
X149371968Y-71514000D01*
X150348032Y-71514000D01*
X150476724Y-71526675D01*
X150476724Y-71526675D01*
G37*
G36*
X188330494Y-70696703D02*
X188485366Y-70760853D01*
X188624747Y-70853985D01*
X188743281Y-70972519D01*
X188836413Y-71111900D01*
X188900563Y-71266772D01*
X188933266Y-71431184D01*
X188933266Y-71598816D01*
X188900563Y-71763228D01*
X188836413Y-71918100D01*
X188743281Y-72057481D01*
X188624747Y-72176015D01*
X188485366Y-72269147D01*
X188330494Y-72333297D01*
X188166082Y-72366000D01*
X187998450Y-72366000D01*
X187834038Y-72333297D01*
X187679166Y-72269147D01*
X187539785Y-72176015D01*
X187421251Y-72057481D01*
X187328119Y-71918100D01*
X187263969Y-71763228D01*
X187231266Y-71598816D01*
X187231266Y-71431184D01*
X187263969Y-71266772D01*
X187328119Y-71111900D01*
X187421251Y-70972519D01*
X187539785Y-70853985D01*
X187679166Y-70760853D01*
X187834038Y-70696703D01*
X187998450Y-70664000D01*
X188166082Y-70664000D01*
X188330494Y-70696703D01*
X188330494Y-70696703D01*
G37*
G36*
X179686324Y-70256182D02*
X179851545Y-70306301D01*
X180003813Y-70387691D01*
X180137278Y-70497222D01*
X180246809Y-70630687D01*
X180328199Y-70782955D01*
X180378318Y-70948176D01*
X180395241Y-71120000D01*
X180378318Y-71291824D01*
X180328199Y-71457045D01*
X180246809Y-71609313D01*
X180137278Y-71742778D01*
X180003813Y-71852309D01*
X179851545Y-71933699D01*
X179686324Y-71983818D01*
X179557560Y-71996500D01*
X178582440Y-71996500D01*
X178453676Y-71983818D01*
X178288455Y-71933699D01*
X178136187Y-71852309D01*
X178002722Y-71742778D01*
X177893191Y-71609313D01*
X177811801Y-71457045D01*
X177761682Y-71291824D01*
X177744759Y-71120000D01*
X177761682Y-70948176D01*
X177811801Y-70782955D01*
X177893191Y-70630687D01*
X178002722Y-70497222D01*
X178136187Y-70387691D01*
X178288455Y-70306301D01*
X178453676Y-70256182D01*
X178582440Y-70243500D01*
X179557560Y-70243500D01*
X179686324Y-70256182D01*
X179686324Y-70256182D01*
G37*
G36*
X156826324Y-70256182D02*
X156991545Y-70306301D01*
X157143813Y-70387691D01*
X157277278Y-70497222D01*
X157386809Y-70630687D01*
X157468199Y-70782955D01*
X157518318Y-70948176D01*
X157535241Y-71120000D01*
X157518318Y-71291824D01*
X157468199Y-71457045D01*
X157386809Y-71609313D01*
X157277278Y-71742778D01*
X157143813Y-71852309D01*
X156991545Y-71933699D01*
X156826324Y-71983818D01*
X156697560Y-71996500D01*
X155722440Y-71996500D01*
X155593676Y-71983818D01*
X155428455Y-71933699D01*
X155276187Y-71852309D01*
X155142722Y-71742778D01*
X155033191Y-71609313D01*
X154951801Y-71457045D01*
X154901682Y-71291824D01*
X154884759Y-71120000D01*
X154901682Y-70948176D01*
X154951801Y-70782955D01*
X155033191Y-70630687D01*
X155142722Y-70497222D01*
X155276187Y-70387691D01*
X155428455Y-70306301D01*
X155593676Y-70256182D01*
X155722440Y-70243500D01*
X156697560Y-70243500D01*
X156826324Y-70256182D01*
X156826324Y-70256182D01*
G37*
G36*
X185790494Y-69551703D02*
X185945366Y-69615853D01*
X186084747Y-69708985D01*
X186203281Y-69827519D01*
X186296413Y-69966900D01*
X186360563Y-70121772D01*
X186393266Y-70286184D01*
X186393266Y-70453816D01*
X186360563Y-70618228D01*
X186296413Y-70773100D01*
X186203281Y-70912481D01*
X186084747Y-71031015D01*
X185945366Y-71124147D01*
X185790494Y-71188297D01*
X185626082Y-71221000D01*
X185458450Y-71221000D01*
X185294038Y-71188297D01*
X185139166Y-71124147D01*
X184999785Y-71031015D01*
X184881251Y-70912481D01*
X184788119Y-70773100D01*
X184723969Y-70618228D01*
X184691266Y-70453816D01*
X184691266Y-70286184D01*
X184723969Y-70121772D01*
X184788119Y-69966900D01*
X184881251Y-69827519D01*
X184999785Y-69708985D01*
X185139166Y-69615853D01*
X185294038Y-69551703D01*
X185458450Y-69519000D01*
X185626082Y-69519000D01*
X185790494Y-69551703D01*
X185790494Y-69551703D01*
G37*
G36*
X190870494Y-69551703D02*
X191025366Y-69615853D01*
X191164747Y-69708985D01*
X191283281Y-69827519D01*
X191376413Y-69966900D01*
X191440563Y-70121772D01*
X191473266Y-70286184D01*
X191473266Y-70453816D01*
X191440563Y-70618228D01*
X191376413Y-70773100D01*
X191283281Y-70912481D01*
X191164747Y-71031015D01*
X191025366Y-71124147D01*
X190870494Y-71188297D01*
X190706082Y-71221000D01*
X190538450Y-71221000D01*
X190374038Y-71188297D01*
X190219166Y-71124147D01*
X190079785Y-71031015D01*
X189961251Y-70912481D01*
X189868119Y-70773100D01*
X189803969Y-70618228D01*
X189771266Y-70453816D01*
X189771266Y-70286184D01*
X189803969Y-70121772D01*
X189868119Y-69966900D01*
X189961251Y-69827519D01*
X190079785Y-69708985D01*
X190219166Y-69615853D01*
X190374038Y-69551703D01*
X190538450Y-69519000D01*
X190706082Y-69519000D01*
X190870494Y-69551703D01*
X190870494Y-69551703D01*
G37*
G36*
X135236724Y-68986675D02*
X135401853Y-69036766D01*
X135462743Y-69069313D01*
X135554034Y-69118109D01*
X135687422Y-69227578D01*
X135796891Y-69360966D01*
X135814387Y-69393699D01*
X135878234Y-69513147D01*
X135928325Y-69678276D01*
X135945238Y-69850000D01*
X135928325Y-70021724D01*
X135878234Y-70186853D01*
X135847955Y-70243500D01*
X135796891Y-70339034D01*
X135687422Y-70472422D01*
X135554034Y-70581891D01*
X135486052Y-70618228D01*
X135401853Y-70663234D01*
X135236724Y-70713325D01*
X135108032Y-70726000D01*
X134131968Y-70726000D01*
X134003276Y-70713325D01*
X133838147Y-70663234D01*
X133753948Y-70618228D01*
X133685966Y-70581891D01*
X133552578Y-70472422D01*
X133443109Y-70339034D01*
X133392045Y-70243500D01*
X133361766Y-70186853D01*
X133311675Y-70021724D01*
X133294762Y-69850000D01*
X133311675Y-69678276D01*
X133361766Y-69513147D01*
X133425613Y-69393699D01*
X133443109Y-69360966D01*
X133552578Y-69227578D01*
X133685966Y-69118109D01*
X133777257Y-69069313D01*
X133838147Y-69036766D01*
X134003276Y-68986675D01*
X134131968Y-68974000D01*
X135108032Y-68974000D01*
X135236724Y-68986675D01*
X135236724Y-68986675D01*
G37*
G36*
X150476724Y-68986675D02*
X150641853Y-69036766D01*
X150702743Y-69069313D01*
X150794034Y-69118109D01*
X150927422Y-69227578D01*
X151036891Y-69360966D01*
X151054387Y-69393699D01*
X151118234Y-69513147D01*
X151168325Y-69678276D01*
X151185238Y-69850000D01*
X151168325Y-70021724D01*
X151118234Y-70186853D01*
X151087955Y-70243500D01*
X151036891Y-70339034D01*
X150927422Y-70472422D01*
X150794034Y-70581891D01*
X150726052Y-70618228D01*
X150641853Y-70663234D01*
X150476724Y-70713325D01*
X150348032Y-70726000D01*
X149371968Y-70726000D01*
X149243276Y-70713325D01*
X149078147Y-70663234D01*
X148993948Y-70618228D01*
X148925966Y-70581891D01*
X148792578Y-70472422D01*
X148683109Y-70339034D01*
X148632045Y-70243500D01*
X148601766Y-70186853D01*
X148551675Y-70021724D01*
X148534762Y-69850000D01*
X148551675Y-69678276D01*
X148601766Y-69513147D01*
X148665613Y-69393699D01*
X148683109Y-69360966D01*
X148792578Y-69227578D01*
X148925966Y-69118109D01*
X149017257Y-69069313D01*
X149078147Y-69036766D01*
X149243276Y-68986675D01*
X149371968Y-68974000D01*
X150348032Y-68974000D01*
X150476724Y-68986675D01*
X150476724Y-68986675D01*
G37*
G36*
X188330494Y-68406703D02*
X188485366Y-68470853D01*
X188624747Y-68563985D01*
X188743281Y-68682519D01*
X188836413Y-68821900D01*
X188900563Y-68976772D01*
X188933266Y-69141184D01*
X188933266Y-69308816D01*
X188900563Y-69473228D01*
X188836413Y-69628100D01*
X188743281Y-69767481D01*
X188624747Y-69886015D01*
X188485366Y-69979147D01*
X188330494Y-70043297D01*
X188166082Y-70076000D01*
X187998450Y-70076000D01*
X187834038Y-70043297D01*
X187679166Y-69979147D01*
X187539785Y-69886015D01*
X187421251Y-69767481D01*
X187328119Y-69628100D01*
X187263969Y-69473228D01*
X187231266Y-69308816D01*
X187231266Y-69141184D01*
X187263969Y-68976772D01*
X187328119Y-68821900D01*
X187421251Y-68682519D01*
X187539785Y-68563985D01*
X187679166Y-68470853D01*
X187834038Y-68406703D01*
X187998450Y-68374000D01*
X188166082Y-68374000D01*
X188330494Y-68406703D01*
X188330494Y-68406703D01*
G37*
G36*
X179686324Y-67716182D02*
X179851545Y-67766301D01*
X180003813Y-67847691D01*
X180137278Y-67957222D01*
X180246809Y-68090687D01*
X180328199Y-68242955D01*
X180378318Y-68408176D01*
X180395241Y-68580000D01*
X180378318Y-68751824D01*
X180328199Y-68917045D01*
X180246809Y-69069313D01*
X180137278Y-69202778D01*
X180003813Y-69312309D01*
X179851545Y-69393699D01*
X179686324Y-69443818D01*
X179557560Y-69456500D01*
X178582440Y-69456500D01*
X178453676Y-69443818D01*
X178288455Y-69393699D01*
X178136187Y-69312309D01*
X178002722Y-69202778D01*
X177893191Y-69069313D01*
X177811801Y-68917045D01*
X177761682Y-68751824D01*
X177744759Y-68580000D01*
X177761682Y-68408176D01*
X177811801Y-68242955D01*
X177893191Y-68090687D01*
X178002722Y-67957222D01*
X178136187Y-67847691D01*
X178288455Y-67766301D01*
X178453676Y-67716182D01*
X178582440Y-67703500D01*
X179557560Y-67703500D01*
X179686324Y-67716182D01*
X179686324Y-67716182D01*
G37*
G36*
X156826324Y-67716182D02*
X156991545Y-67766301D01*
X157143813Y-67847691D01*
X157277278Y-67957222D01*
X157386809Y-68090687D01*
X157468199Y-68242955D01*
X157518318Y-68408176D01*
X157535241Y-68580000D01*
X157518318Y-68751824D01*
X157468199Y-68917045D01*
X157386809Y-69069313D01*
X157277278Y-69202778D01*
X157143813Y-69312309D01*
X156991545Y-69393699D01*
X156826324Y-69443818D01*
X156697560Y-69456500D01*
X155722440Y-69456500D01*
X155593676Y-69443818D01*
X155428455Y-69393699D01*
X155276187Y-69312309D01*
X155142722Y-69202778D01*
X155033191Y-69069313D01*
X154951801Y-68917045D01*
X154901682Y-68751824D01*
X154884759Y-68580000D01*
X154901682Y-68408176D01*
X154951801Y-68242955D01*
X155033191Y-68090687D01*
X155142722Y-67957222D01*
X155276187Y-67847691D01*
X155428455Y-67766301D01*
X155593676Y-67716182D01*
X155722440Y-67703500D01*
X156697560Y-67703500D01*
X156826324Y-67716182D01*
X156826324Y-67716182D01*
G37*
G36*
X190870494Y-67261703D02*
X191025366Y-67325853D01*
X191164747Y-67418985D01*
X191283281Y-67537519D01*
X191376413Y-67676900D01*
X191440563Y-67831772D01*
X191473266Y-67996184D01*
X191473266Y-68163816D01*
X191440563Y-68328228D01*
X191376413Y-68483100D01*
X191283281Y-68622481D01*
X191164747Y-68741015D01*
X191025366Y-68834147D01*
X190870494Y-68898297D01*
X190706082Y-68931000D01*
X190538450Y-68931000D01*
X190374038Y-68898297D01*
X190219166Y-68834147D01*
X190079785Y-68741015D01*
X189961251Y-68622481D01*
X189868119Y-68483100D01*
X189803969Y-68328228D01*
X189771266Y-68163816D01*
X189771266Y-67996184D01*
X189803969Y-67831772D01*
X189868119Y-67676900D01*
X189961251Y-67537519D01*
X190079785Y-67418985D01*
X190219166Y-67325853D01*
X190374038Y-67261703D01*
X190538450Y-67229000D01*
X190706082Y-67229000D01*
X190870494Y-67261703D01*
X190870494Y-67261703D01*
G37*
G36*
X185790494Y-67261703D02*
X185945366Y-67325853D01*
X186084747Y-67418985D01*
X186203281Y-67537519D01*
X186296413Y-67676900D01*
X186360563Y-67831772D01*
X186393266Y-67996184D01*
X186393266Y-68163816D01*
X186360563Y-68328228D01*
X186296413Y-68483100D01*
X186203281Y-68622481D01*
X186084747Y-68741015D01*
X185945366Y-68834147D01*
X185790494Y-68898297D01*
X185626082Y-68931000D01*
X185458450Y-68931000D01*
X185294038Y-68898297D01*
X185139166Y-68834147D01*
X184999785Y-68741015D01*
X184881251Y-68622481D01*
X184788119Y-68483100D01*
X184723969Y-68328228D01*
X184691266Y-68163816D01*
X184691266Y-67996184D01*
X184723969Y-67831772D01*
X184788119Y-67676900D01*
X184881251Y-67537519D01*
X184999785Y-67418985D01*
X185139166Y-67325853D01*
X185294038Y-67261703D01*
X185458450Y-67229000D01*
X185626082Y-67229000D01*
X185790494Y-67261703D01*
X185790494Y-67261703D01*
G37*
G36*
X150476724Y-66446675D02*
X150641853Y-66496766D01*
X150702743Y-66529313D01*
X150794034Y-66578109D01*
X150927422Y-66687578D01*
X151036891Y-66820966D01*
X151054387Y-66853699D01*
X151118234Y-66973147D01*
X151168325Y-67138276D01*
X151185238Y-67310000D01*
X151168325Y-67481724D01*
X151118234Y-67646853D01*
X151095627Y-67689147D01*
X151036891Y-67799034D01*
X150927422Y-67932422D01*
X150794034Y-68041891D01*
X150723196Y-68079755D01*
X150641853Y-68123234D01*
X150476724Y-68173325D01*
X150348032Y-68186000D01*
X149371968Y-68186000D01*
X149243276Y-68173325D01*
X149078147Y-68123234D01*
X148996804Y-68079755D01*
X148925966Y-68041891D01*
X148792578Y-67932422D01*
X148683109Y-67799034D01*
X148624373Y-67689147D01*
X148601766Y-67646853D01*
X148551675Y-67481724D01*
X148534762Y-67310000D01*
X148551675Y-67138276D01*
X148601766Y-66973147D01*
X148665613Y-66853699D01*
X148683109Y-66820966D01*
X148792578Y-66687578D01*
X148925966Y-66578109D01*
X149017257Y-66529313D01*
X149078147Y-66496766D01*
X149243276Y-66446675D01*
X149371968Y-66434000D01*
X150348032Y-66434000D01*
X150476724Y-66446675D01*
X150476724Y-66446675D01*
G37*
G36*
X135236724Y-66446675D02*
X135401853Y-66496766D01*
X135462743Y-66529313D01*
X135554034Y-66578109D01*
X135687422Y-66687578D01*
X135796891Y-66820966D01*
X135814387Y-66853699D01*
X135878234Y-66973147D01*
X135928325Y-67138276D01*
X135945238Y-67310000D01*
X135928325Y-67481724D01*
X135878234Y-67646853D01*
X135855627Y-67689147D01*
X135796891Y-67799034D01*
X135687422Y-67932422D01*
X135554034Y-68041891D01*
X135483196Y-68079755D01*
X135401853Y-68123234D01*
X135236724Y-68173325D01*
X135108032Y-68186000D01*
X134131968Y-68186000D01*
X134003276Y-68173325D01*
X133838147Y-68123234D01*
X133756804Y-68079755D01*
X133685966Y-68041891D01*
X133552578Y-67932422D01*
X133443109Y-67799034D01*
X133384373Y-67689147D01*
X133361766Y-67646853D01*
X133311675Y-67481724D01*
X133294762Y-67310000D01*
X133311675Y-67138276D01*
X133361766Y-66973147D01*
X133425613Y-66853699D01*
X133443109Y-66820966D01*
X133552578Y-66687578D01*
X133685966Y-66578109D01*
X133777257Y-66529313D01*
X133838147Y-66496766D01*
X134003276Y-66446675D01*
X134131968Y-66434000D01*
X135108032Y-66434000D01*
X135236724Y-66446675D01*
X135236724Y-66446675D01*
G37*
G36*
X188330494Y-66116703D02*
X188485366Y-66180853D01*
X188624747Y-66273985D01*
X188743281Y-66392519D01*
X188836413Y-66531900D01*
X188900563Y-66686772D01*
X188933266Y-66851184D01*
X188933266Y-67018816D01*
X188900563Y-67183228D01*
X188836413Y-67338100D01*
X188743281Y-67477481D01*
X188624747Y-67596015D01*
X188485366Y-67689147D01*
X188330494Y-67753297D01*
X188166082Y-67786000D01*
X187998450Y-67786000D01*
X187834038Y-67753297D01*
X187679166Y-67689147D01*
X187539785Y-67596015D01*
X187421251Y-67477481D01*
X187328119Y-67338100D01*
X187263969Y-67183228D01*
X187231266Y-67018816D01*
X187231266Y-66851184D01*
X187263969Y-66686772D01*
X187328119Y-66531900D01*
X187421251Y-66392519D01*
X187539785Y-66273985D01*
X187679166Y-66180853D01*
X187834038Y-66116703D01*
X187998450Y-66084000D01*
X188166082Y-66084000D01*
X188330494Y-66116703D01*
X188330494Y-66116703D01*
G37*
G36*
X156826324Y-65176182D02*
X156991545Y-65226301D01*
X157143813Y-65307691D01*
X157277278Y-65417222D01*
X157386809Y-65550687D01*
X157468199Y-65702955D01*
X157518318Y-65868176D01*
X157535241Y-66040000D01*
X157518318Y-66211824D01*
X157468199Y-66377045D01*
X157386809Y-66529313D01*
X157277278Y-66662778D01*
X157143813Y-66772309D01*
X156991545Y-66853699D01*
X156826324Y-66903818D01*
X156697560Y-66916500D01*
X155722440Y-66916500D01*
X155593676Y-66903818D01*
X155428455Y-66853699D01*
X155276187Y-66772309D01*
X155142722Y-66662778D01*
X155033191Y-66529313D01*
X154951801Y-66377045D01*
X154901682Y-66211824D01*
X154884759Y-66040000D01*
X154901682Y-65868176D01*
X154951801Y-65702955D01*
X155033191Y-65550687D01*
X155142722Y-65417222D01*
X155276187Y-65307691D01*
X155428455Y-65226301D01*
X155593676Y-65176182D01*
X155722440Y-65163500D01*
X156697560Y-65163500D01*
X156826324Y-65176182D01*
X156826324Y-65176182D01*
G37*
G36*
X179686324Y-65176182D02*
X179851545Y-65226301D01*
X180003813Y-65307691D01*
X180137278Y-65417222D01*
X180246809Y-65550687D01*
X180328199Y-65702955D01*
X180378318Y-65868176D01*
X180395241Y-66040000D01*
X180378318Y-66211824D01*
X180328199Y-66377045D01*
X180246809Y-66529313D01*
X180137278Y-66662778D01*
X180003813Y-66772309D01*
X179851545Y-66853699D01*
X179686324Y-66903818D01*
X179557560Y-66916500D01*
X178582440Y-66916500D01*
X178453676Y-66903818D01*
X178288455Y-66853699D01*
X178136187Y-66772309D01*
X178002722Y-66662778D01*
X177893191Y-66529313D01*
X177811801Y-66377045D01*
X177761682Y-66211824D01*
X177744759Y-66040000D01*
X177761682Y-65868176D01*
X177811801Y-65702955D01*
X177893191Y-65550687D01*
X178002722Y-65417222D01*
X178136187Y-65307691D01*
X178288455Y-65226301D01*
X178453676Y-65176182D01*
X178582440Y-65163500D01*
X179557560Y-65163500D01*
X179686324Y-65176182D01*
X179686324Y-65176182D01*
G37*
G36*
X185790494Y-64971703D02*
X185945366Y-65035853D01*
X186084747Y-65128985D01*
X186203281Y-65247519D01*
X186296413Y-65386900D01*
X186360563Y-65541772D01*
X186393266Y-65706184D01*
X186393266Y-65873816D01*
X186360563Y-66038228D01*
X186296413Y-66193100D01*
X186203281Y-66332481D01*
X186084747Y-66451015D01*
X185945366Y-66544147D01*
X185790494Y-66608297D01*
X185626082Y-66641000D01*
X185458450Y-66641000D01*
X185294038Y-66608297D01*
X185139166Y-66544147D01*
X184999785Y-66451015D01*
X184881251Y-66332481D01*
X184788119Y-66193100D01*
X184723969Y-66038228D01*
X184691266Y-65873816D01*
X184691266Y-65706184D01*
X184723969Y-65541772D01*
X184788119Y-65386900D01*
X184881251Y-65247519D01*
X184999785Y-65128985D01*
X185139166Y-65035853D01*
X185294038Y-64971703D01*
X185458450Y-64939000D01*
X185626082Y-64939000D01*
X185790494Y-64971703D01*
X185790494Y-64971703D01*
G37*
G36*
X190870494Y-64971703D02*
X191025366Y-65035853D01*
X191164747Y-65128985D01*
X191283281Y-65247519D01*
X191376413Y-65386900D01*
X191440563Y-65541772D01*
X191473266Y-65706184D01*
X191473266Y-65873816D01*
X191440563Y-66038228D01*
X191376413Y-66193100D01*
X191283281Y-66332481D01*
X191164747Y-66451015D01*
X191025366Y-66544147D01*
X190870494Y-66608297D01*
X190706082Y-66641000D01*
X190538450Y-66641000D01*
X190374038Y-66608297D01*
X190219166Y-66544147D01*
X190079785Y-66451015D01*
X189961251Y-66332481D01*
X189868119Y-66193100D01*
X189803969Y-66038228D01*
X189771266Y-65873816D01*
X189771266Y-65706184D01*
X189803969Y-65541772D01*
X189868119Y-65386900D01*
X189961251Y-65247519D01*
X190079785Y-65128985D01*
X190219166Y-65035853D01*
X190374038Y-64971703D01*
X190538450Y-64939000D01*
X190706082Y-64939000D01*
X190870494Y-64971703D01*
X190870494Y-64971703D01*
G37*
G36*
X135236724Y-63906675D02*
X135401853Y-63956766D01*
X135452777Y-63983986D01*
X135554034Y-64038109D01*
X135687422Y-64147578D01*
X135796891Y-64280966D01*
X135826484Y-64336331D01*
X135878234Y-64433147D01*
X135928325Y-64598276D01*
X135945238Y-64770000D01*
X135928325Y-64941724D01*
X135878234Y-65106853D01*
X135841176Y-65176182D01*
X135796891Y-65259034D01*
X135687422Y-65392422D01*
X135554034Y-65501891D01*
X135483196Y-65539755D01*
X135401853Y-65583234D01*
X135236724Y-65633325D01*
X135108032Y-65646000D01*
X134131968Y-65646000D01*
X134003276Y-65633325D01*
X133838147Y-65583234D01*
X133756804Y-65539755D01*
X133685966Y-65501891D01*
X133552578Y-65392422D01*
X133443109Y-65259034D01*
X133398824Y-65176182D01*
X133361766Y-65106853D01*
X133311675Y-64941724D01*
X133294762Y-64770000D01*
X133311675Y-64598276D01*
X133361766Y-64433147D01*
X133413516Y-64336331D01*
X133443109Y-64280966D01*
X133552578Y-64147578D01*
X133685966Y-64038109D01*
X133787223Y-63983986D01*
X133838147Y-63956766D01*
X134003276Y-63906675D01*
X134131968Y-63894000D01*
X135108032Y-63894000D01*
X135236724Y-63906675D01*
X135236724Y-63906675D01*
G37*
G36*
X150476724Y-63906675D02*
X150641853Y-63956766D01*
X150692777Y-63983986D01*
X150794034Y-64038109D01*
X150927422Y-64147578D01*
X151036891Y-64280966D01*
X151066484Y-64336331D01*
X151118234Y-64433147D01*
X151168325Y-64598276D01*
X151185238Y-64770000D01*
X151168325Y-64941724D01*
X151118234Y-65106853D01*
X151081176Y-65176182D01*
X151036891Y-65259034D01*
X150927422Y-65392422D01*
X150794034Y-65501891D01*
X150723196Y-65539755D01*
X150641853Y-65583234D01*
X150476724Y-65633325D01*
X150348032Y-65646000D01*
X149371968Y-65646000D01*
X149243276Y-65633325D01*
X149078147Y-65583234D01*
X148996804Y-65539755D01*
X148925966Y-65501891D01*
X148792578Y-65392422D01*
X148683109Y-65259034D01*
X148638824Y-65176182D01*
X148601766Y-65106853D01*
X148551675Y-64941724D01*
X148534762Y-64770000D01*
X148551675Y-64598276D01*
X148601766Y-64433147D01*
X148653516Y-64336331D01*
X148683109Y-64280966D01*
X148792578Y-64147578D01*
X148925966Y-64038109D01*
X149027223Y-63983986D01*
X149078147Y-63956766D01*
X149243276Y-63906675D01*
X149371968Y-63894000D01*
X150348032Y-63894000D01*
X150476724Y-63906675D01*
X150476724Y-63906675D01*
G37*
G36*
X188330494Y-63826703D02*
X188485366Y-63890853D01*
X188624747Y-63983985D01*
X188743281Y-64102519D01*
X188836413Y-64241900D01*
X188900563Y-64396772D01*
X188933266Y-64561184D01*
X188933266Y-64728816D01*
X188900563Y-64893228D01*
X188836413Y-65048100D01*
X188743281Y-65187481D01*
X188624747Y-65306015D01*
X188485366Y-65399147D01*
X188330494Y-65463297D01*
X188166082Y-65496000D01*
X187998450Y-65496000D01*
X187834038Y-65463297D01*
X187679166Y-65399147D01*
X187539785Y-65306015D01*
X187421251Y-65187481D01*
X187328119Y-65048100D01*
X187263969Y-64893228D01*
X187231266Y-64728816D01*
X187231266Y-64561184D01*
X187263969Y-64396772D01*
X187328119Y-64241900D01*
X187421251Y-64102519D01*
X187539785Y-63983985D01*
X187679166Y-63890853D01*
X187834038Y-63826703D01*
X187998450Y-63794000D01*
X188166082Y-63794000D01*
X188330494Y-63826703D01*
X188330494Y-63826703D01*
G37*
G36*
X168406552Y-64336331D02*
X168488625Y-64370327D01*
X168488626Y-64370328D01*
X168488629Y-64370329D01*
X168562496Y-64419686D01*
X168562500Y-64419689D01*
X168625311Y-64482500D01*
X168625313Y-64482503D01*
X168625314Y-64482504D01*
X168674671Y-64556371D01*
X168674672Y-64556374D01*
X168674673Y-64556375D01*
X168708669Y-64638448D01*
X168726000Y-64725579D01*
X168726000Y-64814421D01*
X168708669Y-64901552D01*
X168674673Y-64983625D01*
X168674671Y-64983629D01*
X168631592Y-65048100D01*
X168625311Y-65057500D01*
X168562500Y-65120311D01*
X168562497Y-65120313D01*
X168562496Y-65120314D01*
X168488629Y-65169671D01*
X168488626Y-65169672D01*
X168488625Y-65169673D01*
X168406552Y-65203669D01*
X168319421Y-65221000D01*
X168230579Y-65221000D01*
X168143448Y-65203669D01*
X168061375Y-65169673D01*
X168061374Y-65169672D01*
X168061371Y-65169671D01*
X167987504Y-65120314D01*
X167987503Y-65120313D01*
X167987500Y-65120311D01*
X167924689Y-65057500D01*
X167918408Y-65048100D01*
X167875329Y-64983629D01*
X167875327Y-64983625D01*
X167841331Y-64901552D01*
X167824000Y-64814421D01*
X167824000Y-64725579D01*
X167841331Y-64638448D01*
X167875327Y-64556375D01*
X167875328Y-64556374D01*
X167875329Y-64556371D01*
X167924686Y-64482504D01*
X167924687Y-64482503D01*
X167924689Y-64482500D01*
X167987500Y-64419689D01*
X167987504Y-64419686D01*
X168061371Y-64370329D01*
X168061374Y-64370328D01*
X168061375Y-64370327D01*
X168143448Y-64336331D01*
X168230579Y-64319000D01*
X168319421Y-64319000D01*
X168406552Y-64336331D01*
X168406552Y-64336331D01*
G37*
G36*
X156826324Y-62636182D02*
X156991545Y-62686301D01*
X157143813Y-62767691D01*
X157277278Y-62877222D01*
X157386809Y-63010687D01*
X157468199Y-63162955D01*
X157518318Y-63328176D01*
X157535241Y-63500000D01*
X157518318Y-63671824D01*
X157468199Y-63837045D01*
X157386809Y-63989313D01*
X157277278Y-64122778D01*
X157143813Y-64232309D01*
X156991545Y-64313699D01*
X156826324Y-64363818D01*
X156697560Y-64376500D01*
X155722440Y-64376500D01*
X155593676Y-64363818D01*
X155428455Y-64313699D01*
X155276187Y-64232309D01*
X155142722Y-64122778D01*
X155033191Y-63989313D01*
X154951801Y-63837045D01*
X154901682Y-63671824D01*
X154884759Y-63500000D01*
X154901682Y-63328176D01*
X154951801Y-63162955D01*
X155033191Y-63010687D01*
X155142722Y-62877222D01*
X155276187Y-62767691D01*
X155428455Y-62686301D01*
X155593676Y-62636182D01*
X155722440Y-62623500D01*
X156697560Y-62623500D01*
X156826324Y-62636182D01*
X156826324Y-62636182D01*
G37*
G36*
X190870494Y-62681703D02*
X191025366Y-62745853D01*
X191164747Y-62838985D01*
X191283281Y-62957519D01*
X191376413Y-63096900D01*
X191440563Y-63251772D01*
X191473266Y-63416184D01*
X191473266Y-63583816D01*
X191440563Y-63748228D01*
X191376413Y-63903100D01*
X191283281Y-64042481D01*
X191164747Y-64161015D01*
X191025366Y-64254147D01*
X190870494Y-64318297D01*
X190706082Y-64351000D01*
X190538450Y-64351000D01*
X190374038Y-64318297D01*
X190219166Y-64254147D01*
X190079785Y-64161015D01*
X189961251Y-64042481D01*
X189868119Y-63903100D01*
X189803969Y-63748228D01*
X189771266Y-63583816D01*
X189771266Y-63416184D01*
X189803969Y-63251772D01*
X189868119Y-63096900D01*
X189961251Y-62957519D01*
X190079785Y-62838985D01*
X190219166Y-62745853D01*
X190374038Y-62681703D01*
X190538450Y-62649000D01*
X190706082Y-62649000D01*
X190870494Y-62681703D01*
X190870494Y-62681703D01*
G37*
G36*
X186393266Y-64351000D02*
X184691266Y-64351000D01*
X184691266Y-62649000D01*
X186393266Y-62649000D01*
X186393266Y-64351000D01*
X186393266Y-64351000D01*
G37*
G36*
X188330494Y-61536703D02*
X188485366Y-61600853D01*
X188624747Y-61693985D01*
X188743281Y-61812519D01*
X188836413Y-61951900D01*
X188900563Y-62106772D01*
X188933266Y-62271184D01*
X188933266Y-62438816D01*
X188900563Y-62603228D01*
X188836413Y-62758100D01*
X188743281Y-62897481D01*
X188624747Y-63016015D01*
X188485366Y-63109147D01*
X188330494Y-63173297D01*
X188166082Y-63206000D01*
X187998450Y-63206000D01*
X187834038Y-63173297D01*
X187679166Y-63109147D01*
X187539785Y-63016015D01*
X187421251Y-62897481D01*
X187328119Y-62758100D01*
X187263969Y-62603228D01*
X187231266Y-62438816D01*
X187231266Y-62271184D01*
X187263969Y-62106772D01*
X187328119Y-61951900D01*
X187421251Y-61812519D01*
X187539785Y-61693985D01*
X187679166Y-61600853D01*
X187834038Y-61536703D01*
X187998450Y-61504000D01*
X188166082Y-61504000D01*
X188330494Y-61536703D01*
X188330494Y-61536703D01*
G37*
G36*
X135236724Y-61366675D02*
X135401853Y-61416766D01*
X135462743Y-61449313D01*
X135554034Y-61498109D01*
X135687422Y-61607578D01*
X135796891Y-61740966D01*
X135814387Y-61773699D01*
X135878234Y-61893147D01*
X135928325Y-62058276D01*
X135945238Y-62230000D01*
X135928325Y-62401724D01*
X135878234Y-62566853D01*
X135858791Y-62603228D01*
X135796891Y-62719034D01*
X135687422Y-62852422D01*
X135554034Y-62961891D01*
X135483196Y-62999755D01*
X135401853Y-63043234D01*
X135236724Y-63093325D01*
X135108032Y-63106000D01*
X134131968Y-63106000D01*
X134003276Y-63093325D01*
X133838147Y-63043234D01*
X133756804Y-62999755D01*
X133685966Y-62961891D01*
X133552578Y-62852422D01*
X133443109Y-62719034D01*
X133381209Y-62603228D01*
X133361766Y-62566853D01*
X133311675Y-62401724D01*
X133294762Y-62230000D01*
X133311675Y-62058276D01*
X133361766Y-61893147D01*
X133425613Y-61773699D01*
X133443109Y-61740966D01*
X133552578Y-61607578D01*
X133685966Y-61498109D01*
X133777257Y-61449313D01*
X133838147Y-61416766D01*
X134003276Y-61366675D01*
X134131968Y-61354000D01*
X135108032Y-61354000D01*
X135236724Y-61366675D01*
X135236724Y-61366675D01*
G37*
G36*
X150476724Y-61366675D02*
X150641853Y-61416766D01*
X150702743Y-61449313D01*
X150794034Y-61498109D01*
X150927422Y-61607578D01*
X151036891Y-61740966D01*
X151054387Y-61773699D01*
X151118234Y-61893147D01*
X151168325Y-62058276D01*
X151185238Y-62230000D01*
X151168325Y-62401724D01*
X151118234Y-62566853D01*
X151098791Y-62603228D01*
X151036891Y-62719034D01*
X150927422Y-62852422D01*
X150794034Y-62961891D01*
X150723196Y-62999755D01*
X150641853Y-63043234D01*
X150476724Y-63093325D01*
X150348032Y-63106000D01*
X149371968Y-63106000D01*
X149243276Y-63093325D01*
X149078147Y-63043234D01*
X148996804Y-62999755D01*
X148925966Y-62961891D01*
X148792578Y-62852422D01*
X148683109Y-62719034D01*
X148621209Y-62603228D01*
X148601766Y-62566853D01*
X148551675Y-62401724D01*
X148534762Y-62230000D01*
X148551675Y-62058276D01*
X148601766Y-61893147D01*
X148665613Y-61773699D01*
X148683109Y-61740966D01*
X148792578Y-61607578D01*
X148925966Y-61498109D01*
X149017257Y-61449313D01*
X149078147Y-61416766D01*
X149243276Y-61366675D01*
X149371968Y-61354000D01*
X150348032Y-61354000D01*
X150476724Y-61366675D01*
X150476724Y-61366675D01*
G37*
G36*
X156826324Y-60096182D02*
X156991545Y-60146301D01*
X157143813Y-60227691D01*
X157277278Y-60337222D01*
X157386809Y-60470687D01*
X157468199Y-60622955D01*
X157518318Y-60788176D01*
X157535241Y-60960000D01*
X157518318Y-61131824D01*
X157468199Y-61297045D01*
X157386809Y-61449313D01*
X157277278Y-61582778D01*
X157143813Y-61692309D01*
X156991545Y-61773699D01*
X156826324Y-61823818D01*
X156697560Y-61836500D01*
X155722440Y-61836500D01*
X155593676Y-61823818D01*
X155428455Y-61773699D01*
X155276187Y-61692309D01*
X155142722Y-61582778D01*
X155033191Y-61449313D01*
X154951801Y-61297045D01*
X154901682Y-61131824D01*
X154884759Y-60960000D01*
X154901682Y-60788176D01*
X154951801Y-60622955D01*
X155033191Y-60470687D01*
X155142722Y-60337222D01*
X155276187Y-60227691D01*
X155428455Y-60146301D01*
X155593676Y-60096182D01*
X155722440Y-60083500D01*
X156697560Y-60083500D01*
X156826324Y-60096182D01*
X156826324Y-60096182D01*
G37*
G36*
X179686324Y-60096182D02*
X179851545Y-60146301D01*
X180003813Y-60227691D01*
X180137278Y-60337222D01*
X180246809Y-60470687D01*
X180328199Y-60622955D01*
X180378318Y-60788176D01*
X180395241Y-60960000D01*
X180378318Y-61131824D01*
X180328199Y-61297045D01*
X180246809Y-61449313D01*
X180137278Y-61582778D01*
X180003813Y-61692309D01*
X179851545Y-61773699D01*
X179686324Y-61823818D01*
X179557560Y-61836500D01*
X178582440Y-61836500D01*
X178453676Y-61823818D01*
X178288455Y-61773699D01*
X178136187Y-61692309D01*
X178002722Y-61582778D01*
X177893191Y-61449313D01*
X177811801Y-61297045D01*
X177761682Y-61131824D01*
X177744759Y-60960000D01*
X177761682Y-60788176D01*
X177811801Y-60622955D01*
X177893191Y-60470687D01*
X178002722Y-60337222D01*
X178136187Y-60227691D01*
X178288455Y-60146301D01*
X178453676Y-60096182D01*
X178582440Y-60083500D01*
X179557560Y-60083500D01*
X179686324Y-60096182D01*
X179686324Y-60096182D01*
G37*
G36*
X135236724Y-58826675D02*
X135401853Y-58876766D01*
X135462743Y-58909313D01*
X135554034Y-58958109D01*
X135687422Y-59067578D01*
X135796891Y-59200966D01*
X135814387Y-59233699D01*
X135878234Y-59353147D01*
X135928325Y-59518276D01*
X135945238Y-59690000D01*
X135928325Y-59861724D01*
X135878234Y-60026853D01*
X135847955Y-60083500D01*
X135796891Y-60179034D01*
X135687422Y-60312422D01*
X135554034Y-60421891D01*
X135483196Y-60459755D01*
X135401853Y-60503234D01*
X135236724Y-60553325D01*
X135108032Y-60566000D01*
X134131968Y-60566000D01*
X134003276Y-60553325D01*
X133838147Y-60503234D01*
X133756804Y-60459755D01*
X133685966Y-60421891D01*
X133552578Y-60312422D01*
X133443109Y-60179034D01*
X133392045Y-60083500D01*
X133361766Y-60026853D01*
X133311675Y-59861724D01*
X133294762Y-59690000D01*
X133311675Y-59518276D01*
X133361766Y-59353147D01*
X133425613Y-59233699D01*
X133443109Y-59200966D01*
X133552578Y-59067578D01*
X133685966Y-58958109D01*
X133777257Y-58909313D01*
X133838147Y-58876766D01*
X134003276Y-58826675D01*
X134131968Y-58814000D01*
X135108032Y-58814000D01*
X135236724Y-58826675D01*
X135236724Y-58826675D01*
G37*
G36*
X150476724Y-58826675D02*
X150641853Y-58876766D01*
X150702743Y-58909313D01*
X150794034Y-58958109D01*
X150927422Y-59067578D01*
X151036891Y-59200966D01*
X151054387Y-59233699D01*
X151118234Y-59353147D01*
X151168325Y-59518276D01*
X151185238Y-59690000D01*
X151168325Y-59861724D01*
X151118234Y-60026853D01*
X151087955Y-60083500D01*
X151036891Y-60179034D01*
X150927422Y-60312422D01*
X150794034Y-60421891D01*
X150723196Y-60459755D01*
X150641853Y-60503234D01*
X150476724Y-60553325D01*
X150348032Y-60566000D01*
X149371968Y-60566000D01*
X149243276Y-60553325D01*
X149078147Y-60503234D01*
X148996804Y-60459755D01*
X148925966Y-60421891D01*
X148792578Y-60312422D01*
X148683109Y-60179034D01*
X148632045Y-60083500D01*
X148601766Y-60026853D01*
X148551675Y-59861724D01*
X148534762Y-59690000D01*
X148551675Y-59518276D01*
X148601766Y-59353147D01*
X148665613Y-59233699D01*
X148683109Y-59200966D01*
X148792578Y-59067578D01*
X148925966Y-58958109D01*
X149017257Y-58909313D01*
X149078147Y-58876766D01*
X149243276Y-58826675D01*
X149371968Y-58814000D01*
X150348032Y-58814000D01*
X150476724Y-58826675D01*
X150476724Y-58826675D01*
G37*
G36*
X156826324Y-57556182D02*
X156991545Y-57606301D01*
X157143813Y-57687691D01*
X157277278Y-57797222D01*
X157386809Y-57930687D01*
X157468199Y-58082955D01*
X157518318Y-58248176D01*
X157535241Y-58420000D01*
X157518318Y-58591824D01*
X157468199Y-58757045D01*
X157386809Y-58909313D01*
X157277278Y-59042778D01*
X157143813Y-59152309D01*
X156991545Y-59233699D01*
X156826324Y-59283818D01*
X156697560Y-59296500D01*
X155722440Y-59296500D01*
X155593676Y-59283818D01*
X155428455Y-59233699D01*
X155276187Y-59152309D01*
X155142722Y-59042778D01*
X155033191Y-58909313D01*
X154951801Y-58757045D01*
X154901682Y-58591824D01*
X154884759Y-58420000D01*
X154901682Y-58248176D01*
X154951801Y-58082955D01*
X155033191Y-57930687D01*
X155142722Y-57797222D01*
X155276187Y-57687691D01*
X155428455Y-57606301D01*
X155593676Y-57556182D01*
X155722440Y-57543500D01*
X156697560Y-57543500D01*
X156826324Y-57556182D01*
X156826324Y-57556182D01*
G37*
G36*
X179686324Y-57556182D02*
X179851545Y-57606301D01*
X180003813Y-57687691D01*
X180137278Y-57797222D01*
X180246809Y-57930687D01*
X180328199Y-58082955D01*
X180378318Y-58248176D01*
X180395241Y-58420000D01*
X180378318Y-58591824D01*
X180328199Y-58757045D01*
X180246809Y-58909313D01*
X180137278Y-59042778D01*
X180003813Y-59152309D01*
X179851545Y-59233699D01*
X179686324Y-59283818D01*
X179557560Y-59296500D01*
X178582440Y-59296500D01*
X178453676Y-59283818D01*
X178288455Y-59233699D01*
X178136187Y-59152309D01*
X178002722Y-59042778D01*
X177893191Y-58909313D01*
X177811801Y-58757045D01*
X177761682Y-58591824D01*
X177744759Y-58420000D01*
X177761682Y-58248176D01*
X177811801Y-58082955D01*
X177893191Y-57930687D01*
X178002722Y-57797222D01*
X178136187Y-57687691D01*
X178288455Y-57606301D01*
X178453676Y-57556182D01*
X178582440Y-57543500D01*
X179557560Y-57543500D01*
X179686324Y-57556182D01*
X179686324Y-57556182D01*
G37*
G36*
X172598252Y-54027818D02*
X172598254Y-54027819D01*
X172598255Y-54027819D01*
X172971513Y-54182427D01*
X173270754Y-54382374D01*
X173307439Y-54406886D01*
X173593114Y-54692561D01*
X173593116Y-54692564D01*
X173817573Y-55028487D01*
X173962030Y-55377238D01*
X173972182Y-55401748D01*
X174051000Y-55797993D01*
X174051000Y-56202007D01*
X173977057Y-56573745D01*
X173972181Y-56598255D01*
X173817573Y-56971513D01*
X173609493Y-57282926D01*
X173593114Y-57307439D01*
X173307439Y-57593114D01*
X173307436Y-57593116D01*
X172971513Y-57817573D01*
X172598255Y-57972181D01*
X172598254Y-57972181D01*
X172598252Y-57972182D01*
X172202007Y-58051000D01*
X171797993Y-58051000D01*
X171401748Y-57972182D01*
X171401746Y-57972181D01*
X171401745Y-57972181D01*
X171028487Y-57817573D01*
X170692564Y-57593116D01*
X170692561Y-57593114D01*
X170406886Y-57307439D01*
X170390507Y-57282926D01*
X170182427Y-56971513D01*
X170027819Y-56598255D01*
X170022944Y-56573745D01*
X169949000Y-56202007D01*
X169949000Y-55797993D01*
X170027818Y-55401748D01*
X170037970Y-55377238D01*
X170182427Y-55028487D01*
X170406884Y-54692564D01*
X170406886Y-54692561D01*
X170692561Y-54406886D01*
X170729246Y-54382374D01*
X171028487Y-54182427D01*
X171401745Y-54027819D01*
X171401746Y-54027819D01*
X171401748Y-54027818D01*
X171797993Y-53949000D01*
X172202007Y-53949000D01*
X172598252Y-54027818D01*
X172598252Y-54027818D01*
G37*
G36*
X188612522Y-52655426D02*
X188875077Y-52707651D01*
X189369722Y-52912540D01*
X189505036Y-53002954D01*
X189814893Y-53209994D01*
X190193472Y-53588573D01*
X190193474Y-53588576D01*
X190490926Y-54033744D01*
X190645487Y-54406886D01*
X190695815Y-54528390D01*
X190795291Y-55028486D01*
X190800266Y-55053500D01*
X190800266Y-55588900D01*
X190695815Y-56114011D01*
X190603547Y-56336766D01*
X190495236Y-56598252D01*
X190490926Y-56608656D01*
X190264849Y-56947004D01*
X190193472Y-57053827D01*
X189814893Y-57432406D01*
X189814890Y-57432408D01*
X189369722Y-57729860D01*
X189369721Y-57729861D01*
X189369720Y-57729861D01*
X189224843Y-57789871D01*
X188875077Y-57934749D01*
X188731873Y-57963234D01*
X188349967Y-58039200D01*
X187814565Y-58039200D01*
X187432659Y-57963234D01*
X187289455Y-57934749D01*
X186939689Y-57789871D01*
X186794812Y-57729861D01*
X186794811Y-57729861D01*
X186794810Y-57729860D01*
X186349642Y-57432408D01*
X186349639Y-57432406D01*
X185971060Y-57053827D01*
X185899683Y-56947004D01*
X185673606Y-56608656D01*
X185669297Y-56598252D01*
X185560985Y-56336766D01*
X185468717Y-56114011D01*
X185364266Y-55588900D01*
X185364266Y-55053500D01*
X185369242Y-55028486D01*
X185468717Y-54528390D01*
X185519046Y-54406886D01*
X185673606Y-54033744D01*
X185971058Y-53588576D01*
X185971060Y-53588573D01*
X186349639Y-53209994D01*
X186659496Y-53002954D01*
X186794810Y-52912540D01*
X187289455Y-52707651D01*
X187552010Y-52655426D01*
X187814565Y-52603200D01*
X188349967Y-52603200D01*
X188612522Y-52655426D01*
X188612522Y-52655426D01*
G37*
G36*
X142598252Y-54003308D02*
X142598254Y-54003309D01*
X142598255Y-54003309D01*
X142971513Y-54157917D01*
X143059188Y-54216500D01*
X143307439Y-54382376D01*
X143593114Y-54668051D01*
X143593116Y-54668054D01*
X143817573Y-55003977D01*
X143972181Y-55377235D01*
X143972182Y-55377238D01*
X144051000Y-55773483D01*
X144051000Y-56177497D01*
X143981365Y-56527578D01*
X143972181Y-56573745D01*
X143817573Y-56947003D01*
X143817572Y-56947004D01*
X143593114Y-57282929D01*
X143307439Y-57568604D01*
X143307436Y-57568606D01*
X142971513Y-57793063D01*
X142598255Y-57947671D01*
X142598254Y-57947671D01*
X142598252Y-57947672D01*
X142202007Y-58026490D01*
X141797993Y-58026490D01*
X141401748Y-57947672D01*
X141401746Y-57947671D01*
X141401745Y-57947671D01*
X141028487Y-57793063D01*
X140692564Y-57568606D01*
X140692561Y-57568604D01*
X140406886Y-57282929D01*
X140182428Y-56947004D01*
X140182427Y-56947003D01*
X140027819Y-56573745D01*
X140018636Y-56527578D01*
X139949000Y-56177497D01*
X139949000Y-55773483D01*
X140027818Y-55377238D01*
X140027819Y-55377235D01*
X140182427Y-55003977D01*
X140406884Y-54668054D01*
X140406886Y-54668051D01*
X140692561Y-54382376D01*
X140940812Y-54216500D01*
X141028487Y-54157917D01*
X141401745Y-54003309D01*
X141401746Y-54003309D01*
X141401748Y-54003308D01*
X141797993Y-53924490D01*
X142202007Y-53924490D01*
X142598252Y-54003308D01*
X142598252Y-54003308D01*
G37*
G36*
X150476724Y-56286675D02*
X150641853Y-56336766D01*
X150723196Y-56380245D01*
X150794034Y-56418109D01*
X150927422Y-56527578D01*
X150993960Y-56608654D01*
X151036890Y-56660965D01*
X151118234Y-56813147D01*
X151168325Y-56978276D01*
X151185238Y-57150000D01*
X151168325Y-57321724D01*
X151118234Y-57486853D01*
X151087955Y-57543500D01*
X151036891Y-57639034D01*
X150927422Y-57772422D01*
X150794034Y-57881891D01*
X150723196Y-57919755D01*
X150641853Y-57963234D01*
X150476724Y-58013325D01*
X150348032Y-58026000D01*
X149371968Y-58026000D01*
X149243276Y-58013325D01*
X149078147Y-57963234D01*
X148996804Y-57919755D01*
X148925966Y-57881891D01*
X148792578Y-57772422D01*
X148683109Y-57639034D01*
X148632045Y-57543500D01*
X148601766Y-57486853D01*
X148551675Y-57321724D01*
X148534762Y-57150000D01*
X148551675Y-56978276D01*
X148601766Y-56813147D01*
X148683110Y-56660965D01*
X148726041Y-56608654D01*
X148792578Y-56527578D01*
X148925966Y-56418109D01*
X148996804Y-56380245D01*
X149078147Y-56336766D01*
X149243276Y-56286675D01*
X149371968Y-56274000D01*
X150348032Y-56274000D01*
X150476724Y-56286675D01*
X150476724Y-56286675D01*
G37*
G36*
X135236724Y-56286675D02*
X135401853Y-56336766D01*
X135483196Y-56380245D01*
X135554034Y-56418109D01*
X135687422Y-56527578D01*
X135753960Y-56608654D01*
X135796890Y-56660965D01*
X135878234Y-56813147D01*
X135928325Y-56978276D01*
X135945238Y-57150000D01*
X135928325Y-57321724D01*
X135878234Y-57486853D01*
X135847955Y-57543500D01*
X135796891Y-57639034D01*
X135687422Y-57772422D01*
X135554034Y-57881891D01*
X135483196Y-57919755D01*
X135401853Y-57963234D01*
X135236724Y-58013325D01*
X135108032Y-58026000D01*
X134131968Y-58026000D01*
X134003276Y-58013325D01*
X133838147Y-57963234D01*
X133756804Y-57919755D01*
X133685966Y-57881891D01*
X133552578Y-57772422D01*
X133443109Y-57639034D01*
X133392045Y-57543500D01*
X133361766Y-57486853D01*
X133311675Y-57321724D01*
X133294762Y-57150000D01*
X133311675Y-56978276D01*
X133361766Y-56813147D01*
X133443110Y-56660965D01*
X133486041Y-56608654D01*
X133552578Y-56527578D01*
X133685966Y-56418109D01*
X133756804Y-56380245D01*
X133838147Y-56336766D01*
X134003276Y-56286675D01*
X134131968Y-56274000D01*
X135108032Y-56274000D01*
X135236724Y-56286675D01*
X135236724Y-56286675D01*
G37*
G36*
X157531000Y-56756500D02*
X154889000Y-56756500D01*
X154889000Y-55003500D01*
X157531000Y-55003500D01*
X157531000Y-56756500D01*
X157531000Y-56756500D01*
G37*
G36*
X156394524Y-52476182D02*
X156559745Y-52526301D01*
X156712013Y-52607691D01*
X156845478Y-52717222D01*
X156955009Y-52850687D01*
X157036399Y-53002955D01*
X157086518Y-53168176D01*
X157103441Y-53340000D01*
X157086518Y-53511824D01*
X157036399Y-53677045D01*
X156955009Y-53829313D01*
X156845478Y-53962778D01*
X156712013Y-54072309D01*
X156559745Y-54153699D01*
X156394524Y-54203818D01*
X156265760Y-54216500D01*
X155735140Y-54216500D01*
X155606376Y-54203818D01*
X155441155Y-54153699D01*
X155288887Y-54072309D01*
X155155422Y-53962778D01*
X155045891Y-53829313D01*
X154964501Y-53677045D01*
X154914382Y-53511824D01*
X154897459Y-53340000D01*
X154914382Y-53168176D01*
X154964501Y-53002955D01*
X155045891Y-52850687D01*
X155155422Y-52717222D01*
X155288887Y-52607691D01*
X155441155Y-52526301D01*
X155606376Y-52476182D01*
X155735140Y-52463500D01*
X156265760Y-52463500D01*
X156394524Y-52476182D01*
X156394524Y-52476182D01*
G37*
G36*
X159353624Y-52476182D02*
X159518845Y-52526301D01*
X159671113Y-52607691D01*
X159804578Y-52717222D01*
X159914109Y-52850687D01*
X159995499Y-53002955D01*
X160045618Y-53168176D01*
X160062541Y-53340000D01*
X160045618Y-53511824D01*
X159995499Y-53677045D01*
X159914109Y-53829313D01*
X159804578Y-53962778D01*
X159671113Y-54072309D01*
X159518845Y-54153699D01*
X159353624Y-54203818D01*
X159224860Y-54216500D01*
X158694240Y-54216500D01*
X158565476Y-54203818D01*
X158400255Y-54153699D01*
X158247987Y-54072309D01*
X158114522Y-53962778D01*
X158004991Y-53829313D01*
X157923601Y-53677045D01*
X157873482Y-53511824D01*
X157856559Y-53340000D01*
X157873482Y-53168176D01*
X157923601Y-53002955D01*
X158004991Y-52850687D01*
X158114522Y-52717222D01*
X158247987Y-52607691D01*
X158400255Y-52526301D01*
X158565476Y-52476182D01*
X158694240Y-52463500D01*
X159224860Y-52463500D01*
X159353624Y-52476182D01*
X159353624Y-52476182D01*
G37*
M02*
