M48
;DRILL file {KiCad (5.0.1)-4} date 30.11.2018 00:07:36
;FORMAT={-:-/ absolute / inch / decimal}
FMAT,2
INCH,TZ
T1C0.0157
T2C0.0394
T3C0.0787
T4C0.0840
T5C0.1300
%
G90
G05
M72
T1
X5.775Y-3.2
X5.775Y-3.45
X5.925Y-3.9
X6.625Y-2.55
T2
X7.3048Y-3.9
X7.3048Y-3.9902
X7.3048Y-4.0803
X7.3048Y-4.1705
X7.3048Y-4.2606
X7.4048Y-3.8549
X7.4048Y-3.9451
X7.4048Y-4.0352
X7.4048Y-4.1254
X7.4048Y-4.2156
X7.5048Y-3.9
X7.5048Y-3.9902
X7.5048Y-4.0803
X7.5048Y-4.1705
X7.5048Y-4.2606
X5.3Y-2.25
X5.3Y-2.35
X5.3Y-2.45
X5.3Y-2.55
X5.3Y-2.65
X5.3Y-2.75
X5.3Y-2.85
X5.3Y-2.95
X5.3Y-3.05
X5.3Y-3.15
X5.3Y-3.25
X5.3Y-3.35
X5.3Y-3.45
X5.3Y-3.55
X5.3Y-3.65
X5.9Y-2.25
X5.9Y-2.35
X5.9Y-2.45
X5.9Y-2.55
X5.9Y-2.65
X5.9Y-2.75
X5.9Y-2.85
X5.9Y-2.95
X5.9Y-3.05
X5.9Y-3.15
X5.9Y-3.25
X5.9Y-3.35
X5.9Y-3.45
X5.9Y-3.55
X5.9Y-3.65
X7.3048Y-5.3
X7.3048Y-5.3902
X7.3048Y-5.4803
X7.3048Y-5.5705
X7.3048Y-5.6606
X7.4048Y-5.2549
X7.4048Y-5.3451
X7.4048Y-5.4352
X7.4048Y-5.5254
X7.4048Y-5.6156
X7.5048Y-5.3
X7.5048Y-5.3902
X7.5048Y-5.4803
X7.5048Y-5.5705
X7.5048Y-5.6606
X6.15Y-3.5
X6.15Y-3.6
X6.15Y-3.7
X6.15Y-3.8
X6.15Y-3.9
X6.15Y-4.
X6.15Y-4.1
X6.15Y-4.2
X6.15Y-4.3
X6.15Y-4.4
X6.15Y-4.5
X6.15Y-4.6
X6.25Y-3.5
X7.05Y-3.7
X7.05Y-3.8
X7.05Y-4.
X7.05Y-4.1
X7.05Y-4.2
X7.05Y-4.3
X6.15Y-2.1
X6.15Y-2.2
X6.15Y-2.3
X6.15Y-2.4
X6.15Y-2.5
X6.15Y-2.6
X6.15Y-2.7
X6.15Y-2.8
X6.15Y-2.9
X6.15Y-3.
X6.15Y-3.1
X6.15Y-3.2
X6.25Y-2.1
X7.05Y-2.3
X7.05Y-2.4
X7.05Y-2.6
X7.05Y-2.7
X7.05Y-2.8
X7.05Y-2.9
X6.15Y-4.9
X6.15Y-5.
X6.15Y-5.1
X6.15Y-5.2
X6.15Y-5.3
X6.15Y-5.4
X6.15Y-5.5
X6.15Y-5.6
X6.15Y-5.7
X6.15Y-5.8
X6.15Y-5.9
X6.15Y-6.
X6.25Y-4.9
X7.05Y-5.1
X7.05Y-5.2
X7.05Y-5.4
X7.05Y-5.5
X7.05Y-5.6
X7.05Y-5.7
X7.3048Y-2.5
X7.3048Y-2.5902
X7.3048Y-2.6803
X7.3048Y-2.7705
X7.3048Y-2.8606
X7.4048Y-2.4549
X7.4048Y-2.5451
X7.4048Y-2.6352
X7.4048Y-2.7254
X7.4048Y-2.8156
X7.5048Y-2.5
X7.5048Y-2.5902
X7.5048Y-2.6803
X7.5048Y-2.7705
X7.5048Y-2.8606
T3
X5.85Y-4.35
X5.85Y-4.025
T4
X5.3543Y-4.7638
X5.3937Y-5.9449
X5.5906Y-2.2038
X6.7717Y-2.2047
X7.1654Y-3.3858
X7.1654Y-4.7638
T5
X7.4048Y-3.578
X7.4048Y-4.5618
X7.4048Y-4.978
X7.4048Y-5.9618
X7.4048Y-2.178
X7.4048Y-3.1618
T0
M30
