G04 #@! TF.GenerationSoftware,KiCad,Pcbnew,(5.0.1)-4*
G04 #@! TF.CreationDate,2018-11-30T00:10:42+01:00*
G04 #@! TF.ProjectId,servos,736572766F732E6B696361645F706362,rev?*
G04 #@! TF.SameCoordinates,Original*
G04 #@! TF.FileFunction,Copper,L1,Top,Signal*
G04 #@! TF.FilePolarity,Positive*
%FSLAX46Y46*%
G04 Gerber Fmt 4.6, Leading zero omitted, Abs format (unit mm)*
G04 Created by KiCad (PCBNEW (5.0.1)-4) date 30.11.2018 00:10:42*
%MOMM*%
%LPD*%
G01*
G04 APERTURE LIST*
G04 #@! TA.AperFunction,NonConductor*
%ADD10C,0.300000*%
G04 #@! TD*
G04 #@! TA.AperFunction,ComponentPad*
%ADD11O,2.540000X1.651000*%
G04 #@! TD*
G04 #@! TA.AperFunction,ComponentPad*
%ADD12R,2.540000X1.651000*%
G04 #@! TD*
G04 #@! TA.AperFunction,ComponentPad*
%ADD13O,2.095500X1.651000*%
G04 #@! TD*
G04 #@! TA.AperFunction,ComponentPad*
%ADD14C,5.334000*%
G04 #@! TD*
G04 #@! TA.AperFunction,ComponentPad*
%ADD15C,1.600000*%
G04 #@! TD*
G04 #@! TA.AperFunction,ComponentPad*
%ADD16R,1.600000X1.600000*%
G04 #@! TD*
G04 #@! TA.AperFunction,ComponentPad*
%ADD17C,4.500880*%
G04 #@! TD*
G04 #@! TA.AperFunction,ComponentPad*
%ADD18O,2.540000X1.650000*%
G04 #@! TD*
G04 #@! TA.AperFunction,ViaPad*
%ADD19C,4.000000*%
G04 #@! TD*
G04 #@! TA.AperFunction,ViaPad*
%ADD20C,0.800000*%
G04 #@! TD*
G04 #@! TA.AperFunction,Conductor*
%ADD21C,0.304800*%
G04 #@! TD*
G04 #@! TA.AperFunction,Conductor*
%ADD22C,1.524000*%
G04 #@! TD*
G04 #@! TA.AperFunction,Conductor*
%ADD23C,0.635000*%
G04 #@! TD*
G04 #@! TA.AperFunction,Conductor*
%ADD24C,1.016000*%
G04 #@! TD*
G04 #@! TA.AperFunction,Conductor*
%ADD25C,0.254000*%
G04 #@! TD*
G04 APERTURE END LIST*
D10*
X139928809Y-109390000D02*
X139719285Y-109285238D01*
X139405000Y-109285238D01*
X139090714Y-109390000D01*
X138881190Y-109599523D01*
X138776428Y-109809047D01*
X138671666Y-110228095D01*
X138671666Y-110542380D01*
X138776428Y-110961428D01*
X138881190Y-111170952D01*
X139090714Y-111380476D01*
X139405000Y-111485238D01*
X139614523Y-111485238D01*
X139928809Y-111380476D01*
X140033571Y-111275714D01*
X140033571Y-110542380D01*
X139614523Y-110542380D01*
X140976428Y-111485238D02*
X140976428Y-109285238D01*
X142233571Y-111485238D01*
X142233571Y-109285238D01*
X143281190Y-111485238D02*
X143281190Y-109285238D01*
X143805000Y-109285238D01*
X144119285Y-109390000D01*
X144328809Y-109599523D01*
X144433571Y-109809047D01*
X144538333Y-110228095D01*
X144538333Y-110542380D01*
X144433571Y-110961428D01*
X144328809Y-111170952D01*
X144119285Y-111380476D01*
X143805000Y-111485238D01*
X143281190Y-111485238D01*
X136458809Y-102392142D02*
X138135000Y-102392142D01*
X137296904Y-103230238D02*
X137296904Y-101554047D01*
X140335000Y-103230238D02*
X139077857Y-103230238D01*
X139706428Y-103230238D02*
X139706428Y-101030238D01*
X139496904Y-101344523D01*
X139287380Y-101554047D01*
X139077857Y-101658809D01*
X141173095Y-101239761D02*
X141277857Y-101135000D01*
X141487380Y-101030238D01*
X142011190Y-101030238D01*
X142220714Y-101135000D01*
X142325476Y-101239761D01*
X142430238Y-101449285D01*
X142430238Y-101658809D01*
X142325476Y-101973095D01*
X141068333Y-103230238D01*
X142430238Y-103230238D01*
X143058809Y-101030238D02*
X143792142Y-103230238D01*
X144525476Y-101030238D01*
D11*
G04 #@! TO.P,U4,19*
G04 #@! TO.N,Net-(J3-Pad5)*
X179070000Y-144780000D03*
G04 #@! TO.P,U4,18*
G04 #@! TO.N,Net-(J3-Pad4)*
X179070000Y-142240000D03*
G04 #@! TO.P,U4,17*
G04 #@! TO.N,Net-(J3-Pad6)*
X179070000Y-139700000D03*
G04 #@! TO.P,U4,16*
G04 #@! TO.N,Net-(J3-Pad7)*
X179070000Y-137160000D03*
G04 #@! TO.P,U4,15*
G04 #@! TO.N,GND*
X179070000Y-132080000D03*
G04 #@! TO.P,U4,14*
G04 #@! TO.N,+12V*
X179070000Y-129540000D03*
G04 #@! TO.P,U4,13*
G04 #@! TO.N,Net-(U4-Pad13)*
X156210000Y-152400000D03*
G04 #@! TO.P,U4,12*
G04 #@! TO.N,Net-(U4-Pad12)*
X156210000Y-149860000D03*
G04 #@! TO.P,U4,11*
G04 #@! TO.N,Net-(U4-Pad11)*
X156210000Y-147320000D03*
G04 #@! TO.P,U4,10*
G04 #@! TO.N,Net-(U4-Pad10)*
X156210000Y-144780000D03*
G04 #@! TO.P,U4,9*
G04 #@! TO.N,CS3*
X156210000Y-142240000D03*
G04 #@! TO.P,U4,8*
G04 #@! TO.N,SCK*
X156210000Y-139700000D03*
G04 #@! TO.P,U4,7*
G04 #@! TO.N,MOSI*
X156210000Y-137160000D03*
G04 #@! TO.P,U4,6*
G04 #@! TO.N,MISO*
X156210000Y-134620000D03*
G04 #@! TO.P,U4,5*
G04 #@! TO.N,DIR3*
X156210000Y-132080000D03*
G04 #@! TO.P,U4,4*
G04 #@! TO.N,NXT3*
X156210000Y-129540000D03*
D12*
G04 #@! TO.P,U4,3*
G04 #@! TO.N,GND*
X156210000Y-127000000D03*
D13*
G04 #@! TO.P,U4,1*
G04 #@! TO.N,Net-(U4-Pad1)*
X158959550Y-124460000D03*
G04 #@! TO.P,U4,2*
G04 #@! TO.N,+3V3*
X156000450Y-124460000D03*
G04 #@! TD*
D14*
G04 #@! TO.P,J1,*
G04 #@! TO.N,*
X188082266Y-80309999D03*
X188082266Y-55321200D03*
D15*
G04 #@! TO.P,J1,15*
G04 #@! TO.N,GND*
X190622266Y-72660000D03*
G04 #@! TO.P,J1,14*
G04 #@! TO.N,Net-(J1-Pad14)*
X190622266Y-70370000D03*
G04 #@! TO.P,J1,13*
G04 #@! TO.N,+5V*
X190622266Y-68080000D03*
G04 #@! TO.P,J1,12*
G04 #@! TO.N,Net-(J1-Pad12)*
X190622266Y-65790000D03*
G04 #@! TO.P,J1,11*
G04 #@! TO.N,Net-(J1-Pad11)*
X190622266Y-63500000D03*
G04 #@! TO.P,J1,10*
G04 #@! TO.N,Net-(J1-Pad10)*
X188082266Y-71515000D03*
G04 #@! TO.P,J1,9*
G04 #@! TO.N,Net-(J1-Pad9)*
X188082266Y-69225000D03*
G04 #@! TO.P,J1,8*
G04 #@! TO.N,Net-(J1-Pad8)*
X188082266Y-66935000D03*
G04 #@! TO.P,J1,7*
G04 #@! TO.N,Net-(J1-Pad7)*
X188082266Y-64645000D03*
G04 #@! TO.P,J1,6*
G04 #@! TO.N,Net-(J1-Pad6)*
X188082266Y-62355000D03*
G04 #@! TO.P,J1,5*
G04 #@! TO.N,Net-(J1-Pad5)*
X185542266Y-72660000D03*
G04 #@! TO.P,J1,4*
G04 #@! TO.N,Net-(J1-Pad4)*
X185542266Y-70370000D03*
G04 #@! TO.P,J1,3*
G04 #@! TO.N,RLIMIT1*
X185542266Y-68080000D03*
G04 #@! TO.P,J1,2*
G04 #@! TO.N,FLIMIT1*
X185542266Y-65790000D03*
D16*
G04 #@! TO.P,J1,1*
G04 #@! TO.N,GND*
X185542266Y-63500000D03*
G04 #@! TD*
D13*
G04 #@! TO.P,U3,2*
G04 #@! TO.N,+3V3*
X156000450Y-88900000D03*
G04 #@! TO.P,U3,1*
G04 #@! TO.N,Net-(U3-Pad1)*
X158959550Y-88900000D03*
D12*
G04 #@! TO.P,U3,3*
G04 #@! TO.N,GND*
X156210000Y-91440000D03*
D11*
G04 #@! TO.P,U3,4*
G04 #@! TO.N,NXT2*
X156210000Y-93980000D03*
G04 #@! TO.P,U3,5*
G04 #@! TO.N,DIR2*
X156210000Y-96520000D03*
G04 #@! TO.P,U3,6*
G04 #@! TO.N,MISO*
X156210000Y-99060000D03*
G04 #@! TO.P,U3,7*
G04 #@! TO.N,MOSI*
X156210000Y-101600000D03*
G04 #@! TO.P,U3,8*
G04 #@! TO.N,SCK*
X156210000Y-104140000D03*
G04 #@! TO.P,U3,9*
G04 #@! TO.N,CS2*
X156210000Y-106680000D03*
G04 #@! TO.P,U3,10*
G04 #@! TO.N,Net-(U3-Pad10)*
X156210000Y-109220000D03*
G04 #@! TO.P,U3,11*
G04 #@! TO.N,Net-(U3-Pad11)*
X156210000Y-111760000D03*
G04 #@! TO.P,U3,12*
G04 #@! TO.N,Net-(U3-Pad12)*
X156210000Y-114300000D03*
G04 #@! TO.P,U3,13*
G04 #@! TO.N,Net-(U3-Pad13)*
X156210000Y-116840000D03*
G04 #@! TO.P,U3,14*
G04 #@! TO.N,+12V*
X179070000Y-93980000D03*
G04 #@! TO.P,U3,15*
G04 #@! TO.N,GND*
X179070000Y-96520000D03*
G04 #@! TO.P,U3,16*
G04 #@! TO.N,Net-(J2-Pad7)*
X179070000Y-101600000D03*
G04 #@! TO.P,U3,17*
G04 #@! TO.N,Net-(J2-Pad6)*
X179070000Y-104140000D03*
G04 #@! TO.P,U3,18*
G04 #@! TO.N,Net-(J2-Pad4)*
X179070000Y-106680000D03*
G04 #@! TO.P,U3,19*
G04 #@! TO.N,Net-(J2-Pad5)*
X179070000Y-109220000D03*
G04 #@! TD*
D17*
G04 #@! TO.P,U6,1*
G04 #@! TO.N,GND*
X148590000Y-110490000D03*
G04 #@! TD*
G04 #@! TO.P,U5,1*
G04 #@! TO.N,+12V*
X148590000Y-102235000D03*
G04 #@! TD*
D14*
G04 #@! TO.P,J3,*
G04 #@! TO.N,*
X188082266Y-151429999D03*
X188082266Y-126441200D03*
D15*
G04 #@! TO.P,J3,15*
G04 #@! TO.N,GND*
X190622266Y-143780000D03*
G04 #@! TO.P,J3,14*
G04 #@! TO.N,Net-(J3-Pad14)*
X190622266Y-141490000D03*
G04 #@! TO.P,J3,13*
G04 #@! TO.N,+5V*
X190622266Y-139200000D03*
G04 #@! TO.P,J3,12*
G04 #@! TO.N,Net-(J3-Pad12)*
X190622266Y-136910000D03*
G04 #@! TO.P,J3,11*
G04 #@! TO.N,Net-(J3-Pad11)*
X190622266Y-134620000D03*
G04 #@! TO.P,J3,10*
G04 #@! TO.N,Net-(J3-Pad10)*
X188082266Y-142635000D03*
G04 #@! TO.P,J3,9*
G04 #@! TO.N,Net-(J3-Pad9)*
X188082266Y-140345000D03*
G04 #@! TO.P,J3,8*
G04 #@! TO.N,Net-(J3-Pad8)*
X188082266Y-138055000D03*
G04 #@! TO.P,J3,7*
G04 #@! TO.N,Net-(J3-Pad7)*
X188082266Y-135765000D03*
G04 #@! TO.P,J3,6*
G04 #@! TO.N,Net-(J3-Pad6)*
X188082266Y-133475000D03*
G04 #@! TO.P,J3,5*
G04 #@! TO.N,Net-(J3-Pad5)*
X185542266Y-143780000D03*
G04 #@! TO.P,J3,4*
G04 #@! TO.N,Net-(J3-Pad4)*
X185542266Y-141490000D03*
G04 #@! TO.P,J3,3*
G04 #@! TO.N,RLIMIT3*
X185542266Y-139200000D03*
G04 #@! TO.P,J3,2*
G04 #@! TO.N,FLIMIT3*
X185542266Y-136910000D03*
D16*
G04 #@! TO.P,J3,1*
G04 #@! TO.N,GND*
X185542266Y-134620000D03*
G04 #@! TD*
D14*
G04 #@! TO.P,J2,*
G04 #@! TO.N,*
X188082266Y-115869999D03*
X188082266Y-90881200D03*
D15*
G04 #@! TO.P,J2,15*
G04 #@! TO.N,GND*
X190622266Y-108220000D03*
G04 #@! TO.P,J2,14*
G04 #@! TO.N,Net-(J2-Pad14)*
X190622266Y-105930000D03*
G04 #@! TO.P,J2,13*
G04 #@! TO.N,+5V*
X190622266Y-103640000D03*
G04 #@! TO.P,J2,12*
G04 #@! TO.N,Net-(J2-Pad12)*
X190622266Y-101350000D03*
G04 #@! TO.P,J2,11*
G04 #@! TO.N,Net-(J2-Pad11)*
X190622266Y-99060000D03*
G04 #@! TO.P,J2,10*
G04 #@! TO.N,Net-(J2-Pad10)*
X188082266Y-107075000D03*
G04 #@! TO.P,J2,9*
G04 #@! TO.N,Net-(J2-Pad9)*
X188082266Y-104785000D03*
G04 #@! TO.P,J2,8*
G04 #@! TO.N,Net-(J2-Pad8)*
X188082266Y-102495000D03*
G04 #@! TO.P,J2,7*
G04 #@! TO.N,Net-(J2-Pad7)*
X188082266Y-100205000D03*
G04 #@! TO.P,J2,6*
G04 #@! TO.N,Net-(J2-Pad6)*
X188082266Y-97915000D03*
G04 #@! TO.P,J2,5*
G04 #@! TO.N,Net-(J2-Pad5)*
X185542266Y-108220000D03*
G04 #@! TO.P,J2,4*
G04 #@! TO.N,Net-(J2-Pad4)*
X185542266Y-105930000D03*
G04 #@! TO.P,J2,3*
G04 #@! TO.N,RLIMIT2*
X185542266Y-103640000D03*
G04 #@! TO.P,J2,2*
G04 #@! TO.N,FLIMIT2*
X185542266Y-101350000D03*
D16*
G04 #@! TO.P,J2,1*
G04 #@! TO.N,GND*
X185542266Y-99060000D03*
G04 #@! TD*
D18*
G04 #@! TO.P,U1,1*
G04 #@! TO.N,NXT1*
X134620000Y-57150000D03*
G04 #@! TO.P,U1,2*
G04 #@! TO.N,NXT2*
X134620000Y-59690000D03*
G04 #@! TO.P,U1,3*
G04 #@! TO.N,Net-(U1-Pad3)*
X134620000Y-62230000D03*
G04 #@! TO.P,U1,4*
G04 #@! TO.N,Net-(U1-Pad4)*
X134620000Y-64770000D03*
G04 #@! TO.P,U1,5*
G04 #@! TO.N,DIR2*
X134620000Y-67310000D03*
G04 #@! TO.P,U1,6*
G04 #@! TO.N,CS2*
X134620000Y-69850000D03*
G04 #@! TO.P,U1,7*
G04 #@! TO.N,FLIMIT2*
X134620000Y-72390000D03*
G04 #@! TO.P,U1,8*
G04 #@! TO.N,RLIMIT2*
X134620000Y-74930000D03*
G04 #@! TO.P,U1,9*
G04 #@! TO.N,NXT3*
X134620000Y-77470000D03*
G04 #@! TO.P,U1,10*
G04 #@! TO.N,Net-(U1-Pad10)*
X134620000Y-80010000D03*
G04 #@! TO.P,U1,11*
G04 #@! TO.N,Net-(U1-Pad11)*
X134620000Y-82550000D03*
G04 #@! TO.P,U1,12*
G04 #@! TO.N,DIR3*
X134620000Y-85090000D03*
G04 #@! TO.P,U1,13*
G04 #@! TO.N,CS3*
X134620000Y-87630000D03*
G04 #@! TO.P,U1,14*
G04 #@! TO.N,FLIMIT3*
X134620000Y-90170000D03*
G04 #@! TO.P,U1,15*
G04 #@! TO.N,RLIMIT3*
X134620000Y-92710000D03*
G04 #@! TO.P,U1,16*
G04 #@! TO.N,Net-(U1-Pad16)*
X149860000Y-57150000D03*
G04 #@! TO.P,U1,17*
G04 #@! TO.N,GND*
X149860000Y-59690000D03*
G04 #@! TO.P,U1,18*
G04 #@! TO.N,RESET*
X149860000Y-62230000D03*
G04 #@! TO.P,U1,19*
G04 #@! TO.N,+5V*
X149860000Y-64770000D03*
G04 #@! TO.P,U1,20*
G04 #@! TO.N,Net-(U1-Pad20)*
X149860000Y-67310000D03*
G04 #@! TO.P,U1,21*
G04 #@! TO.N,MOSI*
X149860000Y-69850000D03*
G04 #@! TO.P,U1,22*
G04 #@! TO.N,MISO*
X149860000Y-72390000D03*
G04 #@! TO.P,U1,23*
G04 #@! TO.N,DIR1*
X149860000Y-74930000D03*
G04 #@! TO.P,U1,24*
G04 #@! TO.N,CS1*
X149860000Y-77470000D03*
G04 #@! TO.P,U1,25*
G04 #@! TO.N,FLIMIT1*
X149860000Y-80010000D03*
G04 #@! TO.P,U1,26*
G04 #@! TO.N,SCK*
X149860000Y-82550000D03*
G04 #@! TO.P,U1,27*
G04 #@! TO.N,RLIMIT1*
X149860000Y-85090000D03*
G04 #@! TO.P,U1,28*
G04 #@! TO.N,Net-(U1-Pad28)*
X149860000Y-87630000D03*
G04 #@! TO.P,U1,29*
G04 #@! TO.N,+3V3*
X149860000Y-90170000D03*
G04 #@! TO.P,U1,30*
G04 #@! TO.N,Net-(U1-Pad30)*
X149860000Y-92710000D03*
G04 #@! TD*
D13*
G04 #@! TO.P,U2,2*
G04 #@! TO.N,+3V3*
X156000450Y-53340000D03*
G04 #@! TO.P,U2,1*
G04 #@! TO.N,Net-(U2-Pad1)*
X158959550Y-53340000D03*
D12*
G04 #@! TO.P,U2,3*
G04 #@! TO.N,GND*
X156210000Y-55880000D03*
D11*
G04 #@! TO.P,U2,4*
G04 #@! TO.N,NXT1*
X156210000Y-58420000D03*
G04 #@! TO.P,U2,5*
G04 #@! TO.N,DIR1*
X156210000Y-60960000D03*
G04 #@! TO.P,U2,6*
G04 #@! TO.N,MISO*
X156210000Y-63500000D03*
G04 #@! TO.P,U2,7*
G04 #@! TO.N,MOSI*
X156210000Y-66040000D03*
G04 #@! TO.P,U2,8*
G04 #@! TO.N,SCK*
X156210000Y-68580000D03*
G04 #@! TO.P,U2,9*
G04 #@! TO.N,CS1*
X156210000Y-71120000D03*
G04 #@! TO.P,U2,10*
G04 #@! TO.N,Net-(U2-Pad10)*
X156210000Y-73660000D03*
G04 #@! TO.P,U2,11*
G04 #@! TO.N,Net-(U2-Pad11)*
X156210000Y-76200000D03*
G04 #@! TO.P,U2,12*
G04 #@! TO.N,RESET*
X156210000Y-78740000D03*
G04 #@! TO.P,U2,13*
G04 #@! TO.N,Net-(U2-Pad13)*
X156210000Y-81280000D03*
G04 #@! TO.P,U2,14*
G04 #@! TO.N,+12V*
X179070000Y-58420000D03*
G04 #@! TO.P,U2,15*
G04 #@! TO.N,GND*
X179070000Y-60960000D03*
G04 #@! TO.P,U2,16*
G04 #@! TO.N,Net-(J1-Pad7)*
X179070000Y-66040000D03*
G04 #@! TO.P,U2,17*
G04 #@! TO.N,Net-(J1-Pad6)*
X179070000Y-68580000D03*
G04 #@! TO.P,U2,18*
G04 #@! TO.N,Net-(J1-Pad4)*
X179070000Y-71120000D03*
G04 #@! TO.P,U2,19*
G04 #@! TO.N,Net-(J1-Pad5)*
X179070000Y-73660000D03*
G04 #@! TD*
D19*
G04 #@! TO.N,*
X182000000Y-86000000D03*
X172000000Y-56000000D03*
X182000000Y-121000000D03*
X136000000Y-121000000D03*
X137000000Y-151000000D03*
X142000000Y-55975490D03*
D20*
G04 #@! TO.N,+5V*
X168275000Y-64770000D03*
G04 #@! TO.N,+3V3*
X150495000Y-99060000D03*
G04 #@! TO.N,RLIMIT2*
X146685000Y-87630000D03*
G04 #@! TO.N,FLIMIT2*
X146685000Y-81280000D03*
G04 #@! TD*
D21*
G04 #@! TO.N,GND*
X156654500Y-55880000D02*
X156210000Y-55880000D01*
X156210000Y-91440000D02*
X155575000Y-91440000D01*
X154305000Y-90170000D02*
X154305000Y-88048316D01*
X155575000Y-91440000D02*
X154305000Y-90170000D01*
X154305000Y-88048316D02*
X159943818Y-82409498D01*
X159943818Y-82409498D02*
X159943818Y-59169318D01*
X159943818Y-59169318D02*
X156654500Y-55880000D01*
X186786767Y-72061363D02*
X187750404Y-73025000D01*
X186786767Y-65191363D02*
X186786767Y-72061363D01*
X185542266Y-63500000D02*
X185542266Y-63946862D01*
X185542266Y-63946862D02*
X186786767Y-65191363D01*
X189490896Y-72660000D02*
X190622266Y-72660000D01*
X187750404Y-73025000D02*
X189125896Y-73025000D01*
X189125896Y-73025000D02*
X189490896Y-72660000D01*
D22*
X179070000Y-61770306D02*
X179070000Y-60960000D01*
X180340000Y-96520000D02*
X182245000Y-94615000D01*
X182245000Y-94615000D02*
X182245000Y-92075000D01*
X182245000Y-92075000D02*
X175158390Y-84988390D01*
X175158390Y-84988390D02*
X175158390Y-65681916D01*
X179070000Y-96520000D02*
X180340000Y-96520000D01*
X175158390Y-65681916D02*
X179070000Y-61770306D01*
X182089390Y-129908267D02*
X179917657Y-132080000D01*
X179070000Y-96520000D02*
X178625500Y-96520000D01*
X178625500Y-96520000D02*
X175260000Y-99885500D01*
X175260000Y-99885500D02*
X175260000Y-120015000D01*
X175260000Y-120015000D02*
X182089390Y-126844390D01*
X179917657Y-132080000D02*
X179070000Y-132080000D01*
X182089390Y-126844390D02*
X182089390Y-129908267D01*
D21*
X155765500Y-127000000D02*
X156210000Y-127000000D01*
X156654500Y-91440000D02*
X159346908Y-94132408D01*
X156210000Y-91440000D02*
X156654500Y-91440000D01*
X159346908Y-94132408D02*
X159346908Y-118148092D01*
X159346908Y-118148092D02*
X154305000Y-123190000D01*
X154305000Y-123190000D02*
X154305000Y-125539500D01*
X154305000Y-125539500D02*
X155765500Y-127000000D01*
D23*
G04 #@! TO.N,+5V*
X192405000Y-61595000D02*
X189737990Y-58927990D01*
D21*
X168674999Y-64370001D02*
X168275000Y-64770000D01*
D23*
X189737990Y-58927990D02*
X186562990Y-58927990D01*
X186562990Y-58927990D02*
X184150000Y-56515000D01*
X176530000Y-56515000D02*
X168674999Y-64370001D01*
X184150000Y-56515000D02*
X176530000Y-56515000D01*
X192405000Y-66040000D02*
X192405000Y-61595000D01*
D21*
X192270000Y-103640000D02*
X190622266Y-103640000D01*
D23*
X192405000Y-66040000D02*
X192405000Y-103505000D01*
D21*
X192405000Y-103505000D02*
X192270000Y-103640000D01*
X191753636Y-139200000D02*
X190622266Y-139200000D01*
D23*
X192405000Y-103505000D02*
X192405000Y-138548636D01*
D21*
X192405000Y-138548636D02*
X191753636Y-139200000D01*
X192405000Y-67945000D02*
X192405000Y-66040000D01*
X190622266Y-68080000D02*
X192270000Y-68080000D01*
X192270000Y-68080000D02*
X192405000Y-67945000D01*
G04 #@! TO.N,+3V3*
X156210000Y-86995000D02*
X156210000Y-88900000D01*
X160540727Y-82664273D02*
X156210000Y-86995000D01*
X160540727Y-57315125D02*
X160540727Y-82664273D01*
X156210000Y-53340000D02*
X156565602Y-53340000D01*
X156565602Y-53340000D02*
X160540727Y-57315125D01*
X149415000Y-90170000D02*
X149860000Y-90170000D01*
X147955000Y-91630000D02*
X149415000Y-90170000D01*
X147955000Y-95250000D02*
X147955000Y-91630000D01*
X150495000Y-99060000D02*
X150495000Y-97790000D01*
X150495000Y-97790000D02*
X147955000Y-95250000D01*
X156210000Y-122555000D02*
X156210000Y-124460000D01*
X159943819Y-118821181D02*
X156210000Y-122555000D01*
X159943819Y-91902584D02*
X159943819Y-118821181D01*
X156210000Y-88900000D02*
X156941235Y-88900000D01*
X156941235Y-88900000D02*
X159943819Y-91902584D01*
G04 #@! TO.N,MISO*
X148889642Y-63500000D02*
X147320000Y-65069642D01*
X156210000Y-63500000D02*
X148889642Y-63500000D01*
X149415000Y-72390000D02*
X149860000Y-72390000D01*
X147320000Y-70295000D02*
X149415000Y-72390000D01*
X147320000Y-65069642D02*
X147320000Y-70295000D01*
X155765500Y-99060000D02*
X156210000Y-99060000D01*
X156654500Y-63500000D02*
X159346911Y-66192411D01*
X156210000Y-63500000D02*
X156654500Y-63500000D01*
X159346911Y-66192411D02*
X159346911Y-82162248D01*
X159346911Y-82162248D02*
X153670000Y-87839159D01*
X153670000Y-87839159D02*
X153670000Y-96964500D01*
X153670000Y-96964500D02*
X155765500Y-99060000D01*
X155765500Y-134620000D02*
X156210000Y-134620000D01*
X156654500Y-99060000D02*
X158749997Y-101155497D01*
X156210000Y-99060000D02*
X156654500Y-99060000D01*
X158749997Y-101155497D02*
X158749997Y-117475003D01*
X158749997Y-117475003D02*
X153670000Y-122555000D01*
X153670000Y-122555000D02*
X153670000Y-132524500D01*
X153670000Y-132524500D02*
X155765500Y-134620000D01*
G04 #@! TO.N,MOSI*
X150305000Y-69850000D02*
X154115000Y-66040000D01*
X149860000Y-69850000D02*
X150305000Y-69850000D01*
X154115000Y-66040000D02*
X156210000Y-66040000D01*
X156654500Y-66040000D02*
X156210000Y-66040000D01*
X158750000Y-68135500D02*
X156654500Y-66040000D01*
X158750000Y-81915000D02*
X158750000Y-68135500D01*
X153035000Y-87630000D02*
X158750000Y-81915000D01*
X156210000Y-101600000D02*
X153035000Y-98425000D01*
X153035000Y-98425000D02*
X153035000Y-87630000D01*
X155765500Y-137160000D02*
X156210000Y-137160000D01*
X153035000Y-107315000D02*
X153035000Y-134429500D01*
X156654500Y-101600000D02*
X158115000Y-103060500D01*
X156210000Y-101600000D02*
X156654500Y-101600000D01*
X158115000Y-103060500D02*
X158115000Y-104475565D01*
X158115000Y-104475565D02*
X157180565Y-105410000D01*
X153035000Y-134429500D02*
X155765500Y-137160000D01*
X157180565Y-105410000D02*
X154940000Y-105410000D01*
X154940000Y-105410000D02*
X153035000Y-107315000D01*
G04 #@! TO.N,SCK*
X155765500Y-139700000D02*
X156210000Y-139700000D01*
X152400000Y-136334500D02*
X155765500Y-139700000D01*
X152400000Y-106680000D02*
X152400000Y-136334500D01*
X156210000Y-104140000D02*
X154940000Y-104140000D01*
X154940000Y-104140000D02*
X152400000Y-106680000D01*
X155575000Y-104140000D02*
X156210000Y-104140000D01*
X152400000Y-100965000D02*
X155575000Y-104140000D01*
X152400000Y-84455000D02*
X152400000Y-100965000D01*
X149860000Y-82550000D02*
X150495000Y-82550000D01*
X150495000Y-82550000D02*
X152400000Y-84455000D01*
X153035000Y-80010000D02*
X150495000Y-82550000D01*
X153035000Y-71310500D02*
X153035000Y-80010000D01*
X156210000Y-68580000D02*
X155765500Y-68580000D01*
X155765500Y-68580000D02*
X153035000Y-71310500D01*
D22*
G04 #@! TO.N,+12V*
X179070000Y-127190500D02*
X179070000Y-129540000D01*
X172720000Y-120840500D02*
X179070000Y-127190500D01*
X176276000Y-93980000D02*
X172720000Y-93980000D01*
X179070000Y-93980000D02*
X176276000Y-93980000D01*
X172720000Y-65911150D02*
X172720000Y-93980000D01*
X172720000Y-93980000D02*
X172720000Y-120840500D01*
D24*
X172720000Y-65405000D02*
X172720000Y-65911150D01*
X175895000Y-62230000D02*
X172720000Y-65405000D01*
X175895000Y-61150500D02*
X175895000Y-62230000D01*
X179070000Y-58420000D02*
X178625500Y-58420000D01*
X178625500Y-58420000D02*
X175895000Y-61150500D01*
D21*
G04 #@! TO.N,Net-(J1-Pad7)*
X183515000Y-66375565D02*
X180975000Y-68915565D01*
X180975000Y-68915565D02*
X180040565Y-69850000D01*
X180040565Y-69850000D02*
X180040555Y-69850010D01*
X188082266Y-64645000D02*
X189326767Y-63400499D01*
X189326767Y-63400499D02*
X189326767Y-61056767D01*
D23*
X183515000Y-66609052D02*
X180975000Y-69149052D01*
X183515000Y-63500000D02*
X183515000Y-66609052D01*
D21*
X183515000Y-63500000D02*
X183515000Y-66375565D01*
D23*
X180975000Y-69149052D02*
X180949610Y-69149052D01*
X177165000Y-66675000D02*
X177165000Y-68915565D01*
X179070000Y-66040000D02*
X177800000Y-66040000D01*
X177800000Y-66040000D02*
X177165000Y-66675000D01*
D21*
X178099435Y-69850000D02*
X180040565Y-69850000D01*
X177165000Y-68915565D02*
X178099435Y-69850000D01*
D23*
X179070000Y-64135000D02*
X183515000Y-59690000D01*
X179070000Y-66040000D02*
X179070000Y-64135000D01*
D21*
X186786767Y-63349501D02*
X186786767Y-62344399D01*
X188082266Y-64645000D02*
X186786767Y-63349501D01*
X186697867Y-62255499D02*
X184386665Y-62255499D01*
X186786767Y-62344399D02*
X186697867Y-62255499D01*
X184386665Y-62255499D02*
X183515000Y-63127164D01*
X183515000Y-63127164D02*
X183515000Y-63500000D01*
X183515000Y-59690000D02*
X187960000Y-59690000D01*
X189326767Y-61056767D02*
X187960000Y-59690000D01*
G04 #@! TO.N,Net-(J1-Pad6)*
X179705000Y-68580000D02*
X179070000Y-68580000D01*
X181610000Y-66675000D02*
X179705000Y-68580000D01*
X181610000Y-63500000D02*
X181610000Y-66675000D01*
D24*
X181610000Y-66484500D02*
X181610000Y-63500000D01*
X179070000Y-68580000D02*
X179514500Y-68580000D01*
X179514500Y-68580000D02*
X181610000Y-66484500D01*
X184150000Y-60960000D02*
X186749420Y-60960000D01*
X188082266Y-62292846D02*
X188082266Y-62355000D01*
X186749420Y-60960000D02*
X188082266Y-62292846D01*
X181610000Y-63500000D02*
X184150000Y-60960000D01*
G04 #@! TO.N,Net-(J1-Pad4)*
X184265000Y-70370000D02*
X185542266Y-70370000D01*
X179070000Y-71120000D02*
X183515000Y-71120000D01*
X183515000Y-71120000D02*
X184265000Y-70370000D01*
G04 #@! TO.N,Net-(J1-Pad5)*
X184542266Y-73660000D02*
X185542266Y-72660000D01*
X179070000Y-73660000D02*
X184542266Y-73660000D01*
D21*
G04 #@! TO.N,Net-(J2-Pad7)*
X186786767Y-98909501D02*
X186786767Y-97886767D01*
X188082266Y-100205000D02*
X186786767Y-98909501D01*
X184227052Y-97790000D02*
X183515000Y-98502052D01*
X186786767Y-97886767D02*
X186690000Y-97790000D01*
X186690000Y-97790000D02*
X184227052Y-97790000D01*
X183515000Y-98502052D02*
X183515000Y-99060000D01*
D23*
X183515000Y-103561539D02*
X181666539Y-105410000D01*
X183515000Y-99060000D02*
X183515000Y-103561539D01*
X181666539Y-105410000D02*
X180340000Y-105410000D01*
X177190390Y-103035110D02*
X177190390Y-104800390D01*
X179070000Y-101600000D02*
X178625500Y-101600000D01*
X178625500Y-101600000D02*
X177190390Y-103035110D01*
X177190390Y-104800390D02*
X177800000Y-105410000D01*
X179070000Y-99729748D02*
X183549748Y-95250000D01*
X179070000Y-101600000D02*
X179070000Y-99729748D01*
X183549748Y-95250000D02*
X187960000Y-95250000D01*
X187960000Y-95250000D02*
X189230000Y-96520000D01*
X189230000Y-96520000D02*
X189230000Y-96976524D01*
D21*
X177800000Y-105410000D02*
X180340000Y-105410000D01*
X189326767Y-96616767D02*
X189230000Y-96520000D01*
X188082266Y-100205000D02*
X189326767Y-98960499D01*
X189326767Y-98960499D02*
X189326767Y-96616767D01*
D24*
G04 #@! TO.N,Net-(J2-Pad6)*
X181356000Y-104140000D02*
X182245000Y-103251000D01*
X188082266Y-97277266D02*
X188082266Y-97915000D01*
X179070000Y-104140000D02*
X181356000Y-104140000D01*
X182245000Y-103251000D02*
X182245000Y-98425000D01*
X182245000Y-98425000D02*
X184150000Y-96520000D01*
X184150000Y-96520000D02*
X187325000Y-96520000D01*
X187325000Y-96520000D02*
X188082266Y-97277266D01*
G04 #@! TO.N,Net-(J2-Pad4)*
X179070000Y-106680000D02*
X183515000Y-106680000D01*
X184265000Y-105930000D02*
X185542266Y-105930000D01*
X183515000Y-106680000D02*
X184265000Y-105930000D01*
G04 #@! TO.N,Net-(J2-Pad5)*
X185542266Y-108220000D02*
X184542266Y-109220000D01*
X184542266Y-109220000D02*
X179070000Y-109220000D01*
G04 #@! TO.N,Net-(J3-Pad5)*
X184542266Y-144780000D02*
X185542266Y-143780000D01*
X179070000Y-144780000D02*
X184542266Y-144780000D01*
G04 #@! TO.N,Net-(J3-Pad4)*
X184265000Y-141490000D02*
X185542266Y-141490000D01*
X179070000Y-142240000D02*
X183515000Y-142240000D01*
X183515000Y-142240000D02*
X184265000Y-141490000D01*
G04 #@! TO.N,Net-(J3-Pad6)*
X179514500Y-139700000D02*
X179070000Y-139700000D01*
X187183636Y-131445000D02*
X184072947Y-131445000D01*
X188082266Y-133475000D02*
X188082266Y-132343630D01*
X181356000Y-137858500D02*
X179514500Y-139700000D01*
X188082266Y-132343630D02*
X187183636Y-131445000D01*
X181356000Y-134161947D02*
X181356000Y-137858500D01*
X184072947Y-131445000D02*
X181356000Y-134161947D01*
D23*
G04 #@! TO.N,Net-(J3-Pad7)*
X177165000Y-137160000D02*
X176530000Y-137795000D01*
X179070000Y-137160000D02*
X177165000Y-137160000D01*
X176530000Y-137795000D02*
X176530000Y-140335000D01*
X176530000Y-140335000D02*
X177165000Y-140970000D01*
X177165000Y-140970000D02*
X177800000Y-140970000D01*
D21*
X189326767Y-133829289D02*
X189491867Y-133664189D01*
X188082266Y-135765000D02*
X189326767Y-134520499D01*
X189326767Y-134520499D02*
X189326767Y-133829289D01*
D23*
X183610017Y-130327390D02*
X188747390Y-130327390D01*
X189491867Y-132798391D02*
X189491867Y-133664189D01*
X179070000Y-137160000D02*
X179070000Y-134867407D01*
X189491867Y-131071867D02*
X189491867Y-132798391D01*
X188747390Y-130327390D02*
X189491867Y-131071867D01*
X179070000Y-134867407D02*
X183610017Y-130327390D01*
D21*
X180340000Y-140970000D02*
X177800000Y-140970000D01*
X188082266Y-135765000D02*
X186786767Y-134469501D01*
X186786767Y-134469501D02*
X186786767Y-133446767D01*
D23*
X182880000Y-134620000D02*
X182880000Y-138430000D01*
D21*
X182880000Y-138430000D02*
X181610000Y-139700000D01*
D23*
X186055000Y-132715000D02*
X184785000Y-132715000D01*
X184785000Y-132715000D02*
X182880000Y-134620000D01*
X180975000Y-140335000D02*
X182880000Y-138430000D01*
D21*
X180975000Y-140335000D02*
X180340000Y-140970000D01*
X181610000Y-139700000D02*
X180975000Y-140335000D01*
D23*
X186550399Y-133210399D02*
X186055000Y-132715000D01*
D21*
X186786767Y-133446767D02*
X186550399Y-133210399D01*
G04 #@! TO.N,NXT1*
X134620000Y-57150000D02*
X135065000Y-57150000D01*
G04 #@! TO.N,RLIMIT2*
X146685000Y-86550000D02*
X146685000Y-87630000D01*
X134620000Y-74930000D02*
X135065000Y-74930000D01*
X135065000Y-74930000D02*
X146685000Y-86550000D01*
G04 #@! TO.N,FLIMIT2*
X134620000Y-72390000D02*
X137795000Y-72390000D01*
X137795000Y-72390000D02*
X146685000Y-81280000D01*
G04 #@! TD*
D25*
G04 #@! TO.N,GND*
G36*
X196366201Y-155366200D02*
X132633800Y-155366200D01*
X132633800Y-150491023D01*
X134441200Y-150491023D01*
X134441200Y-151508977D01*
X134830754Y-152449444D01*
X135550556Y-153169246D01*
X136491023Y-153558800D01*
X137508977Y-153558800D01*
X138449444Y-153169246D01*
X139169246Y-152449444D01*
X139558800Y-151508977D01*
X139558800Y-150491023D01*
X139169246Y-149550556D01*
X138449444Y-148830754D01*
X137508977Y-148441200D01*
X136491023Y-148441200D01*
X135550556Y-148830754D01*
X134830754Y-149550556D01*
X134441200Y-150491023D01*
X132633800Y-150491023D01*
X132633800Y-120491023D01*
X133441200Y-120491023D01*
X133441200Y-121508977D01*
X133830754Y-122449444D01*
X134550556Y-123169246D01*
X135491023Y-123558800D01*
X136508977Y-123558800D01*
X137449444Y-123169246D01*
X138169246Y-122449444D01*
X138558800Y-121508977D01*
X138558800Y-120491023D01*
X138169246Y-119550556D01*
X137449444Y-118830754D01*
X136508977Y-118441200D01*
X135491023Y-118441200D01*
X134550556Y-118830754D01*
X133830754Y-119550556D01*
X133441200Y-120491023D01*
X132633800Y-120491023D01*
X132633800Y-108272200D01*
X137543819Y-108272200D01*
X137543819Y-112989800D01*
X145666181Y-112989800D01*
X145666181Y-112545786D01*
X146713819Y-112545786D01*
X146965111Y-112942533D01*
X148027342Y-113377664D01*
X149175233Y-113373173D01*
X150214889Y-112942533D01*
X150466181Y-112545786D01*
X148590000Y-110669605D01*
X146713819Y-112545786D01*
X145666181Y-112545786D01*
X145666181Y-109927342D01*
X145702336Y-109927342D01*
X145706827Y-111075233D01*
X146137467Y-112114889D01*
X146534214Y-112366181D01*
X148410395Y-110490000D01*
X148769605Y-110490000D01*
X150645786Y-112366181D01*
X151042533Y-112114889D01*
X151477664Y-111052658D01*
X151473173Y-109904767D01*
X151042533Y-108865111D01*
X150645786Y-108613819D01*
X148769605Y-110490000D01*
X148410395Y-110490000D01*
X146534214Y-108613819D01*
X146137467Y-108865111D01*
X145702336Y-109927342D01*
X145666181Y-109927342D01*
X145666181Y-108434214D01*
X146713819Y-108434214D01*
X148590000Y-110310395D01*
X150466181Y-108434214D01*
X150214889Y-108037467D01*
X149152658Y-107602336D01*
X148004767Y-107606827D01*
X146965111Y-108037467D01*
X146713819Y-108434214D01*
X145666181Y-108434214D01*
X145666181Y-108272200D01*
X137543819Y-108272200D01*
X132633800Y-108272200D01*
X132633800Y-100017200D01*
X135226200Y-100017200D01*
X135226200Y-104734800D01*
X145443800Y-104734800D01*
X145443800Y-101676207D01*
X145780760Y-101676207D01*
X145780760Y-102793793D01*
X146208442Y-103826306D01*
X146998694Y-104616558D01*
X148031207Y-105044240D01*
X149148793Y-105044240D01*
X150181306Y-104616558D01*
X150971558Y-103826306D01*
X151399240Y-102793793D01*
X151399240Y-101676207D01*
X150971558Y-100643694D01*
X150346664Y-100018800D01*
X150685717Y-100018800D01*
X151038117Y-99872831D01*
X151307831Y-99603117D01*
X151453800Y-99250717D01*
X151453800Y-98869283D01*
X151307831Y-98516883D01*
X151206200Y-98415252D01*
X151206200Y-97860041D01*
X151220132Y-97789999D01*
X151206200Y-97719957D01*
X151206200Y-97719954D01*
X151164936Y-97512504D01*
X151164935Y-97512502D01*
X151047424Y-97336635D01*
X151047422Y-97336633D01*
X151007746Y-97277254D01*
X150948367Y-97237578D01*
X148666200Y-94955412D01*
X148666200Y-93873950D01*
X148875068Y-94013511D01*
X149278709Y-94093800D01*
X150441291Y-94093800D01*
X150844932Y-94013511D01*
X151302664Y-93707664D01*
X151608511Y-93249932D01*
X151688801Y-92846289D01*
X151688801Y-100894954D01*
X151674868Y-100965000D01*
X151730065Y-101242496D01*
X151847576Y-101418364D01*
X151847579Y-101418367D01*
X151887255Y-101477746D01*
X151946634Y-101517422D01*
X154251711Y-103822500D01*
X151946634Y-106127578D01*
X151887254Y-106167255D01*
X151847578Y-106226634D01*
X151847576Y-106226636D01*
X151807710Y-106286300D01*
X151730064Y-106402505D01*
X151688800Y-106609955D01*
X151688800Y-106609959D01*
X151674868Y-106680000D01*
X151688800Y-106750041D01*
X151688801Y-136264454D01*
X151674868Y-136334500D01*
X151730065Y-136611996D01*
X151847576Y-136787864D01*
X151847579Y-136787867D01*
X151887255Y-136847246D01*
X151946634Y-136886922D01*
X154421379Y-139361667D01*
X154354080Y-139700000D01*
X154461518Y-140240127D01*
X154767475Y-140698025D01*
X155174515Y-140970000D01*
X154767475Y-141241975D01*
X154461518Y-141699873D01*
X154354080Y-142240000D01*
X154461518Y-142780127D01*
X154767475Y-143238025D01*
X155174515Y-143510000D01*
X154767475Y-143781975D01*
X154461518Y-144239873D01*
X154354080Y-144780000D01*
X154461518Y-145320127D01*
X154767475Y-145778025D01*
X155174515Y-146050000D01*
X154767475Y-146321975D01*
X154461518Y-146779873D01*
X154354080Y-147320000D01*
X154461518Y-147860127D01*
X154767475Y-148318025D01*
X155174515Y-148590000D01*
X154767475Y-148861975D01*
X154461518Y-149319873D01*
X154354080Y-149860000D01*
X154461518Y-150400127D01*
X154767475Y-150858025D01*
X155174515Y-151130000D01*
X154767475Y-151401975D01*
X154461518Y-151859873D01*
X154354080Y-152400000D01*
X154461518Y-152940127D01*
X154767475Y-153398025D01*
X155225373Y-153703982D01*
X155629159Y-153784300D01*
X156790841Y-153784300D01*
X157194627Y-153703982D01*
X157652525Y-153398025D01*
X157958482Y-152940127D01*
X158065920Y-152400000D01*
X157958482Y-151859873D01*
X157652525Y-151401975D01*
X157245485Y-151130000D01*
X157652525Y-150858025D01*
X157699081Y-150788348D01*
X184856466Y-150788348D01*
X184856466Y-152071650D01*
X185347565Y-153257268D01*
X186254997Y-154164700D01*
X187440615Y-154655799D01*
X188723917Y-154655799D01*
X189909535Y-154164700D01*
X190816967Y-153257268D01*
X191308066Y-152071650D01*
X191308066Y-150788348D01*
X190816967Y-149602730D01*
X189909535Y-148695298D01*
X188723917Y-148204199D01*
X187440615Y-148204199D01*
X186254997Y-148695298D01*
X185347565Y-149602730D01*
X184856466Y-150788348D01*
X157699081Y-150788348D01*
X157958482Y-150400127D01*
X158065920Y-149860000D01*
X157958482Y-149319873D01*
X157652525Y-148861975D01*
X157245485Y-148590000D01*
X157652525Y-148318025D01*
X157958482Y-147860127D01*
X158065920Y-147320000D01*
X157958482Y-146779873D01*
X157652525Y-146321975D01*
X157245485Y-146050000D01*
X157652525Y-145778025D01*
X157958482Y-145320127D01*
X158065920Y-144780000D01*
X157958482Y-144239873D01*
X157652525Y-143781975D01*
X157245485Y-143510000D01*
X157652525Y-143238025D01*
X157958482Y-142780127D01*
X158065920Y-142240000D01*
X157958482Y-141699873D01*
X157652525Y-141241975D01*
X157245485Y-140970000D01*
X157652525Y-140698025D01*
X157958482Y-140240127D01*
X158065920Y-139700000D01*
X157958482Y-139159873D01*
X157652525Y-138701975D01*
X157245485Y-138430000D01*
X157652525Y-138158025D01*
X157958482Y-137700127D01*
X158065920Y-137160000D01*
X157958482Y-136619873D01*
X157652525Y-136161975D01*
X157245485Y-135890000D01*
X157652525Y-135618025D01*
X157958482Y-135160127D01*
X158065920Y-134620000D01*
X157958482Y-134079873D01*
X157652525Y-133621975D01*
X157245485Y-133350000D01*
X157652525Y-133078025D01*
X157958482Y-132620127D01*
X157995695Y-132433044D01*
X177208312Y-132433044D01*
X177227573Y-132521577D01*
X177502968Y-133022927D01*
X177949258Y-133380725D01*
X178498500Y-133540500D01*
X178943000Y-133540500D01*
X178943000Y-132207000D01*
X177329960Y-132207000D01*
X177208312Y-132433044D01*
X157995695Y-132433044D01*
X158065920Y-132080000D01*
X157958482Y-131539873D01*
X157652525Y-131081975D01*
X157245485Y-130810000D01*
X157652525Y-130538025D01*
X157958482Y-130080127D01*
X158065920Y-129540000D01*
X157958482Y-128999873D01*
X157652525Y-128541975D01*
X157530589Y-128460500D01*
X157606309Y-128460500D01*
X157839698Y-128363827D01*
X158018327Y-128185199D01*
X158115000Y-127951810D01*
X158115000Y-127285750D01*
X157956250Y-127127000D01*
X156337000Y-127127000D01*
X156337000Y-127147000D01*
X156083000Y-127147000D01*
X156083000Y-127127000D01*
X156063000Y-127127000D01*
X156063000Y-126873000D01*
X156083000Y-126873000D01*
X156083000Y-126853000D01*
X156337000Y-126853000D01*
X156337000Y-126873000D01*
X157956250Y-126873000D01*
X158115000Y-126714250D01*
X158115000Y-126048190D01*
X158018327Y-125814801D01*
X157839698Y-125636173D01*
X157606309Y-125539500D01*
X157098789Y-125539500D01*
X157220725Y-125458025D01*
X157480000Y-125069992D01*
X157739275Y-125458025D01*
X158197173Y-125763982D01*
X158600959Y-125844300D01*
X159318141Y-125844300D01*
X159721927Y-125763982D01*
X160179825Y-125458025D01*
X160485782Y-125000127D01*
X160593220Y-124460000D01*
X160485782Y-123919873D01*
X160179825Y-123461975D01*
X159721927Y-123156018D01*
X159318141Y-123075700D01*
X158600959Y-123075700D01*
X158197173Y-123156018D01*
X157739275Y-123461975D01*
X157480000Y-123850008D01*
X157220725Y-123461975D01*
X156921200Y-123261839D01*
X156921200Y-122849588D01*
X160397186Y-119373603D01*
X160456565Y-119333927D01*
X160496241Y-119274548D01*
X160496243Y-119274546D01*
X160613754Y-119098679D01*
X160613754Y-119098678D01*
X160613755Y-119098677D01*
X160655019Y-118891227D01*
X160655019Y-118891224D01*
X160668951Y-118821182D01*
X160655019Y-118751140D01*
X160655019Y-91972625D01*
X160668951Y-91902583D01*
X160655019Y-91832542D01*
X160655019Y-91832538D01*
X160613755Y-91625088D01*
X160591051Y-91591110D01*
X160496243Y-91449219D01*
X160496239Y-91449215D01*
X160456564Y-91389838D01*
X160397188Y-91350164D01*
X159329136Y-90282113D01*
X159721927Y-90203982D01*
X160179825Y-89898025D01*
X160485782Y-89440127D01*
X160593220Y-88900000D01*
X160485782Y-88359873D01*
X160179825Y-87901975D01*
X159721927Y-87596018D01*
X159318141Y-87515700D01*
X158600959Y-87515700D01*
X158197173Y-87596018D01*
X157739275Y-87901975D01*
X157480000Y-88290008D01*
X157220725Y-87901975D01*
X156921200Y-87701839D01*
X156921200Y-87289588D01*
X160994094Y-83216695D01*
X161053473Y-83177019D01*
X161093149Y-83117640D01*
X161093151Y-83117638D01*
X161210662Y-82941770D01*
X161210663Y-82941769D01*
X161251927Y-82734319D01*
X161251927Y-82734315D01*
X161265859Y-82664273D01*
X161251927Y-82594231D01*
X161251927Y-64579283D01*
X167316200Y-64579283D01*
X167316200Y-64960717D01*
X167462169Y-65313117D01*
X167731883Y-65582831D01*
X168084283Y-65728800D01*
X168465717Y-65728800D01*
X168818117Y-65582831D01*
X169087831Y-65313117D01*
X169182358Y-65084910D01*
X169233610Y-65050664D01*
X176892975Y-57391300D01*
X177673383Y-57391300D01*
X177627475Y-57421975D01*
X177321518Y-57879873D01*
X177238231Y-58298587D01*
X175214953Y-60321865D01*
X175125881Y-60381381D01*
X174890097Y-60734257D01*
X174828200Y-61045435D01*
X174828200Y-61045439D01*
X174807302Y-61150500D01*
X174828200Y-61255561D01*
X174828200Y-61788117D01*
X172039953Y-64576365D01*
X171950881Y-64635881D01*
X171715097Y-64988757D01*
X171701230Y-65058470D01*
X171475834Y-65395800D01*
X171399200Y-65781064D01*
X171399201Y-93849908D01*
X171373324Y-93980000D01*
X171399200Y-94110087D01*
X171399201Y-120710408D01*
X171373324Y-120840500D01*
X171475834Y-121355850D01*
X171475835Y-121355851D01*
X171767757Y-121792744D01*
X171878039Y-121866432D01*
X177749200Y-127737593D01*
X177749201Y-128460641D01*
X177627475Y-128541975D01*
X177321518Y-128999873D01*
X177214080Y-129540000D01*
X177321518Y-130080127D01*
X177627475Y-130538025D01*
X177976620Y-130771315D01*
X177949258Y-130779275D01*
X177502968Y-131137073D01*
X177227573Y-131638423D01*
X177208312Y-131726956D01*
X177329960Y-131953000D01*
X178943000Y-131953000D01*
X178943000Y-131933000D01*
X179197000Y-131933000D01*
X179197000Y-131953000D01*
X179217000Y-131953000D01*
X179217000Y-132207000D01*
X179197000Y-132207000D01*
X179197000Y-133501133D01*
X178511392Y-134186741D01*
X178438224Y-134235630D01*
X178262097Y-134499224D01*
X178244545Y-134525492D01*
X178176533Y-134867407D01*
X178193701Y-134953715D01*
X178193701Y-135834470D01*
X178085373Y-135856018D01*
X177627475Y-136161975D01*
X177546141Y-136283700D01*
X177251304Y-136283700D01*
X177165000Y-136266533D01*
X177078696Y-136283700D01*
X176823085Y-136334544D01*
X176533223Y-136528223D01*
X176484335Y-136601389D01*
X175971393Y-137114332D01*
X175898223Y-137163223D01*
X175704544Y-137453086D01*
X175660851Y-137672746D01*
X175636533Y-137795000D01*
X175653700Y-137881304D01*
X175653701Y-140248692D01*
X175636533Y-140335000D01*
X175692285Y-140615282D01*
X175704545Y-140676915D01*
X175898224Y-140966777D01*
X175971391Y-141015666D01*
X176484335Y-141528611D01*
X176533223Y-141601777D01*
X176685912Y-141703800D01*
X176823085Y-141795456D01*
X177165000Y-141863467D01*
X177251304Y-141846300D01*
X177292392Y-141846300D01*
X177214080Y-142240000D01*
X177321518Y-142780127D01*
X177627475Y-143238025D01*
X178034515Y-143510000D01*
X177627475Y-143781975D01*
X177321518Y-144239873D01*
X177214080Y-144780000D01*
X177321518Y-145320127D01*
X177627475Y-145778025D01*
X178085373Y-146083982D01*
X178489159Y-146164300D01*
X179650841Y-146164300D01*
X180054627Y-146083982D01*
X180409596Y-145846800D01*
X184437205Y-145846800D01*
X184542266Y-145867698D01*
X184647327Y-145846800D01*
X184647332Y-145846800D01*
X184958510Y-145784903D01*
X185311385Y-145549119D01*
X185370901Y-145460047D01*
X185692148Y-145138800D01*
X185812548Y-145138800D01*
X186311964Y-144931935D01*
X186456154Y-144787745D01*
X189794127Y-144787745D01*
X189868261Y-145033864D01*
X190405489Y-145226965D01*
X190975720Y-145199778D01*
X191376271Y-145033864D01*
X191450405Y-144787745D01*
X190622266Y-143959605D01*
X189794127Y-144787745D01*
X186456154Y-144787745D01*
X186694201Y-144549698D01*
X186901066Y-144050282D01*
X186901066Y-143509718D01*
X186694201Y-143010302D01*
X186318899Y-142635000D01*
X186694201Y-142259698D01*
X186901066Y-141760282D01*
X186901066Y-141219718D01*
X186694201Y-140720302D01*
X186318899Y-140345000D01*
X186694201Y-139969698D01*
X186901066Y-139470282D01*
X186901066Y-138929718D01*
X186694201Y-138430302D01*
X186318899Y-138055000D01*
X186694201Y-137679698D01*
X186901066Y-137180282D01*
X186901066Y-136639718D01*
X186694201Y-136140302D01*
X186567799Y-136013900D01*
X186701965Y-135958327D01*
X186723466Y-135936826D01*
X186723466Y-136035282D01*
X186930331Y-136534698D01*
X187305633Y-136910000D01*
X186930331Y-137285302D01*
X186723466Y-137784718D01*
X186723466Y-138325282D01*
X186930331Y-138824698D01*
X187305633Y-139200000D01*
X186930331Y-139575302D01*
X186723466Y-140074718D01*
X186723466Y-140615282D01*
X186930331Y-141114698D01*
X187305633Y-141490000D01*
X186930331Y-141865302D01*
X186723466Y-142364718D01*
X186723466Y-142905282D01*
X186930331Y-143404698D01*
X187312568Y-143786935D01*
X187811984Y-143993800D01*
X188352548Y-143993800D01*
X188851964Y-143786935D01*
X189231204Y-143407695D01*
X189175301Y-143563223D01*
X189202488Y-144133454D01*
X189368402Y-144534005D01*
X189614521Y-144608139D01*
X190442661Y-143780000D01*
X190801871Y-143780000D01*
X191630011Y-144608139D01*
X191876130Y-144534005D01*
X192069231Y-143996777D01*
X192042044Y-143426546D01*
X191876130Y-143025995D01*
X191630011Y-142951861D01*
X190801871Y-143780000D01*
X190442661Y-143780000D01*
X189614521Y-142951861D01*
X189394296Y-143018196D01*
X189441066Y-142905282D01*
X189441066Y-142364718D01*
X189234201Y-141865302D01*
X188858899Y-141490000D01*
X189234201Y-141114698D01*
X189441066Y-140615282D01*
X189441066Y-140074718D01*
X189234201Y-139575302D01*
X188858899Y-139200000D01*
X189234201Y-138824698D01*
X189441066Y-138325282D01*
X189441066Y-137784718D01*
X189234201Y-137285302D01*
X188858899Y-136910000D01*
X189234201Y-136534698D01*
X189441066Y-136035282D01*
X189441066Y-135494718D01*
X189416835Y-135436220D01*
X189468288Y-135384766D01*
X189470331Y-135389698D01*
X189845633Y-135765000D01*
X189470331Y-136140302D01*
X189263466Y-136639718D01*
X189263466Y-137180282D01*
X189470331Y-137679698D01*
X189845633Y-138055000D01*
X189470331Y-138430302D01*
X189263466Y-138929718D01*
X189263466Y-139470282D01*
X189470331Y-139969698D01*
X189845633Y-140345000D01*
X189470331Y-140720302D01*
X189263466Y-141219718D01*
X189263466Y-141760282D01*
X189470331Y-142259698D01*
X189837822Y-142627189D01*
X189794127Y-142772255D01*
X190622266Y-143600395D01*
X191450405Y-142772255D01*
X191406710Y-142627189D01*
X191774201Y-142259698D01*
X191981066Y-141760282D01*
X191981066Y-141219718D01*
X191774201Y-140720302D01*
X191398899Y-140345000D01*
X191774201Y-139969698D01*
X191796165Y-139916673D01*
X191823677Y-139911200D01*
X191823682Y-139911200D01*
X192031132Y-139869936D01*
X192266382Y-139712746D01*
X192306060Y-139653364D01*
X192545211Y-139414213D01*
X192746915Y-139374092D01*
X193036777Y-139180413D01*
X193230456Y-138890551D01*
X193281300Y-138634940D01*
X193281300Y-61681304D01*
X193298467Y-61595000D01*
X193230456Y-61253085D01*
X193085664Y-61036388D01*
X193036777Y-60963223D01*
X192963611Y-60914335D01*
X190418658Y-58369384D01*
X190369767Y-58296213D01*
X190079905Y-58102534D01*
X189888749Y-58064511D01*
X189909535Y-58055901D01*
X190816967Y-57148469D01*
X191308066Y-55962851D01*
X191308066Y-54679549D01*
X190816967Y-53493931D01*
X189909535Y-52586499D01*
X188723917Y-52095400D01*
X187440615Y-52095400D01*
X186254997Y-52586499D01*
X185347565Y-53493931D01*
X184856466Y-54679549D01*
X184856466Y-55962851D01*
X184870142Y-55995868D01*
X184830668Y-55956394D01*
X184781777Y-55883223D01*
X184491915Y-55689544D01*
X184236304Y-55638700D01*
X184236303Y-55638700D01*
X184150000Y-55621533D01*
X184063697Y-55638700D01*
X176616303Y-55638700D01*
X176530000Y-55621533D01*
X176443697Y-55638700D01*
X176443696Y-55638700D01*
X176188085Y-55689544D01*
X175898223Y-55883223D01*
X175849334Y-55956391D01*
X167994336Y-63811390D01*
X167960090Y-63862642D01*
X167731883Y-63957169D01*
X167462169Y-64226883D01*
X167316200Y-64579283D01*
X161251927Y-64579283D01*
X161251927Y-57385167D01*
X161265859Y-57315125D01*
X161251927Y-57245083D01*
X161251927Y-57245079D01*
X161210663Y-57037629D01*
X161187959Y-57003651D01*
X161093151Y-56861760D01*
X161093147Y-56861756D01*
X161053472Y-56802379D01*
X160994096Y-56762705D01*
X159722414Y-55491023D01*
X169441200Y-55491023D01*
X169441200Y-56508977D01*
X169830754Y-57449444D01*
X170550556Y-58169246D01*
X171491023Y-58558800D01*
X172508977Y-58558800D01*
X173449444Y-58169246D01*
X174169246Y-57449444D01*
X174558800Y-56508977D01*
X174558800Y-55491023D01*
X174169246Y-54550556D01*
X173449444Y-53830754D01*
X172508977Y-53441200D01*
X171491023Y-53441200D01*
X170550556Y-53830754D01*
X169830754Y-54550556D01*
X169441200Y-55491023D01*
X159722414Y-55491023D01*
X158955690Y-54724300D01*
X159318141Y-54724300D01*
X159721927Y-54643982D01*
X160179825Y-54338025D01*
X160485782Y-53880127D01*
X160593220Y-53340000D01*
X160485782Y-52799873D01*
X160179825Y-52341975D01*
X159721927Y-52036018D01*
X159318141Y-51955700D01*
X158600959Y-51955700D01*
X158197173Y-52036018D01*
X157739275Y-52341975D01*
X157480000Y-52730008D01*
X157220725Y-52341975D01*
X156762827Y-52036018D01*
X156359041Y-51955700D01*
X155641859Y-51955700D01*
X155238073Y-52036018D01*
X154780175Y-52341975D01*
X154474218Y-52799873D01*
X154366780Y-53340000D01*
X154474218Y-53880127D01*
X154780175Y-54338025D01*
X154902111Y-54419500D01*
X154813691Y-54419500D01*
X154580302Y-54516173D01*
X154401673Y-54694801D01*
X154305000Y-54928190D01*
X154305000Y-55594250D01*
X154463750Y-55753000D01*
X156083000Y-55753000D01*
X156083000Y-55733000D01*
X156337000Y-55733000D01*
X156337000Y-55753000D01*
X156357000Y-55753000D01*
X156357000Y-56007000D01*
X156337000Y-56007000D01*
X156337000Y-56027000D01*
X156083000Y-56027000D01*
X156083000Y-56007000D01*
X154463750Y-56007000D01*
X154305000Y-56165750D01*
X154305000Y-56831810D01*
X154401673Y-57065199D01*
X154580302Y-57243827D01*
X154813691Y-57340500D01*
X154889411Y-57340500D01*
X154767475Y-57421975D01*
X154461518Y-57879873D01*
X154354080Y-58420000D01*
X154461518Y-58960127D01*
X154767475Y-59418025D01*
X155174515Y-59690000D01*
X154767475Y-59961975D01*
X154461518Y-60419873D01*
X154354080Y-60960000D01*
X154461518Y-61500127D01*
X154767475Y-61958025D01*
X155174515Y-62230000D01*
X154767475Y-62501975D01*
X154575825Y-62788800D01*
X151595904Y-62788800D01*
X151608511Y-62769932D01*
X151715910Y-62230000D01*
X151608511Y-61690068D01*
X151302664Y-61232336D01*
X150952714Y-60998507D01*
X150981051Y-60990263D01*
X151427179Y-60632573D01*
X151702465Y-60131385D01*
X151721692Y-60042965D01*
X151600038Y-59817000D01*
X149987000Y-59817000D01*
X149987000Y-59837000D01*
X149733000Y-59837000D01*
X149733000Y-59817000D01*
X148119962Y-59817000D01*
X147998308Y-60042965D01*
X148017535Y-60131385D01*
X148292821Y-60632573D01*
X148738949Y-60990263D01*
X148767286Y-60998507D01*
X148417336Y-61232336D01*
X148111489Y-61690068D01*
X148004090Y-62230000D01*
X148111489Y-62769932D01*
X148312735Y-63071118D01*
X146866634Y-64517220D01*
X146807254Y-64556897D01*
X146767578Y-64616276D01*
X146767576Y-64616278D01*
X146703673Y-64711916D01*
X146650064Y-64792147D01*
X146608800Y-64999597D01*
X146608800Y-64999601D01*
X146594868Y-65069642D01*
X146608800Y-65139684D01*
X146608801Y-70224954D01*
X146594868Y-70295000D01*
X146650065Y-70572496D01*
X146767576Y-70748364D01*
X146767579Y-70748367D01*
X146807255Y-70807746D01*
X146866634Y-70847422D01*
X148071304Y-72052092D01*
X148004090Y-72390000D01*
X148111489Y-72929932D01*
X148417336Y-73387664D01*
X148824915Y-73660000D01*
X148417336Y-73932336D01*
X148111489Y-74390068D01*
X148004090Y-74930000D01*
X148111489Y-75469932D01*
X148417336Y-75927664D01*
X148824915Y-76200000D01*
X148417336Y-76472336D01*
X148111489Y-76930068D01*
X148004090Y-77470000D01*
X148111489Y-78009932D01*
X148417336Y-78467664D01*
X148824915Y-78740000D01*
X148417336Y-79012336D01*
X148111489Y-79470068D01*
X148004090Y-80010000D01*
X148111489Y-80549932D01*
X148417336Y-81007664D01*
X148824915Y-81280000D01*
X148417336Y-81552336D01*
X148111489Y-82010068D01*
X148004090Y-82550000D01*
X148111489Y-83089932D01*
X148417336Y-83547664D01*
X148824915Y-83820000D01*
X148417336Y-84092336D01*
X148111489Y-84550068D01*
X148004090Y-85090000D01*
X148111489Y-85629932D01*
X148417336Y-86087664D01*
X148824915Y-86360000D01*
X148417336Y-86632336D01*
X148111489Y-87090068D01*
X148004090Y-87630000D01*
X148111489Y-88169932D01*
X148417336Y-88627664D01*
X148824915Y-88900000D01*
X148417336Y-89172336D01*
X148111489Y-89630068D01*
X148004090Y-90170000D01*
X148071304Y-90507908D01*
X147501634Y-91077578D01*
X147442255Y-91117254D01*
X147402579Y-91176633D01*
X147402576Y-91176636D01*
X147285065Y-91352504D01*
X147229868Y-91630000D01*
X147243801Y-91700046D01*
X147243800Y-95179958D01*
X147229868Y-95250000D01*
X147243800Y-95320041D01*
X147243800Y-95320045D01*
X147285064Y-95527495D01*
X147285065Y-95527496D01*
X147402576Y-95703364D01*
X147402578Y-95703366D01*
X147442254Y-95762745D01*
X147501634Y-95802422D01*
X149783801Y-98084590D01*
X149783801Y-98415251D01*
X149682169Y-98516883D01*
X149536200Y-98869283D01*
X149536200Y-99250717D01*
X149682169Y-99603117D01*
X149756557Y-99677505D01*
X149148793Y-99425760D01*
X148031207Y-99425760D01*
X146998694Y-99853442D01*
X146208442Y-100643694D01*
X145780760Y-101676207D01*
X145443800Y-101676207D01*
X145443800Y-100017200D01*
X135226200Y-100017200D01*
X132633800Y-100017200D01*
X132633800Y-57150000D01*
X132764090Y-57150000D01*
X132871489Y-57689932D01*
X133177336Y-58147664D01*
X133584915Y-58420000D01*
X133177336Y-58692336D01*
X132871489Y-59150068D01*
X132764090Y-59690000D01*
X132871489Y-60229932D01*
X133177336Y-60687664D01*
X133584915Y-60960000D01*
X133177336Y-61232336D01*
X132871489Y-61690068D01*
X132764090Y-62230000D01*
X132871489Y-62769932D01*
X133177336Y-63227664D01*
X133584915Y-63500000D01*
X133177336Y-63772336D01*
X132871489Y-64230068D01*
X132764090Y-64770000D01*
X132871489Y-65309932D01*
X133177336Y-65767664D01*
X133584915Y-66040000D01*
X133177336Y-66312336D01*
X132871489Y-66770068D01*
X132764090Y-67310000D01*
X132871489Y-67849932D01*
X133177336Y-68307664D01*
X133584915Y-68580000D01*
X133177336Y-68852336D01*
X132871489Y-69310068D01*
X132764090Y-69850000D01*
X132871489Y-70389932D01*
X133177336Y-70847664D01*
X133584915Y-71120000D01*
X133177336Y-71392336D01*
X132871489Y-71850068D01*
X132764090Y-72390000D01*
X132871489Y-72929932D01*
X133177336Y-73387664D01*
X133584915Y-73660000D01*
X133177336Y-73932336D01*
X132871489Y-74390068D01*
X132764090Y-74930000D01*
X132871489Y-75469932D01*
X133177336Y-75927664D01*
X133584915Y-76200000D01*
X133177336Y-76472336D01*
X132871489Y-76930068D01*
X132764090Y-77470000D01*
X132871489Y-78009932D01*
X133177336Y-78467664D01*
X133584915Y-78740000D01*
X133177336Y-79012336D01*
X132871489Y-79470068D01*
X132764090Y-80010000D01*
X132871489Y-80549932D01*
X133177336Y-81007664D01*
X133584915Y-81280000D01*
X133177336Y-81552336D01*
X132871489Y-82010068D01*
X132764090Y-82550000D01*
X132871489Y-83089932D01*
X133177336Y-83547664D01*
X133584915Y-83820000D01*
X133177336Y-84092336D01*
X132871489Y-84550068D01*
X132764090Y-85090000D01*
X132871489Y-85629932D01*
X133177336Y-86087664D01*
X133584915Y-86360000D01*
X133177336Y-86632336D01*
X132871489Y-87090068D01*
X132764090Y-87630000D01*
X132871489Y-88169932D01*
X133177336Y-88627664D01*
X133584915Y-88900000D01*
X133177336Y-89172336D01*
X132871489Y-89630068D01*
X132764090Y-90170000D01*
X132871489Y-90709932D01*
X133177336Y-91167664D01*
X133584915Y-91440000D01*
X133177336Y-91712336D01*
X132871489Y-92170068D01*
X132764090Y-92710000D01*
X132871489Y-93249932D01*
X133177336Y-93707664D01*
X133635068Y-94013511D01*
X134038709Y-94093800D01*
X135201291Y-94093800D01*
X135604932Y-94013511D01*
X136062664Y-93707664D01*
X136368511Y-93249932D01*
X136475910Y-92710000D01*
X136368511Y-92170068D01*
X136062664Y-91712336D01*
X135655085Y-91440000D01*
X136062664Y-91167664D01*
X136368511Y-90709932D01*
X136475910Y-90170000D01*
X136368511Y-89630068D01*
X136062664Y-89172336D01*
X135655085Y-88900000D01*
X136062664Y-88627664D01*
X136368511Y-88169932D01*
X136475910Y-87630000D01*
X136368511Y-87090068D01*
X136062664Y-86632336D01*
X135655085Y-86360000D01*
X136062664Y-86087664D01*
X136368511Y-85629932D01*
X136475910Y-85090000D01*
X136368511Y-84550068D01*
X136062664Y-84092336D01*
X135655085Y-83820000D01*
X136062664Y-83547664D01*
X136368511Y-83089932D01*
X136475910Y-82550000D01*
X136368511Y-82010068D01*
X136062664Y-81552336D01*
X135655085Y-81280000D01*
X136062664Y-81007664D01*
X136368511Y-80549932D01*
X136475910Y-80010000D01*
X136368511Y-79470068D01*
X136062664Y-79012336D01*
X135655085Y-78740000D01*
X136062664Y-78467664D01*
X136368511Y-78009932D01*
X136475910Y-77470000D01*
X136445294Y-77316082D01*
X145973800Y-86844589D01*
X145973800Y-86985252D01*
X145872169Y-87086883D01*
X145726200Y-87439283D01*
X145726200Y-87820717D01*
X145872169Y-88173117D01*
X146141883Y-88442831D01*
X146494283Y-88588800D01*
X146875717Y-88588800D01*
X147228117Y-88442831D01*
X147497831Y-88173117D01*
X147643800Y-87820717D01*
X147643800Y-87439283D01*
X147497831Y-87086883D01*
X147396200Y-86985252D01*
X147396200Y-86620042D01*
X147410132Y-86550000D01*
X147396200Y-86479958D01*
X147396200Y-86479954D01*
X147354936Y-86272504D01*
X147332232Y-86238526D01*
X147237424Y-86096635D01*
X147237420Y-86096631D01*
X147197745Y-86037254D01*
X147138369Y-85997580D01*
X136408696Y-75267908D01*
X136475910Y-74930000D01*
X136368511Y-74390068D01*
X136062664Y-73932336D01*
X135655085Y-73660000D01*
X136062664Y-73387664D01*
X136254073Y-73101200D01*
X137500412Y-73101200D01*
X145726200Y-81326989D01*
X145726200Y-81470717D01*
X145872169Y-81823117D01*
X146141883Y-82092831D01*
X146494283Y-82238800D01*
X146875717Y-82238800D01*
X147228117Y-82092831D01*
X147497831Y-81823117D01*
X147643800Y-81470717D01*
X147643800Y-81089283D01*
X147497831Y-80736883D01*
X147228117Y-80467169D01*
X146875717Y-80321200D01*
X146731989Y-80321200D01*
X138347423Y-71936635D01*
X138307746Y-71877254D01*
X138072496Y-71720064D01*
X137865046Y-71678800D01*
X137865041Y-71678800D01*
X137795000Y-71664868D01*
X137724959Y-71678800D01*
X136254073Y-71678800D01*
X136062664Y-71392336D01*
X135655085Y-71120000D01*
X136062664Y-70847664D01*
X136368511Y-70389932D01*
X136475910Y-69850000D01*
X136368511Y-69310068D01*
X136062664Y-68852336D01*
X135655085Y-68580000D01*
X136062664Y-68307664D01*
X136368511Y-67849932D01*
X136475910Y-67310000D01*
X136368511Y-66770068D01*
X136062664Y-66312336D01*
X135655085Y-66040000D01*
X136062664Y-65767664D01*
X136368511Y-65309932D01*
X136475910Y-64770000D01*
X136368511Y-64230068D01*
X136062664Y-63772336D01*
X135655085Y-63500000D01*
X136062664Y-63227664D01*
X136368511Y-62769932D01*
X136475910Y-62230000D01*
X136368511Y-61690068D01*
X136062664Y-61232336D01*
X135655085Y-60960000D01*
X136062664Y-60687664D01*
X136368511Y-60229932D01*
X136475910Y-59690000D01*
X136405701Y-59337035D01*
X147998308Y-59337035D01*
X148119962Y-59563000D01*
X149733000Y-59563000D01*
X149733000Y-59543000D01*
X149987000Y-59543000D01*
X149987000Y-59563000D01*
X151600038Y-59563000D01*
X151721692Y-59337035D01*
X151702465Y-59248615D01*
X151427179Y-58747427D01*
X150981051Y-58389737D01*
X150952714Y-58381493D01*
X151302664Y-58147664D01*
X151608511Y-57689932D01*
X151715910Y-57150000D01*
X151608511Y-56610068D01*
X151302664Y-56152336D01*
X150844932Y-55846489D01*
X150441291Y-55766200D01*
X149278709Y-55766200D01*
X148875068Y-55846489D01*
X148417336Y-56152336D01*
X148111489Y-56610068D01*
X148004090Y-57150000D01*
X148111489Y-57689932D01*
X148417336Y-58147664D01*
X148767286Y-58381493D01*
X148738949Y-58389737D01*
X148292821Y-58747427D01*
X148017535Y-59248615D01*
X147998308Y-59337035D01*
X136405701Y-59337035D01*
X136368511Y-59150068D01*
X136062664Y-58692336D01*
X135655085Y-58420000D01*
X136062664Y-58147664D01*
X136368511Y-57689932D01*
X136475910Y-57150000D01*
X136368511Y-56610068D01*
X136062664Y-56152336D01*
X135604932Y-55846489D01*
X135201291Y-55766200D01*
X134038709Y-55766200D01*
X133635068Y-55846489D01*
X133177336Y-56152336D01*
X132871489Y-56610068D01*
X132764090Y-57150000D01*
X132633800Y-57150000D01*
X132633800Y-55466513D01*
X139441200Y-55466513D01*
X139441200Y-56484467D01*
X139830754Y-57424934D01*
X140550556Y-58144736D01*
X141491023Y-58534290D01*
X142508977Y-58534290D01*
X143449444Y-58144736D01*
X144169246Y-57424934D01*
X144558800Y-56484467D01*
X144558800Y-55466513D01*
X144169246Y-54526046D01*
X143449444Y-53806244D01*
X142508977Y-53416690D01*
X141491023Y-53416690D01*
X140550556Y-53806244D01*
X139830754Y-54526046D01*
X139441200Y-55466513D01*
X132633800Y-55466513D01*
X132633800Y-51633800D01*
X196366200Y-51633800D01*
X196366201Y-155366200D01*
X196366201Y-155366200D01*
G37*
X196366201Y-155366200D02*
X132633800Y-155366200D01*
X132633800Y-150491023D01*
X134441200Y-150491023D01*
X134441200Y-151508977D01*
X134830754Y-152449444D01*
X135550556Y-153169246D01*
X136491023Y-153558800D01*
X137508977Y-153558800D01*
X138449444Y-153169246D01*
X139169246Y-152449444D01*
X139558800Y-151508977D01*
X139558800Y-150491023D01*
X139169246Y-149550556D01*
X138449444Y-148830754D01*
X137508977Y-148441200D01*
X136491023Y-148441200D01*
X135550556Y-148830754D01*
X134830754Y-149550556D01*
X134441200Y-150491023D01*
X132633800Y-150491023D01*
X132633800Y-120491023D01*
X133441200Y-120491023D01*
X133441200Y-121508977D01*
X133830754Y-122449444D01*
X134550556Y-123169246D01*
X135491023Y-123558800D01*
X136508977Y-123558800D01*
X137449444Y-123169246D01*
X138169246Y-122449444D01*
X138558800Y-121508977D01*
X138558800Y-120491023D01*
X138169246Y-119550556D01*
X137449444Y-118830754D01*
X136508977Y-118441200D01*
X135491023Y-118441200D01*
X134550556Y-118830754D01*
X133830754Y-119550556D01*
X133441200Y-120491023D01*
X132633800Y-120491023D01*
X132633800Y-108272200D01*
X137543819Y-108272200D01*
X137543819Y-112989800D01*
X145666181Y-112989800D01*
X145666181Y-112545786D01*
X146713819Y-112545786D01*
X146965111Y-112942533D01*
X148027342Y-113377664D01*
X149175233Y-113373173D01*
X150214889Y-112942533D01*
X150466181Y-112545786D01*
X148590000Y-110669605D01*
X146713819Y-112545786D01*
X145666181Y-112545786D01*
X145666181Y-109927342D01*
X145702336Y-109927342D01*
X145706827Y-111075233D01*
X146137467Y-112114889D01*
X146534214Y-112366181D01*
X148410395Y-110490000D01*
X148769605Y-110490000D01*
X150645786Y-112366181D01*
X151042533Y-112114889D01*
X151477664Y-111052658D01*
X151473173Y-109904767D01*
X151042533Y-108865111D01*
X150645786Y-108613819D01*
X148769605Y-110490000D01*
X148410395Y-110490000D01*
X146534214Y-108613819D01*
X146137467Y-108865111D01*
X145702336Y-109927342D01*
X145666181Y-109927342D01*
X145666181Y-108434214D01*
X146713819Y-108434214D01*
X148590000Y-110310395D01*
X150466181Y-108434214D01*
X150214889Y-108037467D01*
X149152658Y-107602336D01*
X148004767Y-107606827D01*
X146965111Y-108037467D01*
X146713819Y-108434214D01*
X145666181Y-108434214D01*
X145666181Y-108272200D01*
X137543819Y-108272200D01*
X132633800Y-108272200D01*
X132633800Y-100017200D01*
X135226200Y-100017200D01*
X135226200Y-104734800D01*
X145443800Y-104734800D01*
X145443800Y-101676207D01*
X145780760Y-101676207D01*
X145780760Y-102793793D01*
X146208442Y-103826306D01*
X146998694Y-104616558D01*
X148031207Y-105044240D01*
X149148793Y-105044240D01*
X150181306Y-104616558D01*
X150971558Y-103826306D01*
X151399240Y-102793793D01*
X151399240Y-101676207D01*
X150971558Y-100643694D01*
X150346664Y-100018800D01*
X150685717Y-100018800D01*
X151038117Y-99872831D01*
X151307831Y-99603117D01*
X151453800Y-99250717D01*
X151453800Y-98869283D01*
X151307831Y-98516883D01*
X151206200Y-98415252D01*
X151206200Y-97860041D01*
X151220132Y-97789999D01*
X151206200Y-97719957D01*
X151206200Y-97719954D01*
X151164936Y-97512504D01*
X151164935Y-97512502D01*
X151047424Y-97336635D01*
X151047422Y-97336633D01*
X151007746Y-97277254D01*
X150948367Y-97237578D01*
X148666200Y-94955412D01*
X148666200Y-93873950D01*
X148875068Y-94013511D01*
X149278709Y-94093800D01*
X150441291Y-94093800D01*
X150844932Y-94013511D01*
X151302664Y-93707664D01*
X151608511Y-93249932D01*
X151688801Y-92846289D01*
X151688801Y-100894954D01*
X151674868Y-100965000D01*
X151730065Y-101242496D01*
X151847576Y-101418364D01*
X151847579Y-101418367D01*
X151887255Y-101477746D01*
X151946634Y-101517422D01*
X154251711Y-103822500D01*
X151946634Y-106127578D01*
X151887254Y-106167255D01*
X151847578Y-106226634D01*
X151847576Y-106226636D01*
X151807710Y-106286300D01*
X151730064Y-106402505D01*
X151688800Y-106609955D01*
X151688800Y-106609959D01*
X151674868Y-106680000D01*
X151688800Y-106750041D01*
X151688801Y-136264454D01*
X151674868Y-136334500D01*
X151730065Y-136611996D01*
X151847576Y-136787864D01*
X151847579Y-136787867D01*
X151887255Y-136847246D01*
X151946634Y-136886922D01*
X154421379Y-139361667D01*
X154354080Y-139700000D01*
X154461518Y-140240127D01*
X154767475Y-140698025D01*
X155174515Y-140970000D01*
X154767475Y-141241975D01*
X154461518Y-141699873D01*
X154354080Y-142240000D01*
X154461518Y-142780127D01*
X154767475Y-143238025D01*
X155174515Y-143510000D01*
X154767475Y-143781975D01*
X154461518Y-144239873D01*
X154354080Y-144780000D01*
X154461518Y-145320127D01*
X154767475Y-145778025D01*
X155174515Y-146050000D01*
X154767475Y-146321975D01*
X154461518Y-146779873D01*
X154354080Y-147320000D01*
X154461518Y-147860127D01*
X154767475Y-148318025D01*
X155174515Y-148590000D01*
X154767475Y-148861975D01*
X154461518Y-149319873D01*
X154354080Y-149860000D01*
X154461518Y-150400127D01*
X154767475Y-150858025D01*
X155174515Y-151130000D01*
X154767475Y-151401975D01*
X154461518Y-151859873D01*
X154354080Y-152400000D01*
X154461518Y-152940127D01*
X154767475Y-153398025D01*
X155225373Y-153703982D01*
X155629159Y-153784300D01*
X156790841Y-153784300D01*
X157194627Y-153703982D01*
X157652525Y-153398025D01*
X157958482Y-152940127D01*
X158065920Y-152400000D01*
X157958482Y-151859873D01*
X157652525Y-151401975D01*
X157245485Y-151130000D01*
X157652525Y-150858025D01*
X157699081Y-150788348D01*
X184856466Y-150788348D01*
X184856466Y-152071650D01*
X185347565Y-153257268D01*
X186254997Y-154164700D01*
X187440615Y-154655799D01*
X188723917Y-154655799D01*
X189909535Y-154164700D01*
X190816967Y-153257268D01*
X191308066Y-152071650D01*
X191308066Y-150788348D01*
X190816967Y-149602730D01*
X189909535Y-148695298D01*
X188723917Y-148204199D01*
X187440615Y-148204199D01*
X186254997Y-148695298D01*
X185347565Y-149602730D01*
X184856466Y-150788348D01*
X157699081Y-150788348D01*
X157958482Y-150400127D01*
X158065920Y-149860000D01*
X157958482Y-149319873D01*
X157652525Y-148861975D01*
X157245485Y-148590000D01*
X157652525Y-148318025D01*
X157958482Y-147860127D01*
X158065920Y-147320000D01*
X157958482Y-146779873D01*
X157652525Y-146321975D01*
X157245485Y-146050000D01*
X157652525Y-145778025D01*
X157958482Y-145320127D01*
X158065920Y-144780000D01*
X157958482Y-144239873D01*
X157652525Y-143781975D01*
X157245485Y-143510000D01*
X157652525Y-143238025D01*
X157958482Y-142780127D01*
X158065920Y-142240000D01*
X157958482Y-141699873D01*
X157652525Y-141241975D01*
X157245485Y-140970000D01*
X157652525Y-140698025D01*
X157958482Y-140240127D01*
X158065920Y-139700000D01*
X157958482Y-139159873D01*
X157652525Y-138701975D01*
X157245485Y-138430000D01*
X157652525Y-138158025D01*
X157958482Y-137700127D01*
X158065920Y-137160000D01*
X157958482Y-136619873D01*
X157652525Y-136161975D01*
X157245485Y-135890000D01*
X157652525Y-135618025D01*
X157958482Y-135160127D01*
X158065920Y-134620000D01*
X157958482Y-134079873D01*
X157652525Y-133621975D01*
X157245485Y-133350000D01*
X157652525Y-133078025D01*
X157958482Y-132620127D01*
X157995695Y-132433044D01*
X177208312Y-132433044D01*
X177227573Y-132521577D01*
X177502968Y-133022927D01*
X177949258Y-133380725D01*
X178498500Y-133540500D01*
X178943000Y-133540500D01*
X178943000Y-132207000D01*
X177329960Y-132207000D01*
X177208312Y-132433044D01*
X157995695Y-132433044D01*
X158065920Y-132080000D01*
X157958482Y-131539873D01*
X157652525Y-131081975D01*
X157245485Y-130810000D01*
X157652525Y-130538025D01*
X157958482Y-130080127D01*
X158065920Y-129540000D01*
X157958482Y-128999873D01*
X157652525Y-128541975D01*
X157530589Y-128460500D01*
X157606309Y-128460500D01*
X157839698Y-128363827D01*
X158018327Y-128185199D01*
X158115000Y-127951810D01*
X158115000Y-127285750D01*
X157956250Y-127127000D01*
X156337000Y-127127000D01*
X156337000Y-127147000D01*
X156083000Y-127147000D01*
X156083000Y-127127000D01*
X156063000Y-127127000D01*
X156063000Y-126873000D01*
X156083000Y-126873000D01*
X156083000Y-126853000D01*
X156337000Y-126853000D01*
X156337000Y-126873000D01*
X157956250Y-126873000D01*
X158115000Y-126714250D01*
X158115000Y-126048190D01*
X158018327Y-125814801D01*
X157839698Y-125636173D01*
X157606309Y-125539500D01*
X157098789Y-125539500D01*
X157220725Y-125458025D01*
X157480000Y-125069992D01*
X157739275Y-125458025D01*
X158197173Y-125763982D01*
X158600959Y-125844300D01*
X159318141Y-125844300D01*
X159721927Y-125763982D01*
X160179825Y-125458025D01*
X160485782Y-125000127D01*
X160593220Y-124460000D01*
X160485782Y-123919873D01*
X160179825Y-123461975D01*
X159721927Y-123156018D01*
X159318141Y-123075700D01*
X158600959Y-123075700D01*
X158197173Y-123156018D01*
X157739275Y-123461975D01*
X157480000Y-123850008D01*
X157220725Y-123461975D01*
X156921200Y-123261839D01*
X156921200Y-122849588D01*
X160397186Y-119373603D01*
X160456565Y-119333927D01*
X160496241Y-119274548D01*
X160496243Y-119274546D01*
X160613754Y-119098679D01*
X160613754Y-119098678D01*
X160613755Y-119098677D01*
X160655019Y-118891227D01*
X160655019Y-118891224D01*
X160668951Y-118821182D01*
X160655019Y-118751140D01*
X160655019Y-91972625D01*
X160668951Y-91902583D01*
X160655019Y-91832542D01*
X160655019Y-91832538D01*
X160613755Y-91625088D01*
X160591051Y-91591110D01*
X160496243Y-91449219D01*
X160496239Y-91449215D01*
X160456564Y-91389838D01*
X160397188Y-91350164D01*
X159329136Y-90282113D01*
X159721927Y-90203982D01*
X160179825Y-89898025D01*
X160485782Y-89440127D01*
X160593220Y-88900000D01*
X160485782Y-88359873D01*
X160179825Y-87901975D01*
X159721927Y-87596018D01*
X159318141Y-87515700D01*
X158600959Y-87515700D01*
X158197173Y-87596018D01*
X157739275Y-87901975D01*
X157480000Y-88290008D01*
X157220725Y-87901975D01*
X156921200Y-87701839D01*
X156921200Y-87289588D01*
X160994094Y-83216695D01*
X161053473Y-83177019D01*
X161093149Y-83117640D01*
X161093151Y-83117638D01*
X161210662Y-82941770D01*
X161210663Y-82941769D01*
X161251927Y-82734319D01*
X161251927Y-82734315D01*
X161265859Y-82664273D01*
X161251927Y-82594231D01*
X161251927Y-64579283D01*
X167316200Y-64579283D01*
X167316200Y-64960717D01*
X167462169Y-65313117D01*
X167731883Y-65582831D01*
X168084283Y-65728800D01*
X168465717Y-65728800D01*
X168818117Y-65582831D01*
X169087831Y-65313117D01*
X169182358Y-65084910D01*
X169233610Y-65050664D01*
X176892975Y-57391300D01*
X177673383Y-57391300D01*
X177627475Y-57421975D01*
X177321518Y-57879873D01*
X177238231Y-58298587D01*
X175214953Y-60321865D01*
X175125881Y-60381381D01*
X174890097Y-60734257D01*
X174828200Y-61045435D01*
X174828200Y-61045439D01*
X174807302Y-61150500D01*
X174828200Y-61255561D01*
X174828200Y-61788117D01*
X172039953Y-64576365D01*
X171950881Y-64635881D01*
X171715097Y-64988757D01*
X171701230Y-65058470D01*
X171475834Y-65395800D01*
X171399200Y-65781064D01*
X171399201Y-93849908D01*
X171373324Y-93980000D01*
X171399200Y-94110087D01*
X171399201Y-120710408D01*
X171373324Y-120840500D01*
X171475834Y-121355850D01*
X171475835Y-121355851D01*
X171767757Y-121792744D01*
X171878039Y-121866432D01*
X177749200Y-127737593D01*
X177749201Y-128460641D01*
X177627475Y-128541975D01*
X177321518Y-128999873D01*
X177214080Y-129540000D01*
X177321518Y-130080127D01*
X177627475Y-130538025D01*
X177976620Y-130771315D01*
X177949258Y-130779275D01*
X177502968Y-131137073D01*
X177227573Y-131638423D01*
X177208312Y-131726956D01*
X177329960Y-131953000D01*
X178943000Y-131953000D01*
X178943000Y-131933000D01*
X179197000Y-131933000D01*
X179197000Y-131953000D01*
X179217000Y-131953000D01*
X179217000Y-132207000D01*
X179197000Y-132207000D01*
X179197000Y-133501133D01*
X178511392Y-134186741D01*
X178438224Y-134235630D01*
X178262097Y-134499224D01*
X178244545Y-134525492D01*
X178176533Y-134867407D01*
X178193701Y-134953715D01*
X178193701Y-135834470D01*
X178085373Y-135856018D01*
X177627475Y-136161975D01*
X177546141Y-136283700D01*
X177251304Y-136283700D01*
X177165000Y-136266533D01*
X177078696Y-136283700D01*
X176823085Y-136334544D01*
X176533223Y-136528223D01*
X176484335Y-136601389D01*
X175971393Y-137114332D01*
X175898223Y-137163223D01*
X175704544Y-137453086D01*
X175660851Y-137672746D01*
X175636533Y-137795000D01*
X175653700Y-137881304D01*
X175653701Y-140248692D01*
X175636533Y-140335000D01*
X175692285Y-140615282D01*
X175704545Y-140676915D01*
X175898224Y-140966777D01*
X175971391Y-141015666D01*
X176484335Y-141528611D01*
X176533223Y-141601777D01*
X176685912Y-141703800D01*
X176823085Y-141795456D01*
X177165000Y-141863467D01*
X177251304Y-141846300D01*
X177292392Y-141846300D01*
X177214080Y-142240000D01*
X177321518Y-142780127D01*
X177627475Y-143238025D01*
X178034515Y-143510000D01*
X177627475Y-143781975D01*
X177321518Y-144239873D01*
X177214080Y-144780000D01*
X177321518Y-145320127D01*
X177627475Y-145778025D01*
X178085373Y-146083982D01*
X178489159Y-146164300D01*
X179650841Y-146164300D01*
X180054627Y-146083982D01*
X180409596Y-145846800D01*
X184437205Y-145846800D01*
X184542266Y-145867698D01*
X184647327Y-145846800D01*
X184647332Y-145846800D01*
X184958510Y-145784903D01*
X185311385Y-145549119D01*
X185370901Y-145460047D01*
X185692148Y-145138800D01*
X185812548Y-145138800D01*
X186311964Y-144931935D01*
X186456154Y-144787745D01*
X189794127Y-144787745D01*
X189868261Y-145033864D01*
X190405489Y-145226965D01*
X190975720Y-145199778D01*
X191376271Y-145033864D01*
X191450405Y-144787745D01*
X190622266Y-143959605D01*
X189794127Y-144787745D01*
X186456154Y-144787745D01*
X186694201Y-144549698D01*
X186901066Y-144050282D01*
X186901066Y-143509718D01*
X186694201Y-143010302D01*
X186318899Y-142635000D01*
X186694201Y-142259698D01*
X186901066Y-141760282D01*
X186901066Y-141219718D01*
X186694201Y-140720302D01*
X186318899Y-140345000D01*
X186694201Y-139969698D01*
X186901066Y-139470282D01*
X186901066Y-138929718D01*
X186694201Y-138430302D01*
X186318899Y-138055000D01*
X186694201Y-137679698D01*
X186901066Y-137180282D01*
X186901066Y-136639718D01*
X186694201Y-136140302D01*
X186567799Y-136013900D01*
X186701965Y-135958327D01*
X186723466Y-135936826D01*
X186723466Y-136035282D01*
X186930331Y-136534698D01*
X187305633Y-136910000D01*
X186930331Y-137285302D01*
X186723466Y-137784718D01*
X186723466Y-138325282D01*
X186930331Y-138824698D01*
X187305633Y-139200000D01*
X186930331Y-139575302D01*
X186723466Y-140074718D01*
X186723466Y-140615282D01*
X186930331Y-141114698D01*
X187305633Y-141490000D01*
X186930331Y-141865302D01*
X186723466Y-142364718D01*
X186723466Y-142905282D01*
X186930331Y-143404698D01*
X187312568Y-143786935D01*
X187811984Y-143993800D01*
X188352548Y-143993800D01*
X188851964Y-143786935D01*
X189231204Y-143407695D01*
X189175301Y-143563223D01*
X189202488Y-144133454D01*
X189368402Y-144534005D01*
X189614521Y-144608139D01*
X190442661Y-143780000D01*
X190801871Y-143780000D01*
X191630011Y-144608139D01*
X191876130Y-144534005D01*
X192069231Y-143996777D01*
X192042044Y-143426546D01*
X191876130Y-143025995D01*
X191630011Y-142951861D01*
X190801871Y-143780000D01*
X190442661Y-143780000D01*
X189614521Y-142951861D01*
X189394296Y-143018196D01*
X189441066Y-142905282D01*
X189441066Y-142364718D01*
X189234201Y-141865302D01*
X188858899Y-141490000D01*
X189234201Y-141114698D01*
X189441066Y-140615282D01*
X189441066Y-140074718D01*
X189234201Y-139575302D01*
X188858899Y-139200000D01*
X189234201Y-138824698D01*
X189441066Y-138325282D01*
X189441066Y-137784718D01*
X189234201Y-137285302D01*
X188858899Y-136910000D01*
X189234201Y-136534698D01*
X189441066Y-136035282D01*
X189441066Y-135494718D01*
X189416835Y-135436220D01*
X189468288Y-135384766D01*
X189470331Y-135389698D01*
X189845633Y-135765000D01*
X189470331Y-136140302D01*
X189263466Y-136639718D01*
X189263466Y-137180282D01*
X189470331Y-137679698D01*
X189845633Y-138055000D01*
X189470331Y-138430302D01*
X189263466Y-138929718D01*
X189263466Y-139470282D01*
X189470331Y-139969698D01*
X189845633Y-140345000D01*
X189470331Y-140720302D01*
X189263466Y-141219718D01*
X189263466Y-141760282D01*
X189470331Y-142259698D01*
X189837822Y-142627189D01*
X189794127Y-142772255D01*
X190622266Y-143600395D01*
X191450405Y-142772255D01*
X191406710Y-142627189D01*
X191774201Y-142259698D01*
X191981066Y-141760282D01*
X191981066Y-141219718D01*
X191774201Y-140720302D01*
X191398899Y-140345000D01*
X191774201Y-139969698D01*
X191796165Y-139916673D01*
X191823677Y-139911200D01*
X191823682Y-139911200D01*
X192031132Y-139869936D01*
X192266382Y-139712746D01*
X192306060Y-139653364D01*
X192545211Y-139414213D01*
X192746915Y-139374092D01*
X193036777Y-139180413D01*
X193230456Y-138890551D01*
X193281300Y-138634940D01*
X193281300Y-61681304D01*
X193298467Y-61595000D01*
X193230456Y-61253085D01*
X193085664Y-61036388D01*
X193036777Y-60963223D01*
X192963611Y-60914335D01*
X190418658Y-58369384D01*
X190369767Y-58296213D01*
X190079905Y-58102534D01*
X189888749Y-58064511D01*
X189909535Y-58055901D01*
X190816967Y-57148469D01*
X191308066Y-55962851D01*
X191308066Y-54679549D01*
X190816967Y-53493931D01*
X189909535Y-52586499D01*
X188723917Y-52095400D01*
X187440615Y-52095400D01*
X186254997Y-52586499D01*
X185347565Y-53493931D01*
X184856466Y-54679549D01*
X184856466Y-55962851D01*
X184870142Y-55995868D01*
X184830668Y-55956394D01*
X184781777Y-55883223D01*
X184491915Y-55689544D01*
X184236304Y-55638700D01*
X184236303Y-55638700D01*
X184150000Y-55621533D01*
X184063697Y-55638700D01*
X176616303Y-55638700D01*
X176530000Y-55621533D01*
X176443697Y-55638700D01*
X176443696Y-55638700D01*
X176188085Y-55689544D01*
X175898223Y-55883223D01*
X175849334Y-55956391D01*
X167994336Y-63811390D01*
X167960090Y-63862642D01*
X167731883Y-63957169D01*
X167462169Y-64226883D01*
X167316200Y-64579283D01*
X161251927Y-64579283D01*
X161251927Y-57385167D01*
X161265859Y-57315125D01*
X161251927Y-57245083D01*
X161251927Y-57245079D01*
X161210663Y-57037629D01*
X161187959Y-57003651D01*
X161093151Y-56861760D01*
X161093147Y-56861756D01*
X161053472Y-56802379D01*
X160994096Y-56762705D01*
X159722414Y-55491023D01*
X169441200Y-55491023D01*
X169441200Y-56508977D01*
X169830754Y-57449444D01*
X170550556Y-58169246D01*
X171491023Y-58558800D01*
X172508977Y-58558800D01*
X173449444Y-58169246D01*
X174169246Y-57449444D01*
X174558800Y-56508977D01*
X174558800Y-55491023D01*
X174169246Y-54550556D01*
X173449444Y-53830754D01*
X172508977Y-53441200D01*
X171491023Y-53441200D01*
X170550556Y-53830754D01*
X169830754Y-54550556D01*
X169441200Y-55491023D01*
X159722414Y-55491023D01*
X158955690Y-54724300D01*
X159318141Y-54724300D01*
X159721927Y-54643982D01*
X160179825Y-54338025D01*
X160485782Y-53880127D01*
X160593220Y-53340000D01*
X160485782Y-52799873D01*
X160179825Y-52341975D01*
X159721927Y-52036018D01*
X159318141Y-51955700D01*
X158600959Y-51955700D01*
X158197173Y-52036018D01*
X157739275Y-52341975D01*
X157480000Y-52730008D01*
X157220725Y-52341975D01*
X156762827Y-52036018D01*
X156359041Y-51955700D01*
X155641859Y-51955700D01*
X155238073Y-52036018D01*
X154780175Y-52341975D01*
X154474218Y-52799873D01*
X154366780Y-53340000D01*
X154474218Y-53880127D01*
X154780175Y-54338025D01*
X154902111Y-54419500D01*
X154813691Y-54419500D01*
X154580302Y-54516173D01*
X154401673Y-54694801D01*
X154305000Y-54928190D01*
X154305000Y-55594250D01*
X154463750Y-55753000D01*
X156083000Y-55753000D01*
X156083000Y-55733000D01*
X156337000Y-55733000D01*
X156337000Y-55753000D01*
X156357000Y-55753000D01*
X156357000Y-56007000D01*
X156337000Y-56007000D01*
X156337000Y-56027000D01*
X156083000Y-56027000D01*
X156083000Y-56007000D01*
X154463750Y-56007000D01*
X154305000Y-56165750D01*
X154305000Y-56831810D01*
X154401673Y-57065199D01*
X154580302Y-57243827D01*
X154813691Y-57340500D01*
X154889411Y-57340500D01*
X154767475Y-57421975D01*
X154461518Y-57879873D01*
X154354080Y-58420000D01*
X154461518Y-58960127D01*
X154767475Y-59418025D01*
X155174515Y-59690000D01*
X154767475Y-59961975D01*
X154461518Y-60419873D01*
X154354080Y-60960000D01*
X154461518Y-61500127D01*
X154767475Y-61958025D01*
X155174515Y-62230000D01*
X154767475Y-62501975D01*
X154575825Y-62788800D01*
X151595904Y-62788800D01*
X151608511Y-62769932D01*
X151715910Y-62230000D01*
X151608511Y-61690068D01*
X151302664Y-61232336D01*
X150952714Y-60998507D01*
X150981051Y-60990263D01*
X151427179Y-60632573D01*
X151702465Y-60131385D01*
X151721692Y-60042965D01*
X151600038Y-59817000D01*
X149987000Y-59817000D01*
X149987000Y-59837000D01*
X149733000Y-59837000D01*
X149733000Y-59817000D01*
X148119962Y-59817000D01*
X147998308Y-60042965D01*
X148017535Y-60131385D01*
X148292821Y-60632573D01*
X148738949Y-60990263D01*
X148767286Y-60998507D01*
X148417336Y-61232336D01*
X148111489Y-61690068D01*
X148004090Y-62230000D01*
X148111489Y-62769932D01*
X148312735Y-63071118D01*
X146866634Y-64517220D01*
X146807254Y-64556897D01*
X146767578Y-64616276D01*
X146767576Y-64616278D01*
X146703673Y-64711916D01*
X146650064Y-64792147D01*
X146608800Y-64999597D01*
X146608800Y-64999601D01*
X146594868Y-65069642D01*
X146608800Y-65139684D01*
X146608801Y-70224954D01*
X146594868Y-70295000D01*
X146650065Y-70572496D01*
X146767576Y-70748364D01*
X146767579Y-70748367D01*
X146807255Y-70807746D01*
X146866634Y-70847422D01*
X148071304Y-72052092D01*
X148004090Y-72390000D01*
X148111489Y-72929932D01*
X148417336Y-73387664D01*
X148824915Y-73660000D01*
X148417336Y-73932336D01*
X148111489Y-74390068D01*
X148004090Y-74930000D01*
X148111489Y-75469932D01*
X148417336Y-75927664D01*
X148824915Y-76200000D01*
X148417336Y-76472336D01*
X148111489Y-76930068D01*
X148004090Y-77470000D01*
X148111489Y-78009932D01*
X148417336Y-78467664D01*
X148824915Y-78740000D01*
X148417336Y-79012336D01*
X148111489Y-79470068D01*
X148004090Y-80010000D01*
X148111489Y-80549932D01*
X148417336Y-81007664D01*
X148824915Y-81280000D01*
X148417336Y-81552336D01*
X148111489Y-82010068D01*
X148004090Y-82550000D01*
X148111489Y-83089932D01*
X148417336Y-83547664D01*
X148824915Y-83820000D01*
X148417336Y-84092336D01*
X148111489Y-84550068D01*
X148004090Y-85090000D01*
X148111489Y-85629932D01*
X148417336Y-86087664D01*
X148824915Y-86360000D01*
X148417336Y-86632336D01*
X148111489Y-87090068D01*
X148004090Y-87630000D01*
X148111489Y-88169932D01*
X148417336Y-88627664D01*
X148824915Y-88900000D01*
X148417336Y-89172336D01*
X148111489Y-89630068D01*
X148004090Y-90170000D01*
X148071304Y-90507908D01*
X147501634Y-91077578D01*
X147442255Y-91117254D01*
X147402579Y-91176633D01*
X147402576Y-91176636D01*
X147285065Y-91352504D01*
X147229868Y-91630000D01*
X147243801Y-91700046D01*
X147243800Y-95179958D01*
X147229868Y-95250000D01*
X147243800Y-95320041D01*
X147243800Y-95320045D01*
X147285064Y-95527495D01*
X147285065Y-95527496D01*
X147402576Y-95703364D01*
X147402578Y-95703366D01*
X147442254Y-95762745D01*
X147501634Y-95802422D01*
X149783801Y-98084590D01*
X149783801Y-98415251D01*
X149682169Y-98516883D01*
X149536200Y-98869283D01*
X149536200Y-99250717D01*
X149682169Y-99603117D01*
X149756557Y-99677505D01*
X149148793Y-99425760D01*
X148031207Y-99425760D01*
X146998694Y-99853442D01*
X146208442Y-100643694D01*
X145780760Y-101676207D01*
X145443800Y-101676207D01*
X145443800Y-100017200D01*
X135226200Y-100017200D01*
X132633800Y-100017200D01*
X132633800Y-57150000D01*
X132764090Y-57150000D01*
X132871489Y-57689932D01*
X133177336Y-58147664D01*
X133584915Y-58420000D01*
X133177336Y-58692336D01*
X132871489Y-59150068D01*
X132764090Y-59690000D01*
X132871489Y-60229932D01*
X133177336Y-60687664D01*
X133584915Y-60960000D01*
X133177336Y-61232336D01*
X132871489Y-61690068D01*
X132764090Y-62230000D01*
X132871489Y-62769932D01*
X133177336Y-63227664D01*
X133584915Y-63500000D01*
X133177336Y-63772336D01*
X132871489Y-64230068D01*
X132764090Y-64770000D01*
X132871489Y-65309932D01*
X133177336Y-65767664D01*
X133584915Y-66040000D01*
X133177336Y-66312336D01*
X132871489Y-66770068D01*
X132764090Y-67310000D01*
X132871489Y-67849932D01*
X133177336Y-68307664D01*
X133584915Y-68580000D01*
X133177336Y-68852336D01*
X132871489Y-69310068D01*
X132764090Y-69850000D01*
X132871489Y-70389932D01*
X133177336Y-70847664D01*
X133584915Y-71120000D01*
X133177336Y-71392336D01*
X132871489Y-71850068D01*
X132764090Y-72390000D01*
X132871489Y-72929932D01*
X133177336Y-73387664D01*
X133584915Y-73660000D01*
X133177336Y-73932336D01*
X132871489Y-74390068D01*
X132764090Y-74930000D01*
X132871489Y-75469932D01*
X133177336Y-75927664D01*
X133584915Y-76200000D01*
X133177336Y-76472336D01*
X132871489Y-76930068D01*
X132764090Y-77470000D01*
X132871489Y-78009932D01*
X133177336Y-78467664D01*
X133584915Y-78740000D01*
X133177336Y-79012336D01*
X132871489Y-79470068D01*
X132764090Y-80010000D01*
X132871489Y-80549932D01*
X133177336Y-81007664D01*
X133584915Y-81280000D01*
X133177336Y-81552336D01*
X132871489Y-82010068D01*
X132764090Y-82550000D01*
X132871489Y-83089932D01*
X133177336Y-83547664D01*
X133584915Y-83820000D01*
X133177336Y-84092336D01*
X132871489Y-84550068D01*
X132764090Y-85090000D01*
X132871489Y-85629932D01*
X133177336Y-86087664D01*
X133584915Y-86360000D01*
X133177336Y-86632336D01*
X132871489Y-87090068D01*
X132764090Y-87630000D01*
X132871489Y-88169932D01*
X133177336Y-88627664D01*
X133584915Y-88900000D01*
X133177336Y-89172336D01*
X132871489Y-89630068D01*
X132764090Y-90170000D01*
X132871489Y-90709932D01*
X133177336Y-91167664D01*
X133584915Y-91440000D01*
X133177336Y-91712336D01*
X132871489Y-92170068D01*
X132764090Y-92710000D01*
X132871489Y-93249932D01*
X133177336Y-93707664D01*
X133635068Y-94013511D01*
X134038709Y-94093800D01*
X135201291Y-94093800D01*
X135604932Y-94013511D01*
X136062664Y-93707664D01*
X136368511Y-93249932D01*
X136475910Y-92710000D01*
X136368511Y-92170068D01*
X136062664Y-91712336D01*
X135655085Y-91440000D01*
X136062664Y-91167664D01*
X136368511Y-90709932D01*
X136475910Y-90170000D01*
X136368511Y-89630068D01*
X136062664Y-89172336D01*
X135655085Y-88900000D01*
X136062664Y-88627664D01*
X136368511Y-88169932D01*
X136475910Y-87630000D01*
X136368511Y-87090068D01*
X136062664Y-86632336D01*
X135655085Y-86360000D01*
X136062664Y-86087664D01*
X136368511Y-85629932D01*
X136475910Y-85090000D01*
X136368511Y-84550068D01*
X136062664Y-84092336D01*
X135655085Y-83820000D01*
X136062664Y-83547664D01*
X136368511Y-83089932D01*
X136475910Y-82550000D01*
X136368511Y-82010068D01*
X136062664Y-81552336D01*
X135655085Y-81280000D01*
X136062664Y-81007664D01*
X136368511Y-80549932D01*
X136475910Y-80010000D01*
X136368511Y-79470068D01*
X136062664Y-79012336D01*
X135655085Y-78740000D01*
X136062664Y-78467664D01*
X136368511Y-78009932D01*
X136475910Y-77470000D01*
X136445294Y-77316082D01*
X145973800Y-86844589D01*
X145973800Y-86985252D01*
X145872169Y-87086883D01*
X145726200Y-87439283D01*
X145726200Y-87820717D01*
X145872169Y-88173117D01*
X146141883Y-88442831D01*
X146494283Y-88588800D01*
X146875717Y-88588800D01*
X147228117Y-88442831D01*
X147497831Y-88173117D01*
X147643800Y-87820717D01*
X147643800Y-87439283D01*
X147497831Y-87086883D01*
X147396200Y-86985252D01*
X147396200Y-86620042D01*
X147410132Y-86550000D01*
X147396200Y-86479958D01*
X147396200Y-86479954D01*
X147354936Y-86272504D01*
X147332232Y-86238526D01*
X147237424Y-86096635D01*
X147237420Y-86096631D01*
X147197745Y-86037254D01*
X147138369Y-85997580D01*
X136408696Y-75267908D01*
X136475910Y-74930000D01*
X136368511Y-74390068D01*
X136062664Y-73932336D01*
X135655085Y-73660000D01*
X136062664Y-73387664D01*
X136254073Y-73101200D01*
X137500412Y-73101200D01*
X145726200Y-81326989D01*
X145726200Y-81470717D01*
X145872169Y-81823117D01*
X146141883Y-82092831D01*
X146494283Y-82238800D01*
X146875717Y-82238800D01*
X147228117Y-82092831D01*
X147497831Y-81823117D01*
X147643800Y-81470717D01*
X147643800Y-81089283D01*
X147497831Y-80736883D01*
X147228117Y-80467169D01*
X146875717Y-80321200D01*
X146731989Y-80321200D01*
X138347423Y-71936635D01*
X138307746Y-71877254D01*
X138072496Y-71720064D01*
X137865046Y-71678800D01*
X137865041Y-71678800D01*
X137795000Y-71664868D01*
X137724959Y-71678800D01*
X136254073Y-71678800D01*
X136062664Y-71392336D01*
X135655085Y-71120000D01*
X136062664Y-70847664D01*
X136368511Y-70389932D01*
X136475910Y-69850000D01*
X136368511Y-69310068D01*
X136062664Y-68852336D01*
X135655085Y-68580000D01*
X136062664Y-68307664D01*
X136368511Y-67849932D01*
X136475910Y-67310000D01*
X136368511Y-66770068D01*
X136062664Y-66312336D01*
X135655085Y-66040000D01*
X136062664Y-65767664D01*
X136368511Y-65309932D01*
X136475910Y-64770000D01*
X136368511Y-64230068D01*
X136062664Y-63772336D01*
X135655085Y-63500000D01*
X136062664Y-63227664D01*
X136368511Y-62769932D01*
X136475910Y-62230000D01*
X136368511Y-61690068D01*
X136062664Y-61232336D01*
X135655085Y-60960000D01*
X136062664Y-60687664D01*
X136368511Y-60229932D01*
X136475910Y-59690000D01*
X136405701Y-59337035D01*
X147998308Y-59337035D01*
X148119962Y-59563000D01*
X149733000Y-59563000D01*
X149733000Y-59543000D01*
X149987000Y-59543000D01*
X149987000Y-59563000D01*
X151600038Y-59563000D01*
X151721692Y-59337035D01*
X151702465Y-59248615D01*
X151427179Y-58747427D01*
X150981051Y-58389737D01*
X150952714Y-58381493D01*
X151302664Y-58147664D01*
X151608511Y-57689932D01*
X151715910Y-57150000D01*
X151608511Y-56610068D01*
X151302664Y-56152336D01*
X150844932Y-55846489D01*
X150441291Y-55766200D01*
X149278709Y-55766200D01*
X148875068Y-55846489D01*
X148417336Y-56152336D01*
X148111489Y-56610068D01*
X148004090Y-57150000D01*
X148111489Y-57689932D01*
X148417336Y-58147664D01*
X148767286Y-58381493D01*
X148738949Y-58389737D01*
X148292821Y-58747427D01*
X148017535Y-59248615D01*
X147998308Y-59337035D01*
X136405701Y-59337035D01*
X136368511Y-59150068D01*
X136062664Y-58692336D01*
X135655085Y-58420000D01*
X136062664Y-58147664D01*
X136368511Y-57689932D01*
X136475910Y-57150000D01*
X136368511Y-56610068D01*
X136062664Y-56152336D01*
X135604932Y-55846489D01*
X135201291Y-55766200D01*
X134038709Y-55766200D01*
X133635068Y-55846489D01*
X133177336Y-56152336D01*
X132871489Y-56610068D01*
X132764090Y-57150000D01*
X132633800Y-57150000D01*
X132633800Y-55466513D01*
X139441200Y-55466513D01*
X139441200Y-56484467D01*
X139830754Y-57424934D01*
X140550556Y-58144736D01*
X141491023Y-58534290D01*
X142508977Y-58534290D01*
X143449444Y-58144736D01*
X144169246Y-57424934D01*
X144558800Y-56484467D01*
X144558800Y-55466513D01*
X144169246Y-54526046D01*
X143449444Y-53806244D01*
X142508977Y-53416690D01*
X141491023Y-53416690D01*
X140550556Y-53806244D01*
X139830754Y-54526046D01*
X139441200Y-55466513D01*
X132633800Y-55466513D01*
X132633800Y-51633800D01*
X196366200Y-51633800D01*
X196366201Y-155366200D01*
G36*
X154474218Y-125000127D02*
X154780175Y-125458025D01*
X154902111Y-125539500D01*
X154813691Y-125539500D01*
X154580302Y-125636173D01*
X154401673Y-125814801D01*
X154381200Y-125864227D01*
X154381200Y-124532494D01*
X154474218Y-125000127D01*
X154474218Y-125000127D01*
G37*
X154474218Y-125000127D02*
X154780175Y-125458025D01*
X154902111Y-125539500D01*
X154813691Y-125539500D01*
X154580302Y-125636173D01*
X154401673Y-125814801D01*
X154381200Y-125864227D01*
X154381200Y-124532494D01*
X154474218Y-125000127D01*
G36*
X159232620Y-118526591D02*
X155756634Y-122002578D01*
X155697254Y-122042255D01*
X155657578Y-122101634D01*
X155657576Y-122101636D01*
X155600420Y-122187176D01*
X155540064Y-122277505D01*
X155498800Y-122484955D01*
X155498800Y-122484959D01*
X155484868Y-122555000D01*
X155498800Y-122625042D01*
X155498800Y-123104156D01*
X155238073Y-123156018D01*
X154780175Y-123461975D01*
X154474218Y-123919873D01*
X154381200Y-124387506D01*
X154381200Y-122849588D01*
X159203364Y-118027425D01*
X159232620Y-118007877D01*
X159232620Y-118526591D01*
X159232620Y-118526591D01*
G37*
X159232620Y-118526591D02*
X155756634Y-122002578D01*
X155697254Y-122042255D01*
X155657578Y-122101634D01*
X155657576Y-122101636D01*
X155600420Y-122187176D01*
X155540064Y-122277505D01*
X155498800Y-122484955D01*
X155498800Y-122484959D01*
X155484868Y-122555000D01*
X155498800Y-122625042D01*
X155498800Y-123104156D01*
X155238073Y-123156018D01*
X154780175Y-123461975D01*
X154474218Y-123919873D01*
X154381200Y-124387506D01*
X154381200Y-122849588D01*
X159203364Y-118027425D01*
X159232620Y-118007877D01*
X159232620Y-118526591D01*
G36*
X159232619Y-92197173D02*
X159232619Y-100622624D01*
X159203366Y-100603077D01*
X157998621Y-99398333D01*
X158065920Y-99060000D01*
X157958482Y-98519873D01*
X157652525Y-98061975D01*
X157245485Y-97790000D01*
X157652525Y-97518025D01*
X157958482Y-97060127D01*
X158065920Y-96520000D01*
X157958482Y-95979873D01*
X157652525Y-95521975D01*
X157245485Y-95250000D01*
X157652525Y-94978025D01*
X157958482Y-94520127D01*
X158065920Y-93980000D01*
X157958482Y-93439873D01*
X157652525Y-92981975D01*
X157530589Y-92900500D01*
X157606309Y-92900500D01*
X157839698Y-92803827D01*
X158018327Y-92625199D01*
X158115000Y-92391810D01*
X158115000Y-91725750D01*
X157956250Y-91567000D01*
X156337000Y-91567000D01*
X156337000Y-91587000D01*
X156083000Y-91587000D01*
X156083000Y-91567000D01*
X156063000Y-91567000D01*
X156063000Y-91313000D01*
X156083000Y-91313000D01*
X156083000Y-91293000D01*
X156337000Y-91293000D01*
X156337000Y-91313000D01*
X157956250Y-91313000D01*
X158115000Y-91154250D01*
X158115000Y-91079554D01*
X159232619Y-92197173D01*
X159232619Y-92197173D01*
G37*
X159232619Y-92197173D02*
X159232619Y-100622624D01*
X159203366Y-100603077D01*
X157998621Y-99398333D01*
X158065920Y-99060000D01*
X157958482Y-98519873D01*
X157652525Y-98061975D01*
X157245485Y-97790000D01*
X157652525Y-97518025D01*
X157958482Y-97060127D01*
X158065920Y-96520000D01*
X157958482Y-95979873D01*
X157652525Y-95521975D01*
X157245485Y-95250000D01*
X157652525Y-94978025D01*
X157958482Y-94520127D01*
X158065920Y-93980000D01*
X157958482Y-93439873D01*
X157652525Y-92981975D01*
X157530589Y-92900500D01*
X157606309Y-92900500D01*
X157839698Y-92803827D01*
X158018327Y-92625199D01*
X158115000Y-92391810D01*
X158115000Y-91725750D01*
X157956250Y-91567000D01*
X156337000Y-91567000D01*
X156337000Y-91587000D01*
X156083000Y-91587000D01*
X156083000Y-91567000D01*
X156063000Y-91567000D01*
X156063000Y-91313000D01*
X156083000Y-91313000D01*
X156083000Y-91293000D01*
X156337000Y-91293000D01*
X156337000Y-91313000D01*
X157956250Y-91313000D01*
X158115000Y-91154250D01*
X158115000Y-91079554D01*
X159232619Y-92197173D01*
G36*
X154474218Y-89440127D02*
X154780175Y-89898025D01*
X154902111Y-89979500D01*
X154813691Y-89979500D01*
X154580302Y-90076173D01*
X154401673Y-90254801D01*
X154381200Y-90304227D01*
X154381200Y-88972494D01*
X154474218Y-89440127D01*
X154474218Y-89440127D01*
G37*
X154474218Y-89440127D02*
X154780175Y-89898025D01*
X154902111Y-89979500D01*
X154813691Y-89979500D01*
X154580302Y-90076173D01*
X154401673Y-90254801D01*
X154381200Y-90304227D01*
X154381200Y-88972494D01*
X154474218Y-89440127D01*
G36*
X155498800Y-87065042D02*
X155498800Y-87544156D01*
X155238073Y-87596018D01*
X154780175Y-87901975D01*
X154474218Y-88359873D01*
X154381200Y-88827506D01*
X154381200Y-88133747D01*
X155490688Y-87024259D01*
X155498800Y-87065042D01*
X155498800Y-87065042D01*
G37*
X155498800Y-87065042D02*
X155498800Y-87544156D01*
X155238073Y-87596018D01*
X154780175Y-87901975D01*
X154474218Y-88359873D01*
X154381200Y-88827506D01*
X154381200Y-88133747D01*
X155490688Y-87024259D01*
X155498800Y-87065042D01*
G36*
X159829527Y-57609714D02*
X159829527Y-65659534D01*
X159800280Y-65639991D01*
X157998621Y-63838333D01*
X158065920Y-63500000D01*
X157958482Y-62959873D01*
X157652525Y-62501975D01*
X157245485Y-62230000D01*
X157652525Y-61958025D01*
X157958482Y-61500127D01*
X158065920Y-60960000D01*
X157958482Y-60419873D01*
X157652525Y-59961975D01*
X157245485Y-59690000D01*
X157652525Y-59418025D01*
X157958482Y-58960127D01*
X158065920Y-58420000D01*
X157958482Y-57879873D01*
X157652525Y-57421975D01*
X157530589Y-57340500D01*
X157606309Y-57340500D01*
X157839698Y-57243827D01*
X158018327Y-57065199D01*
X158115000Y-56831810D01*
X158115000Y-56165750D01*
X157956252Y-56007002D01*
X158115000Y-56007002D01*
X158115000Y-55895186D01*
X159829527Y-57609714D01*
X159829527Y-57609714D01*
G37*
X159829527Y-57609714D02*
X159829527Y-65659534D01*
X159800280Y-65639991D01*
X157998621Y-63838333D01*
X158065920Y-63500000D01*
X157958482Y-62959873D01*
X157652525Y-62501975D01*
X157245485Y-62230000D01*
X157652525Y-61958025D01*
X157958482Y-61500127D01*
X158065920Y-60960000D01*
X157958482Y-60419873D01*
X157652525Y-59961975D01*
X157245485Y-59690000D01*
X157652525Y-59418025D01*
X157958482Y-58960127D01*
X158065920Y-58420000D01*
X157958482Y-57879873D01*
X157652525Y-57421975D01*
X157530589Y-57340500D01*
X157606309Y-57340500D01*
X157839698Y-57243827D01*
X158018327Y-57065199D01*
X158115000Y-56831810D01*
X158115000Y-56165750D01*
X157956252Y-56007002D01*
X158115000Y-56007002D01*
X158115000Y-55895186D01*
X159829527Y-57609714D01*
G36*
X185669266Y-134493000D02*
X185689266Y-134493000D01*
X185689266Y-134747000D01*
X185669266Y-134747000D01*
X185669266Y-134767000D01*
X185415266Y-134767000D01*
X185415266Y-134747000D01*
X185395266Y-134747000D01*
X185395266Y-134493000D01*
X185415266Y-134493000D01*
X185415266Y-134473000D01*
X185669266Y-134473000D01*
X185669266Y-134493000D01*
X185669266Y-134493000D01*
G37*
X185669266Y-134493000D02*
X185689266Y-134493000D01*
X185689266Y-134747000D01*
X185669266Y-134747000D01*
X185669266Y-134767000D01*
X185415266Y-134767000D01*
X185415266Y-134747000D01*
X185395266Y-134747000D01*
X185395266Y-134493000D01*
X185415266Y-134493000D01*
X185415266Y-134473000D01*
X185669266Y-134473000D01*
X185669266Y-134493000D01*
G36*
X185374525Y-58978800D02*
X184027909Y-58978800D01*
X183856914Y-58864545D01*
X183514999Y-58796533D01*
X183173084Y-58864545D01*
X182956388Y-59009337D01*
X180834071Y-61131654D01*
X180810040Y-61087000D01*
X179197000Y-61087000D01*
X179197000Y-62420500D01*
X179545226Y-62420500D01*
X178511392Y-63454334D01*
X178438224Y-63503223D01*
X178258409Y-63772336D01*
X178244545Y-63793085D01*
X178176533Y-64135000D01*
X178193701Y-64221308D01*
X178193701Y-64714470D01*
X178085373Y-64736018D01*
X177627475Y-65041975D01*
X177520458Y-65202137D01*
X177458085Y-65214544D01*
X177168223Y-65408223D01*
X177119335Y-65481389D01*
X176606393Y-65994332D01*
X176533223Y-66043223D01*
X176339544Y-66333086D01*
X176307663Y-66493364D01*
X176271533Y-66675000D01*
X176288700Y-66761304D01*
X176288701Y-69001869D01*
X176339545Y-69257480D01*
X176533224Y-69547342D01*
X176823086Y-69741021D01*
X177024789Y-69781142D01*
X177522591Y-70278945D01*
X177321518Y-70579873D01*
X177214080Y-71120000D01*
X177321518Y-71660127D01*
X177627475Y-72118025D01*
X178034515Y-72390000D01*
X177627475Y-72661975D01*
X177321518Y-73119873D01*
X177214080Y-73660000D01*
X177321518Y-74200127D01*
X177627475Y-74658025D01*
X178085373Y-74963982D01*
X178489159Y-75044300D01*
X179650841Y-75044300D01*
X180054627Y-74963982D01*
X180409596Y-74726800D01*
X184437205Y-74726800D01*
X184542266Y-74747698D01*
X184647327Y-74726800D01*
X184647332Y-74726800D01*
X184958510Y-74664903D01*
X185311385Y-74429119D01*
X185370901Y-74340047D01*
X185692148Y-74018800D01*
X185812548Y-74018800D01*
X186311964Y-73811935D01*
X186694201Y-73429698D01*
X186901066Y-72930282D01*
X186901066Y-72389718D01*
X186694201Y-71890302D01*
X186318899Y-71515000D01*
X186694201Y-71139698D01*
X186901066Y-70640282D01*
X186901066Y-70099718D01*
X186694201Y-69600302D01*
X186318899Y-69225000D01*
X186694201Y-68849698D01*
X186901066Y-68350282D01*
X186901066Y-67809718D01*
X186694201Y-67310302D01*
X186318899Y-66935000D01*
X186694201Y-66559698D01*
X186901066Y-66060282D01*
X186901066Y-65519718D01*
X186694201Y-65020302D01*
X186567799Y-64893900D01*
X186701965Y-64838327D01*
X186723466Y-64816826D01*
X186723466Y-64915282D01*
X186930331Y-65414698D01*
X187305633Y-65790000D01*
X186930331Y-66165302D01*
X186723466Y-66664718D01*
X186723466Y-67205282D01*
X186930331Y-67704698D01*
X187305633Y-68080000D01*
X186930331Y-68455302D01*
X186723466Y-68954718D01*
X186723466Y-69495282D01*
X186930331Y-69994698D01*
X187305633Y-70370000D01*
X186930331Y-70745302D01*
X186723466Y-71244718D01*
X186723466Y-71785282D01*
X186930331Y-72284698D01*
X187312568Y-72666935D01*
X187811984Y-72873800D01*
X188352548Y-72873800D01*
X188851964Y-72666935D01*
X189231204Y-72287695D01*
X189175301Y-72443223D01*
X189202488Y-73013454D01*
X189368402Y-73414005D01*
X189614521Y-73488139D01*
X190442661Y-72660000D01*
X189614521Y-71831861D01*
X189394296Y-71898196D01*
X189441066Y-71785282D01*
X189441066Y-71244718D01*
X189234201Y-70745302D01*
X188858899Y-70370000D01*
X189234201Y-69994698D01*
X189441066Y-69495282D01*
X189441066Y-68954718D01*
X189234201Y-68455302D01*
X188858899Y-68080000D01*
X189234201Y-67704698D01*
X189441066Y-67205282D01*
X189441066Y-66664718D01*
X189234201Y-66165302D01*
X188858899Y-65790000D01*
X189234201Y-65414698D01*
X189441066Y-64915282D01*
X189441066Y-64374718D01*
X189416835Y-64316220D01*
X189468288Y-64264766D01*
X189470331Y-64269698D01*
X189845633Y-64645000D01*
X189470331Y-65020302D01*
X189263466Y-65519718D01*
X189263466Y-66060282D01*
X189470331Y-66559698D01*
X189845633Y-66935000D01*
X189470331Y-67310302D01*
X189263466Y-67809718D01*
X189263466Y-68350282D01*
X189470331Y-68849698D01*
X189845633Y-69225000D01*
X189470331Y-69600302D01*
X189263466Y-70099718D01*
X189263466Y-70640282D01*
X189470331Y-71139698D01*
X189837822Y-71507189D01*
X189794127Y-71652255D01*
X190622266Y-72480395D01*
X190636408Y-72466252D01*
X190816014Y-72645858D01*
X190801871Y-72660000D01*
X190816014Y-72674142D01*
X190636408Y-72853748D01*
X190622266Y-72839605D01*
X189794127Y-73667745D01*
X189868261Y-73913864D01*
X190405489Y-74106965D01*
X190975720Y-74079778D01*
X191376271Y-73913864D01*
X191450405Y-73667747D01*
X191528700Y-73746042D01*
X191528701Y-98044802D01*
X191391964Y-97908065D01*
X190892548Y-97701200D01*
X190351984Y-97701200D01*
X190037967Y-97831270D01*
X190037967Y-97344613D01*
X190055456Y-97318439D01*
X190106300Y-97062828D01*
X190106300Y-96606302D01*
X190123467Y-96519999D01*
X190087518Y-96339271D01*
X190055456Y-96178085D01*
X189861777Y-95888223D01*
X189788609Y-95839334D01*
X188640668Y-94691394D01*
X188591777Y-94618223D01*
X188301915Y-94424544D01*
X188046304Y-94373700D01*
X188046303Y-94373700D01*
X187960000Y-94356533D01*
X187873697Y-94373700D01*
X183636050Y-94373700D01*
X183549747Y-94356533D01*
X183463444Y-94373700D01*
X183207833Y-94424544D01*
X182917971Y-94618223D01*
X182869082Y-94691392D01*
X180846229Y-96714245D01*
X180810040Y-96647000D01*
X179197000Y-96647000D01*
X179197000Y-97980500D01*
X179579974Y-97980500D01*
X178511392Y-99049082D01*
X178438224Y-99097971D01*
X178272664Y-99345750D01*
X178244545Y-99387833D01*
X178176533Y-99729748D01*
X178193701Y-99816056D01*
X178193701Y-100274470D01*
X178085373Y-100296018D01*
X177627475Y-100601975D01*
X177321518Y-101059873D01*
X177214080Y-101600000D01*
X177242641Y-101743585D01*
X176631784Y-102354442D01*
X176558613Y-102403333D01*
X176364934Y-102693196D01*
X176323006Y-102903982D01*
X176296923Y-103035110D01*
X176314090Y-103121414D01*
X176314091Y-104714082D01*
X176296923Y-104800390D01*
X176347625Y-105055282D01*
X176364935Y-105142305D01*
X176558614Y-105432167D01*
X176631781Y-105481056D01*
X177241388Y-106090664D01*
X177320757Y-106143697D01*
X177214080Y-106680000D01*
X177321518Y-107220127D01*
X177627475Y-107678025D01*
X178034515Y-107950000D01*
X177627475Y-108221975D01*
X177321518Y-108679873D01*
X177214080Y-109220000D01*
X177321518Y-109760127D01*
X177627475Y-110218025D01*
X178085373Y-110523982D01*
X178489159Y-110604300D01*
X179650841Y-110604300D01*
X180054627Y-110523982D01*
X180409596Y-110286800D01*
X184437205Y-110286800D01*
X184542266Y-110307698D01*
X184647327Y-110286800D01*
X184647332Y-110286800D01*
X184958510Y-110224903D01*
X185311385Y-109989119D01*
X185370901Y-109900047D01*
X185692148Y-109578800D01*
X185812548Y-109578800D01*
X186311964Y-109371935D01*
X186694201Y-108989698D01*
X186901066Y-108490282D01*
X186901066Y-107949718D01*
X186694201Y-107450302D01*
X186318899Y-107075000D01*
X186694201Y-106699698D01*
X186901066Y-106200282D01*
X186901066Y-105659718D01*
X186694201Y-105160302D01*
X186318899Y-104785000D01*
X186694201Y-104409698D01*
X186901066Y-103910282D01*
X186901066Y-103369718D01*
X186694201Y-102870302D01*
X186318899Y-102495000D01*
X186694201Y-102119698D01*
X186901066Y-101620282D01*
X186901066Y-101079718D01*
X186694201Y-100580302D01*
X186567799Y-100453900D01*
X186701965Y-100398327D01*
X186723466Y-100376826D01*
X186723466Y-100475282D01*
X186930331Y-100974698D01*
X187305633Y-101350000D01*
X186930331Y-101725302D01*
X186723466Y-102224718D01*
X186723466Y-102765282D01*
X186930331Y-103264698D01*
X187305633Y-103640000D01*
X186930331Y-104015302D01*
X186723466Y-104514718D01*
X186723466Y-105055282D01*
X186930331Y-105554698D01*
X187305633Y-105930000D01*
X186930331Y-106305302D01*
X186723466Y-106804718D01*
X186723466Y-107345282D01*
X186930331Y-107844698D01*
X187312568Y-108226935D01*
X187811984Y-108433800D01*
X188352548Y-108433800D01*
X188851964Y-108226935D01*
X189231204Y-107847695D01*
X189175301Y-108003223D01*
X189202488Y-108573454D01*
X189368402Y-108974005D01*
X189614521Y-109048139D01*
X190442661Y-108220000D01*
X189614521Y-107391861D01*
X189394296Y-107458196D01*
X189441066Y-107345282D01*
X189441066Y-106804718D01*
X189234201Y-106305302D01*
X188858899Y-105930000D01*
X189234201Y-105554698D01*
X189441066Y-105055282D01*
X189441066Y-104514718D01*
X189234201Y-104015302D01*
X188858899Y-103640000D01*
X189234201Y-103264698D01*
X189441066Y-102765282D01*
X189441066Y-102224718D01*
X189234201Y-101725302D01*
X188858899Y-101350000D01*
X189234201Y-100974698D01*
X189441066Y-100475282D01*
X189441066Y-99934718D01*
X189416835Y-99876220D01*
X189468288Y-99824766D01*
X189470331Y-99829698D01*
X189845633Y-100205000D01*
X189470331Y-100580302D01*
X189263466Y-101079718D01*
X189263466Y-101620282D01*
X189470331Y-102119698D01*
X189845633Y-102495000D01*
X189470331Y-102870302D01*
X189263466Y-103369718D01*
X189263466Y-103910282D01*
X189470331Y-104409698D01*
X189845633Y-104785000D01*
X189470331Y-105160302D01*
X189263466Y-105659718D01*
X189263466Y-106200282D01*
X189470331Y-106699698D01*
X189837822Y-107067189D01*
X189794127Y-107212255D01*
X190622266Y-108040395D01*
X190636408Y-108026252D01*
X190816014Y-108205858D01*
X190801871Y-108220000D01*
X190816014Y-108234142D01*
X190636408Y-108413748D01*
X190622266Y-108399605D01*
X189794127Y-109227745D01*
X189868261Y-109473864D01*
X190405489Y-109666965D01*
X190975720Y-109639778D01*
X191376271Y-109473864D01*
X191450405Y-109227747D01*
X191528700Y-109306042D01*
X191528701Y-133604802D01*
X191391964Y-133468065D01*
X190892548Y-133261200D01*
X190368167Y-133261200D01*
X190368167Y-131158169D01*
X190385334Y-131071866D01*
X190365499Y-130972150D01*
X190317323Y-130729952D01*
X190123644Y-130440090D01*
X190050476Y-130391201D01*
X189428058Y-129768784D01*
X189379167Y-129695613D01*
X189101978Y-129510402D01*
X189909535Y-129175901D01*
X190816967Y-128268469D01*
X191308066Y-127082851D01*
X191308066Y-125799549D01*
X190816967Y-124613931D01*
X189909535Y-123706499D01*
X188723917Y-123215400D01*
X187440615Y-123215400D01*
X186254997Y-123706499D01*
X185347565Y-124613931D01*
X184856466Y-125799549D01*
X184856466Y-127082851D01*
X185347565Y-128268469D01*
X186254997Y-129175901D01*
X186919362Y-129451090D01*
X183696321Y-129451090D01*
X183610017Y-129433923D01*
X183523713Y-129451090D01*
X183268102Y-129501934D01*
X182978240Y-129695613D01*
X182929352Y-129768779D01*
X180885674Y-131812457D01*
X180931688Y-131726956D01*
X180912427Y-131638423D01*
X180637032Y-131137073D01*
X180190742Y-130779275D01*
X180163380Y-130771315D01*
X180512525Y-130538025D01*
X180818482Y-130080127D01*
X180925920Y-129540000D01*
X180818482Y-128999873D01*
X180512525Y-128541975D01*
X180390800Y-128460641D01*
X180390800Y-127320586D01*
X180416676Y-127190499D01*
X180314166Y-126675149D01*
X180095931Y-126348538D01*
X180022243Y-126238256D01*
X179911961Y-126164568D01*
X174238416Y-120491023D01*
X179441200Y-120491023D01*
X179441200Y-121508977D01*
X179830754Y-122449444D01*
X180550556Y-123169246D01*
X181491023Y-123558800D01*
X182508977Y-123558800D01*
X183449444Y-123169246D01*
X184169246Y-122449444D01*
X184558800Y-121508977D01*
X184558800Y-120491023D01*
X184169246Y-119550556D01*
X183449444Y-118830754D01*
X182508977Y-118441200D01*
X181491023Y-118441200D01*
X180550556Y-118830754D01*
X179830754Y-119550556D01*
X179441200Y-120491023D01*
X174238416Y-120491023D01*
X174040800Y-120293407D01*
X174040800Y-115228348D01*
X184856466Y-115228348D01*
X184856466Y-116511650D01*
X185347565Y-117697268D01*
X186254997Y-118604700D01*
X187440615Y-119095799D01*
X188723917Y-119095799D01*
X189909535Y-118604700D01*
X190816967Y-117697268D01*
X191308066Y-116511650D01*
X191308066Y-115228348D01*
X190816967Y-114042730D01*
X189909535Y-113135298D01*
X188723917Y-112644199D01*
X187440615Y-112644199D01*
X186254997Y-113135298D01*
X185347565Y-114042730D01*
X184856466Y-115228348D01*
X174040800Y-115228348D01*
X174040800Y-96873044D01*
X177208312Y-96873044D01*
X177227573Y-96961577D01*
X177502968Y-97462927D01*
X177949258Y-97820725D01*
X178498500Y-97980500D01*
X178943000Y-97980500D01*
X178943000Y-96647000D01*
X177329960Y-96647000D01*
X177208312Y-96873044D01*
X174040800Y-96873044D01*
X174040800Y-95300800D01*
X177847570Y-95300800D01*
X177502968Y-95577073D01*
X177227573Y-96078423D01*
X177208312Y-96166956D01*
X177329960Y-96393000D01*
X178943000Y-96393000D01*
X178943000Y-96373000D01*
X179197000Y-96373000D01*
X179197000Y-96393000D01*
X180810040Y-96393000D01*
X180931688Y-96166956D01*
X180912427Y-96078423D01*
X180637032Y-95577073D01*
X180190742Y-95219275D01*
X180163380Y-95211315D01*
X180512525Y-94978025D01*
X180818482Y-94520127D01*
X180925920Y-93980000D01*
X180818482Y-93439873D01*
X180512525Y-92981975D01*
X180054627Y-92676018D01*
X179650841Y-92595700D01*
X178489159Y-92595700D01*
X178169923Y-92659200D01*
X174040800Y-92659200D01*
X174040800Y-90239549D01*
X184856466Y-90239549D01*
X184856466Y-91522851D01*
X185347565Y-92708469D01*
X186254997Y-93615901D01*
X187440615Y-94107000D01*
X188723917Y-94107000D01*
X189909535Y-93615901D01*
X190816967Y-92708469D01*
X191308066Y-91522851D01*
X191308066Y-90239549D01*
X190816967Y-89053931D01*
X189909535Y-88146499D01*
X188723917Y-87655400D01*
X187440615Y-87655400D01*
X186254997Y-88146499D01*
X185347565Y-89053931D01*
X184856466Y-90239549D01*
X174040800Y-90239549D01*
X174040800Y-85491023D01*
X179441200Y-85491023D01*
X179441200Y-86508977D01*
X179830754Y-87449444D01*
X180550556Y-88169246D01*
X181491023Y-88558800D01*
X182508977Y-88558800D01*
X183449444Y-88169246D01*
X184169246Y-87449444D01*
X184558800Y-86508977D01*
X184558800Y-85491023D01*
X184169246Y-84550556D01*
X183449444Y-83830754D01*
X182508977Y-83441200D01*
X181491023Y-83441200D01*
X180550556Y-83830754D01*
X179830754Y-84550556D01*
X179441200Y-85491023D01*
X174040800Y-85491023D01*
X174040800Y-79668348D01*
X184856466Y-79668348D01*
X184856466Y-80951650D01*
X185347565Y-82137268D01*
X186254997Y-83044700D01*
X187440615Y-83535799D01*
X188723917Y-83535799D01*
X189909535Y-83044700D01*
X190816967Y-82137268D01*
X191308066Y-80951650D01*
X191308066Y-79668348D01*
X190816967Y-78482730D01*
X189909535Y-77575298D01*
X188723917Y-77084199D01*
X187440615Y-77084199D01*
X186254997Y-77575298D01*
X185347565Y-78482730D01*
X184856466Y-79668348D01*
X174040800Y-79668348D01*
X174040800Y-65781063D01*
X174009579Y-65624103D01*
X176575050Y-63058633D01*
X176664119Y-62999119D01*
X176763979Y-62849669D01*
X176813960Y-62774867D01*
X176899903Y-62646244D01*
X176961800Y-62335066D01*
X176961800Y-62335062D01*
X176982698Y-62230001D01*
X176961800Y-62124939D01*
X176961800Y-61592382D01*
X177214178Y-61340005D01*
X177227573Y-61401577D01*
X177502968Y-61902927D01*
X177949258Y-62260725D01*
X178498500Y-62420500D01*
X178943000Y-62420500D01*
X178943000Y-61087000D01*
X178923000Y-61087000D01*
X178923000Y-60833000D01*
X178943000Y-60833000D01*
X178943000Y-60813000D01*
X179197000Y-60813000D01*
X179197000Y-60833000D01*
X180810040Y-60833000D01*
X180931688Y-60606956D01*
X180912427Y-60518423D01*
X180637032Y-60017073D01*
X180190742Y-59659275D01*
X180163380Y-59651315D01*
X180512525Y-59418025D01*
X180818482Y-58960127D01*
X180925920Y-58420000D01*
X180818482Y-57879873D01*
X180512525Y-57421975D01*
X180466617Y-57391300D01*
X183787026Y-57391300D01*
X185374525Y-58978800D01*
X185374525Y-58978800D01*
G37*
X185374525Y-58978800D02*
X184027909Y-58978800D01*
X183856914Y-58864545D01*
X183514999Y-58796533D01*
X183173084Y-58864545D01*
X182956388Y-59009337D01*
X180834071Y-61131654D01*
X180810040Y-61087000D01*
X179197000Y-61087000D01*
X179197000Y-62420500D01*
X179545226Y-62420500D01*
X178511392Y-63454334D01*
X178438224Y-63503223D01*
X178258409Y-63772336D01*
X178244545Y-63793085D01*
X178176533Y-64135000D01*
X178193701Y-64221308D01*
X178193701Y-64714470D01*
X178085373Y-64736018D01*
X177627475Y-65041975D01*
X177520458Y-65202137D01*
X177458085Y-65214544D01*
X177168223Y-65408223D01*
X177119335Y-65481389D01*
X176606393Y-65994332D01*
X176533223Y-66043223D01*
X176339544Y-66333086D01*
X176307663Y-66493364D01*
X176271533Y-66675000D01*
X176288700Y-66761304D01*
X176288701Y-69001869D01*
X176339545Y-69257480D01*
X176533224Y-69547342D01*
X176823086Y-69741021D01*
X177024789Y-69781142D01*
X177522591Y-70278945D01*
X177321518Y-70579873D01*
X177214080Y-71120000D01*
X177321518Y-71660127D01*
X177627475Y-72118025D01*
X178034515Y-72390000D01*
X177627475Y-72661975D01*
X177321518Y-73119873D01*
X177214080Y-73660000D01*
X177321518Y-74200127D01*
X177627475Y-74658025D01*
X178085373Y-74963982D01*
X178489159Y-75044300D01*
X179650841Y-75044300D01*
X180054627Y-74963982D01*
X180409596Y-74726800D01*
X184437205Y-74726800D01*
X184542266Y-74747698D01*
X184647327Y-74726800D01*
X184647332Y-74726800D01*
X184958510Y-74664903D01*
X185311385Y-74429119D01*
X185370901Y-74340047D01*
X185692148Y-74018800D01*
X185812548Y-74018800D01*
X186311964Y-73811935D01*
X186694201Y-73429698D01*
X186901066Y-72930282D01*
X186901066Y-72389718D01*
X186694201Y-71890302D01*
X186318899Y-71515000D01*
X186694201Y-71139698D01*
X186901066Y-70640282D01*
X186901066Y-70099718D01*
X186694201Y-69600302D01*
X186318899Y-69225000D01*
X186694201Y-68849698D01*
X186901066Y-68350282D01*
X186901066Y-67809718D01*
X186694201Y-67310302D01*
X186318899Y-66935000D01*
X186694201Y-66559698D01*
X186901066Y-66060282D01*
X186901066Y-65519718D01*
X186694201Y-65020302D01*
X186567799Y-64893900D01*
X186701965Y-64838327D01*
X186723466Y-64816826D01*
X186723466Y-64915282D01*
X186930331Y-65414698D01*
X187305633Y-65790000D01*
X186930331Y-66165302D01*
X186723466Y-66664718D01*
X186723466Y-67205282D01*
X186930331Y-67704698D01*
X187305633Y-68080000D01*
X186930331Y-68455302D01*
X186723466Y-68954718D01*
X186723466Y-69495282D01*
X186930331Y-69994698D01*
X187305633Y-70370000D01*
X186930331Y-70745302D01*
X186723466Y-71244718D01*
X186723466Y-71785282D01*
X186930331Y-72284698D01*
X187312568Y-72666935D01*
X187811984Y-72873800D01*
X188352548Y-72873800D01*
X188851964Y-72666935D01*
X189231204Y-72287695D01*
X189175301Y-72443223D01*
X189202488Y-73013454D01*
X189368402Y-73414005D01*
X189614521Y-73488139D01*
X190442661Y-72660000D01*
X189614521Y-71831861D01*
X189394296Y-71898196D01*
X189441066Y-71785282D01*
X189441066Y-71244718D01*
X189234201Y-70745302D01*
X188858899Y-70370000D01*
X189234201Y-69994698D01*
X189441066Y-69495282D01*
X189441066Y-68954718D01*
X189234201Y-68455302D01*
X188858899Y-68080000D01*
X189234201Y-67704698D01*
X189441066Y-67205282D01*
X189441066Y-66664718D01*
X189234201Y-66165302D01*
X188858899Y-65790000D01*
X189234201Y-65414698D01*
X189441066Y-64915282D01*
X189441066Y-64374718D01*
X189416835Y-64316220D01*
X189468288Y-64264766D01*
X189470331Y-64269698D01*
X189845633Y-64645000D01*
X189470331Y-65020302D01*
X189263466Y-65519718D01*
X189263466Y-66060282D01*
X189470331Y-66559698D01*
X189845633Y-66935000D01*
X189470331Y-67310302D01*
X189263466Y-67809718D01*
X189263466Y-68350282D01*
X189470331Y-68849698D01*
X189845633Y-69225000D01*
X189470331Y-69600302D01*
X189263466Y-70099718D01*
X189263466Y-70640282D01*
X189470331Y-71139698D01*
X189837822Y-71507189D01*
X189794127Y-71652255D01*
X190622266Y-72480395D01*
X190636408Y-72466252D01*
X190816014Y-72645858D01*
X190801871Y-72660000D01*
X190816014Y-72674142D01*
X190636408Y-72853748D01*
X190622266Y-72839605D01*
X189794127Y-73667745D01*
X189868261Y-73913864D01*
X190405489Y-74106965D01*
X190975720Y-74079778D01*
X191376271Y-73913864D01*
X191450405Y-73667747D01*
X191528700Y-73746042D01*
X191528701Y-98044802D01*
X191391964Y-97908065D01*
X190892548Y-97701200D01*
X190351984Y-97701200D01*
X190037967Y-97831270D01*
X190037967Y-97344613D01*
X190055456Y-97318439D01*
X190106300Y-97062828D01*
X190106300Y-96606302D01*
X190123467Y-96519999D01*
X190087518Y-96339271D01*
X190055456Y-96178085D01*
X189861777Y-95888223D01*
X189788609Y-95839334D01*
X188640668Y-94691394D01*
X188591777Y-94618223D01*
X188301915Y-94424544D01*
X188046304Y-94373700D01*
X188046303Y-94373700D01*
X187960000Y-94356533D01*
X187873697Y-94373700D01*
X183636050Y-94373700D01*
X183549747Y-94356533D01*
X183463444Y-94373700D01*
X183207833Y-94424544D01*
X182917971Y-94618223D01*
X182869082Y-94691392D01*
X180846229Y-96714245D01*
X180810040Y-96647000D01*
X179197000Y-96647000D01*
X179197000Y-97980500D01*
X179579974Y-97980500D01*
X178511392Y-99049082D01*
X178438224Y-99097971D01*
X178272664Y-99345750D01*
X178244545Y-99387833D01*
X178176533Y-99729748D01*
X178193701Y-99816056D01*
X178193701Y-100274470D01*
X178085373Y-100296018D01*
X177627475Y-100601975D01*
X177321518Y-101059873D01*
X177214080Y-101600000D01*
X177242641Y-101743585D01*
X176631784Y-102354442D01*
X176558613Y-102403333D01*
X176364934Y-102693196D01*
X176323006Y-102903982D01*
X176296923Y-103035110D01*
X176314090Y-103121414D01*
X176314091Y-104714082D01*
X176296923Y-104800390D01*
X176347625Y-105055282D01*
X176364935Y-105142305D01*
X176558614Y-105432167D01*
X176631781Y-105481056D01*
X177241388Y-106090664D01*
X177320757Y-106143697D01*
X177214080Y-106680000D01*
X177321518Y-107220127D01*
X177627475Y-107678025D01*
X178034515Y-107950000D01*
X177627475Y-108221975D01*
X177321518Y-108679873D01*
X177214080Y-109220000D01*
X177321518Y-109760127D01*
X177627475Y-110218025D01*
X178085373Y-110523982D01*
X178489159Y-110604300D01*
X179650841Y-110604300D01*
X180054627Y-110523982D01*
X180409596Y-110286800D01*
X184437205Y-110286800D01*
X184542266Y-110307698D01*
X184647327Y-110286800D01*
X184647332Y-110286800D01*
X184958510Y-110224903D01*
X185311385Y-109989119D01*
X185370901Y-109900047D01*
X185692148Y-109578800D01*
X185812548Y-109578800D01*
X186311964Y-109371935D01*
X186694201Y-108989698D01*
X186901066Y-108490282D01*
X186901066Y-107949718D01*
X186694201Y-107450302D01*
X186318899Y-107075000D01*
X186694201Y-106699698D01*
X186901066Y-106200282D01*
X186901066Y-105659718D01*
X186694201Y-105160302D01*
X186318899Y-104785000D01*
X186694201Y-104409698D01*
X186901066Y-103910282D01*
X186901066Y-103369718D01*
X186694201Y-102870302D01*
X186318899Y-102495000D01*
X186694201Y-102119698D01*
X186901066Y-101620282D01*
X186901066Y-101079718D01*
X186694201Y-100580302D01*
X186567799Y-100453900D01*
X186701965Y-100398327D01*
X186723466Y-100376826D01*
X186723466Y-100475282D01*
X186930331Y-100974698D01*
X187305633Y-101350000D01*
X186930331Y-101725302D01*
X186723466Y-102224718D01*
X186723466Y-102765282D01*
X186930331Y-103264698D01*
X187305633Y-103640000D01*
X186930331Y-104015302D01*
X186723466Y-104514718D01*
X186723466Y-105055282D01*
X186930331Y-105554698D01*
X187305633Y-105930000D01*
X186930331Y-106305302D01*
X186723466Y-106804718D01*
X186723466Y-107345282D01*
X186930331Y-107844698D01*
X187312568Y-108226935D01*
X187811984Y-108433800D01*
X188352548Y-108433800D01*
X188851964Y-108226935D01*
X189231204Y-107847695D01*
X189175301Y-108003223D01*
X189202488Y-108573454D01*
X189368402Y-108974005D01*
X189614521Y-109048139D01*
X190442661Y-108220000D01*
X189614521Y-107391861D01*
X189394296Y-107458196D01*
X189441066Y-107345282D01*
X189441066Y-106804718D01*
X189234201Y-106305302D01*
X188858899Y-105930000D01*
X189234201Y-105554698D01*
X189441066Y-105055282D01*
X189441066Y-104514718D01*
X189234201Y-104015302D01*
X188858899Y-103640000D01*
X189234201Y-103264698D01*
X189441066Y-102765282D01*
X189441066Y-102224718D01*
X189234201Y-101725302D01*
X188858899Y-101350000D01*
X189234201Y-100974698D01*
X189441066Y-100475282D01*
X189441066Y-99934718D01*
X189416835Y-99876220D01*
X189468288Y-99824766D01*
X189470331Y-99829698D01*
X189845633Y-100205000D01*
X189470331Y-100580302D01*
X189263466Y-101079718D01*
X189263466Y-101620282D01*
X189470331Y-102119698D01*
X189845633Y-102495000D01*
X189470331Y-102870302D01*
X189263466Y-103369718D01*
X189263466Y-103910282D01*
X189470331Y-104409698D01*
X189845633Y-104785000D01*
X189470331Y-105160302D01*
X189263466Y-105659718D01*
X189263466Y-106200282D01*
X189470331Y-106699698D01*
X189837822Y-107067189D01*
X189794127Y-107212255D01*
X190622266Y-108040395D01*
X190636408Y-108026252D01*
X190816014Y-108205858D01*
X190801871Y-108220000D01*
X190816014Y-108234142D01*
X190636408Y-108413748D01*
X190622266Y-108399605D01*
X189794127Y-109227745D01*
X189868261Y-109473864D01*
X190405489Y-109666965D01*
X190975720Y-109639778D01*
X191376271Y-109473864D01*
X191450405Y-109227747D01*
X191528700Y-109306042D01*
X191528701Y-133604802D01*
X191391964Y-133468065D01*
X190892548Y-133261200D01*
X190368167Y-133261200D01*
X190368167Y-131158169D01*
X190385334Y-131071866D01*
X190365499Y-130972150D01*
X190317323Y-130729952D01*
X190123644Y-130440090D01*
X190050476Y-130391201D01*
X189428058Y-129768784D01*
X189379167Y-129695613D01*
X189101978Y-129510402D01*
X189909535Y-129175901D01*
X190816967Y-128268469D01*
X191308066Y-127082851D01*
X191308066Y-125799549D01*
X190816967Y-124613931D01*
X189909535Y-123706499D01*
X188723917Y-123215400D01*
X187440615Y-123215400D01*
X186254997Y-123706499D01*
X185347565Y-124613931D01*
X184856466Y-125799549D01*
X184856466Y-127082851D01*
X185347565Y-128268469D01*
X186254997Y-129175901D01*
X186919362Y-129451090D01*
X183696321Y-129451090D01*
X183610017Y-129433923D01*
X183523713Y-129451090D01*
X183268102Y-129501934D01*
X182978240Y-129695613D01*
X182929352Y-129768779D01*
X180885674Y-131812457D01*
X180931688Y-131726956D01*
X180912427Y-131638423D01*
X180637032Y-131137073D01*
X180190742Y-130779275D01*
X180163380Y-130771315D01*
X180512525Y-130538025D01*
X180818482Y-130080127D01*
X180925920Y-129540000D01*
X180818482Y-128999873D01*
X180512525Y-128541975D01*
X180390800Y-128460641D01*
X180390800Y-127320586D01*
X180416676Y-127190499D01*
X180314166Y-126675149D01*
X180095931Y-126348538D01*
X180022243Y-126238256D01*
X179911961Y-126164568D01*
X174238416Y-120491023D01*
X179441200Y-120491023D01*
X179441200Y-121508977D01*
X179830754Y-122449444D01*
X180550556Y-123169246D01*
X181491023Y-123558800D01*
X182508977Y-123558800D01*
X183449444Y-123169246D01*
X184169246Y-122449444D01*
X184558800Y-121508977D01*
X184558800Y-120491023D01*
X184169246Y-119550556D01*
X183449444Y-118830754D01*
X182508977Y-118441200D01*
X181491023Y-118441200D01*
X180550556Y-118830754D01*
X179830754Y-119550556D01*
X179441200Y-120491023D01*
X174238416Y-120491023D01*
X174040800Y-120293407D01*
X174040800Y-115228348D01*
X184856466Y-115228348D01*
X184856466Y-116511650D01*
X185347565Y-117697268D01*
X186254997Y-118604700D01*
X187440615Y-119095799D01*
X188723917Y-119095799D01*
X189909535Y-118604700D01*
X190816967Y-117697268D01*
X191308066Y-116511650D01*
X191308066Y-115228348D01*
X190816967Y-114042730D01*
X189909535Y-113135298D01*
X188723917Y-112644199D01*
X187440615Y-112644199D01*
X186254997Y-113135298D01*
X185347565Y-114042730D01*
X184856466Y-115228348D01*
X174040800Y-115228348D01*
X174040800Y-96873044D01*
X177208312Y-96873044D01*
X177227573Y-96961577D01*
X177502968Y-97462927D01*
X177949258Y-97820725D01*
X178498500Y-97980500D01*
X178943000Y-97980500D01*
X178943000Y-96647000D01*
X177329960Y-96647000D01*
X177208312Y-96873044D01*
X174040800Y-96873044D01*
X174040800Y-95300800D01*
X177847570Y-95300800D01*
X177502968Y-95577073D01*
X177227573Y-96078423D01*
X177208312Y-96166956D01*
X177329960Y-96393000D01*
X178943000Y-96393000D01*
X178943000Y-96373000D01*
X179197000Y-96373000D01*
X179197000Y-96393000D01*
X180810040Y-96393000D01*
X180931688Y-96166956D01*
X180912427Y-96078423D01*
X180637032Y-95577073D01*
X180190742Y-95219275D01*
X180163380Y-95211315D01*
X180512525Y-94978025D01*
X180818482Y-94520127D01*
X180925920Y-93980000D01*
X180818482Y-93439873D01*
X180512525Y-92981975D01*
X180054627Y-92676018D01*
X179650841Y-92595700D01*
X178489159Y-92595700D01*
X178169923Y-92659200D01*
X174040800Y-92659200D01*
X174040800Y-90239549D01*
X184856466Y-90239549D01*
X184856466Y-91522851D01*
X185347565Y-92708469D01*
X186254997Y-93615901D01*
X187440615Y-94107000D01*
X188723917Y-94107000D01*
X189909535Y-93615901D01*
X190816967Y-92708469D01*
X191308066Y-91522851D01*
X191308066Y-90239549D01*
X190816967Y-89053931D01*
X189909535Y-88146499D01*
X188723917Y-87655400D01*
X187440615Y-87655400D01*
X186254997Y-88146499D01*
X185347565Y-89053931D01*
X184856466Y-90239549D01*
X174040800Y-90239549D01*
X174040800Y-85491023D01*
X179441200Y-85491023D01*
X179441200Y-86508977D01*
X179830754Y-87449444D01*
X180550556Y-88169246D01*
X181491023Y-88558800D01*
X182508977Y-88558800D01*
X183449444Y-88169246D01*
X184169246Y-87449444D01*
X184558800Y-86508977D01*
X184558800Y-85491023D01*
X184169246Y-84550556D01*
X183449444Y-83830754D01*
X182508977Y-83441200D01*
X181491023Y-83441200D01*
X180550556Y-83830754D01*
X179830754Y-84550556D01*
X179441200Y-85491023D01*
X174040800Y-85491023D01*
X174040800Y-79668348D01*
X184856466Y-79668348D01*
X184856466Y-80951650D01*
X185347565Y-82137268D01*
X186254997Y-83044700D01*
X187440615Y-83535799D01*
X188723917Y-83535799D01*
X189909535Y-83044700D01*
X190816967Y-82137268D01*
X191308066Y-80951650D01*
X191308066Y-79668348D01*
X190816967Y-78482730D01*
X189909535Y-77575298D01*
X188723917Y-77084199D01*
X187440615Y-77084199D01*
X186254997Y-77575298D01*
X185347565Y-78482730D01*
X184856466Y-79668348D01*
X174040800Y-79668348D01*
X174040800Y-65781063D01*
X174009579Y-65624103D01*
X176575050Y-63058633D01*
X176664119Y-62999119D01*
X176763979Y-62849669D01*
X176813960Y-62774867D01*
X176899903Y-62646244D01*
X176961800Y-62335066D01*
X176961800Y-62335062D01*
X176982698Y-62230001D01*
X176961800Y-62124939D01*
X176961800Y-61592382D01*
X177214178Y-61340005D01*
X177227573Y-61401577D01*
X177502968Y-61902927D01*
X177949258Y-62260725D01*
X178498500Y-62420500D01*
X178943000Y-62420500D01*
X178943000Y-61087000D01*
X178923000Y-61087000D01*
X178923000Y-60833000D01*
X178943000Y-60833000D01*
X178943000Y-60813000D01*
X179197000Y-60813000D01*
X179197000Y-60833000D01*
X180810040Y-60833000D01*
X180931688Y-60606956D01*
X180912427Y-60518423D01*
X180637032Y-60017073D01*
X180190742Y-59659275D01*
X180163380Y-59651315D01*
X180512525Y-59418025D01*
X180818482Y-58960127D01*
X180925920Y-58420000D01*
X180818482Y-57879873D01*
X180512525Y-57421975D01*
X180466617Y-57391300D01*
X183787026Y-57391300D01*
X185374525Y-58978800D01*
G36*
X185669266Y-98933000D02*
X185689266Y-98933000D01*
X185689266Y-99187000D01*
X185669266Y-99187000D01*
X185669266Y-99207000D01*
X185415266Y-99207000D01*
X185415266Y-99187000D01*
X185395266Y-99187000D01*
X185395266Y-98933000D01*
X185415266Y-98933000D01*
X185415266Y-98913000D01*
X185669266Y-98913000D01*
X185669266Y-98933000D01*
X185669266Y-98933000D01*
G37*
X185669266Y-98933000D02*
X185689266Y-98933000D01*
X185689266Y-99187000D01*
X185669266Y-99187000D01*
X185669266Y-99207000D01*
X185415266Y-99207000D01*
X185415266Y-99187000D01*
X185395266Y-99187000D01*
X185395266Y-98933000D01*
X185415266Y-98933000D01*
X185415266Y-98913000D01*
X185669266Y-98913000D01*
X185669266Y-98933000D01*
G36*
X185669266Y-63373000D02*
X185689266Y-63373000D01*
X185689266Y-63627000D01*
X185669266Y-63627000D01*
X185669266Y-63647000D01*
X185415266Y-63647000D01*
X185415266Y-63627000D01*
X185395266Y-63627000D01*
X185395266Y-63373000D01*
X185415266Y-63373000D01*
X185415266Y-63353000D01*
X185669266Y-63353000D01*
X185669266Y-63373000D01*
X185669266Y-63373000D01*
G37*
X185669266Y-63373000D02*
X185689266Y-63373000D01*
X185689266Y-63627000D01*
X185669266Y-63627000D01*
X185669266Y-63647000D01*
X185415266Y-63647000D01*
X185415266Y-63627000D01*
X185395266Y-63627000D01*
X185395266Y-63373000D01*
X185415266Y-63373000D01*
X185415266Y-63353000D01*
X185669266Y-63353000D01*
X185669266Y-63373000D01*
G04 #@! TD*
M02*
